  0
SECTION
  2
HEADER
  9
$ACADVER
  1
AC1009
  9
$EXTMIN
 10
0.0
 20
0.0
 30
0.0
  9
$EXTMAX
 10
1000.0
 20
1000.0
 30
0.0
  9
$FILLMODE
 70
 0
  9
$SPLFRAME
 70
 1
  0
ENDSEC
  0
SECTION
  2
TABLES
  0
TABLE
  2
LAYER
 70
1
  0
LAYER
  2
0
 70
     0
 62
     7
  6
CONTINUOUS
  0
ENDTAB
  0
ENDSEC
  0
SECTION
  2
ENTITIES
  0
LINE
  8
0
 62
     0
 10
316.894
 20
124.406
 30
0.0
 11
316.888
 21
124.564
 31
0.0
  0
LINE
  8
0
 62
     0
 10
316.888
 20
124.564
 30
0.0
 11
316.869
 21
124.719
 31
0.0
  0
LINE
  8
0
 62
     0
 10
316.869
 20
124.719
 30
0.0
 11
316.839
 21
124.874
 31
0.0
  0
LINE
  8
0
 62
     0
 10
316.839
 20
124.874
 30
0.0
 11
316.796
 21
125.024
 31
0.0
  0
LINE
  8
0
 62
     0
 10
316.796
 20
125.024
 30
0.0
 11
316.742
 21
125.171
 31
0.0
  0
LINE
  8
0
 62
     0
 10
316.742
 20
125.171
 30
0.0
 11
316.676
 21
125.315
 31
0.0
  0
LINE
  8
0
 62
     0
 10
316.676
 20
125.315
 30
0.0
 11
316.599
 21
125.451
 31
0.0
  0
LINE
  8
0
 62
     0
 10
316.599
 20
125.451
 30
0.0
 11
316.512
 21
125.582
 31
0.0
  0
LINE
  8
0
 62
     0
 10
316.512
 20
125.582
 30
0.0
 11
316.414
 21
125.705
 31
0.0
  0
LINE
  8
0
 62
     0
 10
316.414
 20
125.705
 30
0.0
 11
316.308
 21
125.82
 31
0.0
  0
LINE
  8
0
 62
     0
 10
316.308
 20
125.82
 30
0.0
 11
316.192
 21
125.926
 31
0.0
  0
LINE
  8
0
 62
     0
 10
316.192
 20
125.926
 30
0.0
 11
316.069
 21
126.024
 31
0.0
  0
LINE
  8
0
 62
     0
 10
316.069
 20
126.024
 30
0.0
 11
315.939
 21
126.111
 31
0.0
  0
LINE
  8
0
 62
     0
 10
315.939
 20
126.111
 30
0.0
 11
315.802
 21
126.188
 31
0.0
  0
LINE
  8
0
 62
     0
 10
315.802
 20
126.188
 30
0.0
 11
315.659
 21
126.255
 31
0.0
  0
LINE
  8
0
 62
     0
 10
315.659
 20
126.255
 30
0.0
 11
315.511
 21
126.308
 31
0.0
  0
LINE
  8
0
 62
     0
 10
315.511
 20
126.308
 30
0.0
 11
315.361
 21
126.351
 31
0.0
  0
LINE
  8
0
 62
     0
 10
315.361
 20
126.351
 30
0.0
 11
315.207
 21
126.381
 31
0.0
  0
LINE
  8
0
 62
     0
 10
315.207
 20
126.381
 30
0.0
 11
315.051
 21
126.401
 31
0.0
  0
LINE
  8
0
 62
     0
 10
315.051
 20
126.401
 30
0.0
 11
314.894
 21
126.406
 31
0.0
  0
LINE
  8
0
 62
     0
 10
314.894
 20
126.406
 30
0.0
 11
163.493
 21
126.406
 31
0.0
  0
LINE
  8
0
 62
     0
 10
163.493
 20
126.406
 30
0.0
 11
163.493
 21
120.406
 31
0.0
  0
LINE
  8
0
 62
     0
 10
163.493
 20
120.406
 30
0.0
 11
310.894
 21
120.406
 31
0.0
  0
LINE
  8
0
 62
     0
 10
310.894
 20
120.406
 30
0.0
 11
310.894
 21
6.10609
 31
0.0
  0
LINE
  8
0
 62
     0
 10
310.894
 20
6.10609
 30
0.0
 11
6.09367
 21
6.10609
 31
0.0
  0
LINE
  8
0
 62
     0
 10
6.09367
 20
6.10609
 30
0.0
 11
6.09367
 21
120.406
 31
0.0
  0
LINE
  8
0
 62
     0
 10
6.09367
 20
120.406
 30
0.0
 11
153.494
 21
120.406
 31
0.0
  0
LINE
  8
0
 62
     0
 10
153.494
 20
120.406
 30
0.0
 11
153.494
 21
126.406
 31
0.0
  0
LINE
  8
0
 62
     0
 10
153.494
 20
126.406
 30
0.0
 11
2.09324
 21
126.406
 31
0.0
  0
LINE
  8
0
 62
     0
 10
2.09324
 20
126.406
 30
0.0
 11
1.93614
 21
126.401
 31
0.0
  0
LINE
  8
0
 62
     0
 10
1.93614
 20
126.401
 30
0.0
 11
1.78043
 21
126.381
 31
0.0
  0
LINE
  8
0
 62
     0
 10
1.78043
 20
126.381
 30
0.0
 11
1.62609
 21
126.351
 31
0.0
  0
LINE
  8
0
 62
     0
 10
1.62609
 20
126.351
 30
0.0
 11
1.47588
 21
126.308
 31
0.0
  0
LINE
  8
0
 62
     0
 10
1.47588
 20
126.308
 30
0.0
 11
1.32843
 21
126.255
 31
0.0
  0
LINE
  8
0
 62
     0
 10
1.32843
 20
126.255
 30
0.0
 11
1.18511
 21
126.188
 31
0.0
  0
LINE
  8
0
 62
     0
 10
1.18511
 20
126.188
 30
0.0
 11
1.04869
 21
126.111
 31
0.0
  0
LINE
  8
0
 62
     0
 10
1.04869
 20
126.111
 30
0.0
 11
0.917773
 21
126.024
 31
0.0
  0
LINE
  8
0
 62
     0
 10
0.917773
 20
126.024
 30
0.0
 11
0.795129
 21
125.926
 31
0.0
  0
LINE
  8
0
 62
     0
 10
0.795129
 20
125.926
 30
0.0
 11
0.679372
 21
125.82
 31
0.0
  0
LINE
  8
0
 62
     0
 10
0.679372
 20
125.82
 30
0.0
 11
0.573264
 21
125.705
 31
0.0
  0
LINE
  8
0
 62
     0
 10
0.573264
 20
125.705
 30
0.0
 11
0.475424
 21
125.582
 31
0.0
  0
LINE
  8
0
 62
     0
 10
0.475424
 20
125.582
 30
0.0
 11
0.388606
 21
125.451
 31
0.0
  0
LINE
  8
0
 62
     0
 10
0.388606
 20
125.451
 30
0.0
 11
0.311437
 21
125.315
 31
0.0
  0
LINE
  8
0
 62
     0
 10
0.311437
 20
125.315
 30
0.0
 11
0.245291
 21
125.171
 31
0.0
  0
LINE
  8
0
 62
     0
 10
0.245291
 20
125.171
 30
0.0
 11
0.191547
 21
125.024
 31
0.0
  0
LINE
  8
0
 62
     0
 10
0.191547
 20
125.024
 30
0.0
 11
0.148828
 21
124.874
 31
0.0
  0
LINE
  8
0
 62
     0
 10
0.148828
 20
124.874
 30
0.0
 11
0.118511
 21
124.719
 31
0.0
  0
LINE
  8
0
 62
     0
 10
0.118511
 20
124.719
 30
0.0
 11
0.0992188
 21
124.564
 31
0.0
  0
LINE
  8
0
 62
     0
 10
0.0992188
 20
124.564
 30
0.0
 11
0.0937066
 21
124.406
 31
0.0
  0
LINE
  8
0
 62
     0
 10
0.0937066
 20
124.406
 30
0.0
 11
0.0937066
 21
2.10564
 31
0.0
  0
LINE
  8
0
 62
     0
 10
0.0937066
 20
2.10564
 30
0.0
 11
0.0992188
 21
1.94855
 31
0.0
  0
LINE
  8
0
 62
     0
 10
0.0992188
 20
1.94855
 30
0.0
 11
0.118511
 21
1.79283
 31
0.0
  0
LINE
  8
0
 62
     0
 10
0.118511
 20
1.79283
 30
0.0
 11
0.148828
 21
1.63849
 31
0.0
  0
LINE
  8
0
 62
     0
 10
0.148828
 20
1.63849
 30
0.0
 11
0.191547
 21
1.48828
 31
0.0
  0
LINE
  8
0
 62
     0
 10
0.191547
 20
1.48828
 30
0.0
 11
0.245291
 21
1.34083
 31
0.0
  0
LINE
  8
0
 62
     0
 10
0.245291
 20
1.34083
 30
0.0
 11
0.311437
 21
1.19751
 31
0.0
  0
LINE
  8
0
 62
     0
 10
0.311437
 20
1.19751
 30
0.0
 11
0.388606
 21
1.06109
 31
0.0
  0
LINE
  8
0
 62
     0
 10
0.388606
 20
1.06109
 30
0.0
 11
0.475424
 21
0.930176
 31
0.0
  0
LINE
  8
0
 62
     0
 10
0.475424
 20
0.930176
 30
0.0
 11
0.573264
 21
0.80753
 31
0.0
  0
LINE
  8
0
 62
     0
 10
0.573264
 20
0.80753
 30
0.0
 11
0.679372
 21
0.691776
 31
0.0
  0
LINE
  8
0
 62
     0
 10
0.679372
 20
0.691776
 30
0.0
 11
0.795129
 21
0.585668
 31
0.0
  0
LINE
  8
0
 62
     0
 10
0.795129
 20
0.585668
 30
0.0
 11
0.917773
 21
0.487825
 31
0.0
  0
LINE
  8
0
 62
     0
 10
0.917773
 20
0.487825
 30
0.0
 11
1.04869
 21
0.40101
 31
0.0
  0
LINE
  8
0
 62
     0
 10
1.04869
 20
0.40101
 30
0.0
 11
1.18511
 21
0.323839
 31
0.0
  0
LINE
  8
0
 62
     0
 10
1.18511
 20
0.323839
 30
0.0
 11
1.32843
 21
0.257693
 31
0.0
  0
LINE
  8
0
 62
     0
 10
1.32843
 20
0.257693
 30
0.0
 11
1.47588
 21
0.20395
 31
0.0
  0
LINE
  8
0
 62
     0
 10
1.47588
 20
0.20395
 30
0.0
 11
1.62609
 21
0.16123
 31
0.0
  0
LINE
  8
0
 62
     0
 10
1.62609
 20
0.16123
 30
0.0
 11
1.78043
 21
0.130914
 31
0.0
  0
LINE
  8
0
 62
     0
 10
1.78043
 20
0.130914
 30
0.0
 11
1.93614
 21
0.111621
 31
0.0
  0
LINE
  8
0
 62
     0
 10
1.93614
 20
0.111621
 30
0.0
 11
2.09324
 21
0.106109
 31
0.0
  0
LINE
  8
0
 62
     0
 10
2.09324
 20
0.106109
 30
0.0
 11
314.894
 21
0.106109
 31
0.0
  0
LINE
  8
0
 62
     0
 10
314.894
 20
0.106109
 30
0.0
 11
315.051
 21
0.111621
 31
0.0
  0
LINE
  8
0
 62
     0
 10
315.051
 20
0.111621
 30
0.0
 11
315.207
 21
0.130914
 31
0.0
  0
LINE
  8
0
 62
     0
 10
315.207
 20
0.130914
 30
0.0
 11
315.361
 21
0.16123
 31
0.0
  0
LINE
  8
0
 62
     0
 10
315.361
 20
0.16123
 30
0.0
 11
315.511
 21
0.20395
 31
0.0
  0
LINE
  8
0
 62
     0
 10
315.511
 20
0.20395
 30
0.0
 11
315.659
 21
0.257693
 31
0.0
  0
LINE
  8
0
 62
     0
 10
315.659
 20
0.257693
 30
0.0
 11
315.802
 21
0.323839
 31
0.0
  0
LINE
  8
0
 62
     0
 10
315.802
 20
0.323839
 30
0.0
 11
315.939
 21
0.40101
 31
0.0
  0
LINE
  8
0
 62
     0
 10
315.939
 20
0.40101
 30
0.0
 11
316.069
 21
0.487825
 31
0.0
  0
LINE
  8
0
 62
     0
 10
316.069
 20
0.487825
 30
0.0
 11
316.192
 21
0.585668
 31
0.0
  0
LINE
  8
0
 62
     0
 10
316.192
 20
0.585668
 30
0.0
 11
316.308
 21
0.691776
 31
0.0
  0
LINE
  8
0
 62
     0
 10
316.308
 20
0.691776
 30
0.0
 11
316.414
 21
0.80753
 31
0.0
  0
LINE
  8
0
 62
     0
 10
316.414
 20
0.80753
 30
0.0
 11
316.512
 21
0.930176
 31
0.0
  0
LINE
  8
0
 62
     0
 10
316.512
 20
0.930176
 30
0.0
 11
316.599
 21
1.06109
 31
0.0
  0
LINE
  8
0
 62
     0
 10
316.599
 20
1.06109
 30
0.0
 11
316.676
 21
1.19751
 31
0.0
  0
LINE
  8
0
 62
     0
 10
316.676
 20
1.19751
 30
0.0
 11
316.742
 21
1.34083
 31
0.0
  0
LINE
  8
0
 62
     0
 10
316.742
 20
1.34083
 30
0.0
 11
316.796
 21
1.48828
 31
0.0
  0
LINE
  8
0
 62
     0
 10
316.796
 20
1.48828
 30
0.0
 11
316.839
 21
1.63849
 31
0.0
  0
LINE
  8
0
 62
     0
 10
316.839
 20
1.63849
 30
0.0
 11
316.869
 21
1.79283
 31
0.0
  0
LINE
  8
0
 62
     0
 10
316.869
 20
1.79283
 30
0.0
 11
316.888
 21
1.94855
 31
0.0
  0
LINE
  8
0
 62
     0
 10
316.888
 20
1.94855
 30
0.0
 11
316.894
 21
2.10564
 31
0.0
  0
LINE
  8
0
 62
     0
 10
316.894
 20
2.10564
 30
0.0
 11
316.894
 21
124.406
 31
0.0
  0
LINE
  8
0
 62
     0
 10
106.693
 20
124.406
 30
0.0
 11
107.003
 21
124.357
 31
0.0
  0
LINE
  8
0
 62
     0
 10
107.003
 20
124.357
 30
0.0
 11
107.281
 21
124.215
 31
0.0
  0
LINE
  8
0
 62
     0
 10
107.281
 20
124.215
 30
0.0
 11
107.502
 21
123.994
 31
0.0
  0
LINE
  8
0
 62
     0
 10
107.502
 20
123.994
 30
0.0
 11
107.644
 21
123.715
 31
0.0
  0
LINE
  8
0
 62
     0
 10
107.644
 20
123.715
 30
0.0
 11
107.694
 21
123.406
 31
0.0
  0
LINE
  8
0
 62
     0
 10
107.694
 20
123.406
 30
0.0
 11
107.644
 21
123.098
 31
0.0
  0
LINE
  8
0
 62
     0
 10
107.644
 20
123.098
 30
0.0
 11
107.502
 21
122.818
 31
0.0
  0
LINE
  8
0
 62
     0
 10
107.502
 20
122.818
 30
0.0
 11
107.281
 21
122.597
 31
0.0
  0
LINE
  8
0
 62
     0
 10
107.281
 20
122.597
 30
0.0
 11
107.003
 21
122.455
 31
0.0
  0
LINE
  8
0
 62
     0
 10
107.003
 20
122.455
 30
0.0
 11
106.693
 21
122.406
 31
0.0
  0
LINE
  8
0
 62
     0
 10
106.693
 20
122.406
 30
0.0
 11
106.385
 21
122.455
 31
0.0
  0
LINE
  8
0
 62
     0
 10
106.385
 20
122.455
 30
0.0
 11
106.106
 21
122.597
 31
0.0
  0
LINE
  8
0
 62
     0
 10
106.106
 20
122.597
 30
0.0
 11
105.884
 21
122.818
 31
0.0
  0
LINE
  8
0
 62
     0
 10
105.884
 20
122.818
 30
0.0
 11
105.742
 21
123.098
 31
0.0
  0
LINE
  8
0
 62
     0
 10
105.742
 20
123.098
 30
0.0
 11
105.694
 21
123.406
 31
0.0
  0
LINE
  8
0
 62
     0
 10
105.694
 20
123.406
 30
0.0
 11
105.742
 21
123.715
 31
0.0
  0
LINE
  8
0
 62
     0
 10
105.742
 20
123.715
 30
0.0
 11
105.884
 21
123.994
 31
0.0
  0
LINE
  8
0
 62
     0
 10
105.884
 20
123.994
 30
0.0
 11
106.106
 21
124.215
 31
0.0
  0
LINE
  8
0
 62
     0
 10
106.106
 20
124.215
 30
0.0
 11
106.385
 21
124.357
 31
0.0
  0
LINE
  8
0
 62
     0
 10
106.385
 20
124.357
 30
0.0
 11
106.693
 21
124.406
 31
0.0
  0
LINE
  8
0
 62
     0
 10
210.294
 20
124.406
 30
0.0
 11
210.603
 21
124.357
 31
0.0
  0
LINE
  8
0
 62
     0
 10
210.603
 20
124.357
 30
0.0
 11
210.881
 21
124.215
 31
0.0
  0
LINE
  8
0
 62
     0
 10
210.881
 20
124.215
 30
0.0
 11
211.103
 21
123.994
 31
0.0
  0
LINE
  8
0
 62
     0
 10
211.103
 20
123.994
 30
0.0
 11
211.245
 21
123.715
 31
0.0
  0
LINE
  8
0
 62
     0
 10
211.245
 20
123.715
 30
0.0
 11
211.293
 21
123.406
 31
0.0
  0
LINE
  8
0
 62
     0
 10
211.293
 20
123.406
 30
0.0
 11
211.245
 21
123.098
 31
0.0
  0
LINE
  8
0
 62
     0
 10
211.245
 20
123.098
 30
0.0
 11
211.103
 21
122.818
 31
0.0
  0
LINE
  8
0
 62
     0
 10
211.103
 20
122.818
 30
0.0
 11
210.881
 21
122.597
 31
0.0
  0
LINE
  8
0
 62
     0
 10
210.881
 20
122.597
 30
0.0
 11
210.603
 21
122.455
 31
0.0
  0
LINE
  8
0
 62
     0
 10
210.603
 20
122.455
 30
0.0
 11
210.294
 21
122.406
 31
0.0
  0
LINE
  8
0
 62
     0
 10
210.294
 20
122.406
 30
0.0
 11
209.984
 21
122.455
 31
0.0
  0
LINE
  8
0
 62
     0
 10
209.984
 20
122.455
 30
0.0
 11
209.706
 21
122.597
 31
0.0
  0
LINE
  8
0
 62
     0
 10
209.706
 20
122.597
 30
0.0
 11
209.485
 21
122.818
 31
0.0
  0
LINE
  8
0
 62
     0
 10
209.485
 20
122.818
 30
0.0
 11
209.343
 21
123.098
 31
0.0
  0
LINE
  8
0
 62
     0
 10
209.343
 20
123.098
 30
0.0
 11
209.294
 21
123.406
 31
0.0
  0
LINE
  8
0
 62
     0
 10
209.294
 20
123.406
 30
0.0
 11
209.343
 21
123.715
 31
0.0
  0
LINE
  8
0
 62
     0
 10
209.343
 20
123.715
 30
0.0
 11
209.485
 21
123.994
 31
0.0
  0
LINE
  8
0
 62
     0
 10
209.485
 20
123.994
 30
0.0
 11
209.706
 21
124.215
 31
0.0
  0
LINE
  8
0
 62
     0
 10
209.706
 20
124.215
 30
0.0
 11
209.984
 21
124.357
 31
0.0
  0
LINE
  8
0
 62
     0
 10
209.984
 20
124.357
 30
0.0
 11
210.294
 21
124.406
 31
0.0
  0
LINE
  8
0
 62
     0
 10
313.894
 20
124.406
 30
0.0
 11
314.202
 21
124.357
 31
0.0
  0
LINE
  8
0
 62
     0
 10
314.202
 20
124.357
 30
0.0
 11
314.482
 21
124.215
 31
0.0
  0
LINE
  8
0
 62
     0
 10
314.482
 20
124.215
 30
0.0
 11
314.702
 21
123.994
 31
0.0
  0
LINE
  8
0
 62
     0
 10
314.702
 20
123.994
 30
0.0
 11
314.845
 21
123.715
 31
0.0
  0
LINE
  8
0
 62
     0
 10
314.845
 20
123.715
 30
0.0
 11
314.894
 21
123.406
 31
0.0
  0
LINE
  8
0
 62
     0
 10
314.894
 20
123.406
 30
0.0
 11
314.845
 21
123.098
 31
0.0
  0
LINE
  8
0
 62
     0
 10
314.845
 20
123.098
 30
0.0
 11
314.702
 21
122.818
 31
0.0
  0
LINE
  8
0
 62
     0
 10
314.702
 20
122.818
 30
0.0
 11
314.482
 21
122.597
 31
0.0
  0
LINE
  8
0
 62
     0
 10
314.482
 20
122.597
 30
0.0
 11
314.202
 21
122.455
 31
0.0
  0
LINE
  8
0
 62
     0
 10
314.202
 20
122.455
 30
0.0
 11
313.894
 21
122.406
 31
0.0
  0
LINE
  8
0
 62
     0
 10
313.894
 20
122.406
 30
0.0
 11
313.585
 21
122.455
 31
0.0
  0
LINE
  8
0
 62
     0
 10
313.585
 20
122.455
 30
0.0
 11
313.305
 21
122.597
 31
0.0
  0
LINE
  8
0
 62
     0
 10
313.305
 20
122.597
 30
0.0
 11
313.085
 21
122.818
 31
0.0
  0
LINE
  8
0
 62
     0
 10
313.085
 20
122.818
 30
0.0
 11
312.943
 21
123.098
 31
0.0
  0
LINE
  8
0
 62
     0
 10
312.943
 20
123.098
 30
0.0
 11
312.893
 21
123.406
 31
0.0
  0
LINE
  8
0
 62
     0
 10
312.893
 20
123.406
 30
0.0
 11
312.943
 21
123.715
 31
0.0
  0
LINE
  8
0
 62
     0
 10
312.943
 20
123.715
 30
0.0
 11
313.085
 21
123.994
 31
0.0
  0
LINE
  8
0
 62
     0
 10
313.085
 20
123.994
 30
0.0
 11
313.305
 21
124.215
 31
0.0
  0
LINE
  8
0
 62
     0
 10
313.305
 20
124.215
 30
0.0
 11
313.585
 21
124.357
 31
0.0
  0
LINE
  8
0
 62
     0
 10
313.585
 20
124.357
 30
0.0
 11
313.894
 21
124.406
 31
0.0
  0
LINE
  8
0
 62
     0
 10
313.894
 20
4.10655
 30
0.0
 11
314.202
 21
4.05694
 31
0.0
  0
LINE
  8
0
 62
     0
 10
314.202
 20
4.05694
 30
0.0
 11
314.482
 21
3.91502
 31
0.0
  0
LINE
  8
0
 62
     0
 10
314.482
 20
3.91502
 30
0.0
 11
314.702
 21
3.69454
 31
0.0
  0
LINE
  8
0
 62
     0
 10
314.702
 20
3.69454
 30
0.0
 11
314.845
 21
3.41478
 31
0.0
  0
LINE
  8
0
 62
     0
 10
314.845
 20
3.41478
 30
0.0
 11
314.894
 21
3.1061
 31
0.0
  0
LINE
  8
0
 62
     0
 10
314.894
 20
3.1061
 30
0.0
 11
314.845
 21
2.79742
 31
0.0
  0
LINE
  8
0
 62
     0
 10
314.845
 20
2.79742
 30
0.0
 11
314.702
 21
2.51768
 31
0.0
  0
LINE
  8
0
 62
     0
 10
314.702
 20
2.51768
 30
0.0
 11
314.482
 21
2.29719
 31
0.0
  0
LINE
  8
0
 62
     0
 10
314.482
 20
2.29719
 30
0.0
 11
314.202
 21
2.15525
 31
0.0
  0
LINE
  8
0
 62
     0
 10
314.202
 20
2.15525
 30
0.0
 11
313.894
 21
2.10564
 31
0.0
  0
LINE
  8
0
 62
     0
 10
313.894
 20
2.10564
 30
0.0
 11
313.585
 21
2.15525
 31
0.0
  0
LINE
  8
0
 62
     0
 10
313.585
 20
2.15525
 30
0.0
 11
313.305
 21
2.29719
 31
0.0
  0
LINE
  8
0
 62
     0
 10
313.305
 20
2.29719
 30
0.0
 11
313.085
 21
2.51768
 31
0.0
  0
LINE
  8
0
 62
     0
 10
313.085
 20
2.51768
 30
0.0
 11
312.943
 21
2.79742
 31
0.0
  0
LINE
  8
0
 62
     0
 10
312.943
 20
2.79742
 30
0.0
 11
312.893
 21
3.1061
 31
0.0
  0
LINE
  8
0
 62
     0
 10
312.893
 20
3.1061
 30
0.0
 11
312.943
 21
3.41478
 31
0.0
  0
LINE
  8
0
 62
     0
 10
312.943
 20
3.41478
 30
0.0
 11
313.085
 21
3.69454
 31
0.0
  0
LINE
  8
0
 62
     0
 10
313.085
 20
3.69454
 30
0.0
 11
313.305
 21
3.91502
 31
0.0
  0
LINE
  8
0
 62
     0
 10
313.305
 20
3.91502
 30
0.0
 11
313.585
 21
4.05694
 31
0.0
  0
LINE
  8
0
 62
     0
 10
313.585
 20
4.05694
 30
0.0
 11
313.894
 21
4.10655
 31
0.0
  0
LINE
  8
0
 62
     0
 10
210.294
 20
4.10655
 30
0.0
 11
210.603
 21
4.05694
 31
0.0
  0
LINE
  8
0
 62
     0
 10
210.603
 20
4.05694
 30
0.0
 11
210.881
 21
3.91502
 31
0.0
  0
LINE
  8
0
 62
     0
 10
210.881
 20
3.91502
 30
0.0
 11
211.103
 21
3.69454
 31
0.0
  0
LINE
  8
0
 62
     0
 10
211.103
 20
3.69454
 30
0.0
 11
211.245
 21
3.41478
 31
0.0
  0
LINE
  8
0
 62
     0
 10
211.245
 20
3.41478
 30
0.0
 11
211.293
 21
3.1061
 31
0.0
  0
LINE
  8
0
 62
     0
 10
211.293
 20
3.1061
 30
0.0
 11
211.245
 21
2.79742
 31
0.0
  0
LINE
  8
0
 62
     0
 10
211.245
 20
2.79742
 30
0.0
 11
211.103
 21
2.51768
 31
0.0
  0
LINE
  8
0
 62
     0
 10
211.103
 20
2.51768
 30
0.0
 11
210.881
 21
2.29719
 31
0.0
  0
LINE
  8
0
 62
     0
 10
210.881
 20
2.29719
 30
0.0
 11
210.603
 21
2.15525
 31
0.0
  0
LINE
  8
0
 62
     0
 10
210.603
 20
2.15525
 30
0.0
 11
210.294
 21
2.10564
 31
0.0
  0
LINE
  8
0
 62
     0
 10
210.294
 20
2.10564
 30
0.0
 11
209.984
 21
2.15525
 31
0.0
  0
LINE
  8
0
 62
     0
 10
209.984
 20
2.15525
 30
0.0
 11
209.706
 21
2.29719
 31
0.0
  0
LINE
  8
0
 62
     0
 10
209.706
 20
2.29719
 30
0.0
 11
209.485
 21
2.51768
 31
0.0
  0
LINE
  8
0
 62
     0
 10
209.485
 20
2.51768
 30
0.0
 11
209.343
 21
2.79742
 31
0.0
  0
LINE
  8
0
 62
     0
 10
209.343
 20
2.79742
 30
0.0
 11
209.294
 21
3.1061
 31
0.0
  0
LINE
  8
0
 62
     0
 10
209.294
 20
3.1061
 30
0.0
 11
209.343
 21
3.41478
 31
0.0
  0
LINE
  8
0
 62
     0
 10
209.343
 20
3.41478
 30
0.0
 11
209.485
 21
3.69454
 31
0.0
  0
LINE
  8
0
 62
     0
 10
209.485
 20
3.69454
 30
0.0
 11
209.706
 21
3.91502
 31
0.0
  0
LINE
  8
0
 62
     0
 10
209.706
 20
3.91502
 30
0.0
 11
209.984
 21
4.05694
 31
0.0
  0
LINE
  8
0
 62
     0
 10
209.984
 20
4.05694
 30
0.0
 11
210.294
 21
4.10655
 31
0.0
  0
LINE
  8
0
 62
     0
 10
106.693
 20
4.10655
 30
0.0
 11
107.003
 21
4.05694
 31
0.0
  0
LINE
  8
0
 62
     0
 10
107.003
 20
4.05694
 30
0.0
 11
107.281
 21
3.91502
 31
0.0
  0
LINE
  8
0
 62
     0
 10
107.281
 20
3.91502
 30
0.0
 11
107.502
 21
3.69454
 31
0.0
  0
LINE
  8
0
 62
     0
 10
107.502
 20
3.69454
 30
0.0
 11
107.644
 21
3.41478
 31
0.0
  0
LINE
  8
0
 62
     0
 10
107.644
 20
3.41478
 30
0.0
 11
107.694
 21
3.1061
 31
0.0
  0
LINE
  8
0
 62
     0
 10
107.694
 20
3.1061
 30
0.0
 11
107.644
 21
2.79742
 31
0.0
  0
LINE
  8
0
 62
     0
 10
107.644
 20
2.79742
 30
0.0
 11
107.502
 21
2.51768
 31
0.0
  0
LINE
  8
0
 62
     0
 10
107.502
 20
2.51768
 30
0.0
 11
107.281
 21
2.29719
 31
0.0
  0
LINE
  8
0
 62
     0
 10
107.281
 20
2.29719
 30
0.0
 11
107.003
 21
2.15525
 31
0.0
  0
LINE
  8
0
 62
     0
 10
107.003
 20
2.15525
 30
0.0
 11
106.693
 21
2.10564
 31
0.0
  0
LINE
  8
0
 62
     0
 10
106.693
 20
2.10564
 30
0.0
 11
106.385
 21
2.15525
 31
0.0
  0
LINE
  8
0
 62
     0
 10
106.385
 20
2.15525
 30
0.0
 11
106.106
 21
2.29719
 31
0.0
  0
LINE
  8
0
 62
     0
 10
106.106
 20
2.29719
 30
0.0
 11
105.884
 21
2.51768
 31
0.0
  0
LINE
  8
0
 62
     0
 10
105.884
 20
2.51768
 30
0.0
 11
105.742
 21
2.79742
 31
0.0
  0
LINE
  8
0
 62
     0
 10
105.742
 20
2.79742
 30
0.0
 11
105.694
 21
3.1061
 31
0.0
  0
LINE
  8
0
 62
     0
 10
105.694
 20
3.1061
 30
0.0
 11
105.742
 21
3.41478
 31
0.0
  0
LINE
  8
0
 62
     0
 10
105.742
 20
3.41478
 30
0.0
 11
105.884
 21
3.69454
 31
0.0
  0
LINE
  8
0
 62
     0
 10
105.884
 20
3.69454
 30
0.0
 11
106.106
 21
3.91502
 31
0.0
  0
LINE
  8
0
 62
     0
 10
106.106
 20
3.91502
 30
0.0
 11
106.385
 21
4.05694
 31
0.0
  0
LINE
  8
0
 62
     0
 10
106.385
 20
4.05694
 30
0.0
 11
106.693
 21
4.10655
 31
0.0
  0
LINE
  8
0
 62
     0
 10
3.0937
 20
4.10655
 30
0.0
 11
3.40238
 21
4.05694
 31
0.0
  0
LINE
  8
0
 62
     0
 10
3.40238
 20
4.05694
 30
0.0
 11
3.68212
 21
3.91502
 31
0.0
  0
LINE
  8
0
 62
     0
 10
3.68212
 20
3.91502
 30
0.0
 11
3.9026
 21
3.69454
 31
0.0
  0
LINE
  8
0
 62
     0
 10
3.9026
 20
3.69454
 30
0.0
 11
4.04453
 21
3.41478
 31
0.0
  0
LINE
  8
0
 62
     0
 10
4.04453
 20
3.41478
 30
0.0
 11
4.09416
 21
3.1061
 31
0.0
  0
LINE
  8
0
 62
     0
 10
4.09416
 20
3.1061
 30
0.0
 11
4.04453
 21
2.79742
 31
0.0
  0
LINE
  8
0
 62
     0
 10
4.04453
 20
2.79742
 30
0.0
 11
3.9026
 21
2.51768
 31
0.0
  0
LINE
  8
0
 62
     0
 10
3.9026
 20
2.51768
 30
0.0
 11
3.68212
 21
2.29719
 31
0.0
  0
LINE
  8
0
 62
     0
 10
3.68212
 20
2.29719
 30
0.0
 11
3.40238
 21
2.15525
 31
0.0
  0
LINE
  8
0
 62
     0
 10
3.40238
 20
2.15525
 30
0.0
 11
3.0937
 21
2.10564
 31
0.0
  0
LINE
  8
0
 62
     0
 10
3.0937
 20
2.10564
 30
0.0
 11
2.78501
 21
2.15525
 31
0.0
  0
LINE
  8
0
 62
     0
 10
2.78501
 20
2.15525
 30
0.0
 11
2.50527
 21
2.29719
 31
0.0
  0
LINE
  8
0
 62
     0
 10
2.50527
 20
2.29719
 30
0.0
 11
2.28479
 21
2.51768
 31
0.0
  0
LINE
  8
0
 62
     0
 10
2.28479
 20
2.51768
 30
0.0
 11
2.14285
 21
2.79742
 31
0.0
  0
LINE
  8
0
 62
     0
 10
2.14285
 20
2.79742
 30
0.0
 11
2.09324
 21
3.1061
 31
0.0
  0
LINE
  8
0
 62
     0
 10
2.09324
 20
3.1061
 30
0.0
 11
2.14285
 21
3.41478
 31
0.0
  0
LINE
  8
0
 62
     0
 10
2.14285
 20
3.41478
 30
0.0
 11
2.28479
 21
3.69454
 31
0.0
  0
LINE
  8
0
 62
     0
 10
2.28479
 20
3.69454
 30
0.0
 11
2.50527
 21
3.91502
 31
0.0
  0
LINE
  8
0
 62
     0
 10
2.50527
 20
3.91502
 30
0.0
 11
2.78501
 21
4.05694
 31
0.0
  0
LINE
  8
0
 62
     0
 10
2.78501
 20
4.05694
 30
0.0
 11
3.0937
 21
4.10655
 31
0.0
  0
LINE
  8
0
 62
     0
 10
3.0937
 20
124.406
 30
0.0
 11
3.40238
 21
124.357
 31
0.0
  0
LINE
  8
0
 62
     0
 10
3.40238
 20
124.357
 30
0.0
 11
3.68212
 21
124.215
 31
0.0
  0
LINE
  8
0
 62
     0
 10
3.68212
 20
124.215
 30
0.0
 11
3.9026
 21
123.994
 31
0.0
  0
LINE
  8
0
 62
     0
 10
3.9026
 20
123.994
 30
0.0
 11
4.04453
 21
123.715
 31
0.0
  0
LINE
  8
0
 62
     0
 10
4.04453
 20
123.715
 30
0.0
 11
4.09416
 21
123.406
 31
0.0
  0
LINE
  8
0
 62
     0
 10
4.09416
 20
123.406
 30
0.0
 11
4.04453
 21
123.098
 31
0.0
  0
LINE
  8
0
 62
     0
 10
4.04453
 20
123.098
 30
0.0
 11
3.9026
 21
122.818
 31
0.0
  0
LINE
  8
0
 62
     0
 10
3.9026
 20
122.818
 30
0.0
 11
3.68212
 21
122.597
 31
0.0
  0
LINE
  8
0
 62
     0
 10
3.68212
 20
122.597
 30
0.0
 11
3.40238
 21
122.455
 31
0.0
  0
LINE
  8
0
 62
     0
 10
3.40238
 20
122.455
 30
0.0
 11
3.0937
 21
122.406
 31
0.0
  0
LINE
  8
0
 62
     0
 10
3.0937
 20
122.406
 30
0.0
 11
2.78501
 21
122.455
 31
0.0
  0
LINE
  8
0
 62
     0
 10
2.78501
 20
122.455
 30
0.0
 11
2.50527
 21
122.597
 31
0.0
  0
LINE
  8
0
 62
     0
 10
2.50527
 20
122.597
 30
0.0
 11
2.28479
 21
122.818
 31
0.0
  0
LINE
  8
0
 62
     0
 10
2.28479
 20
122.818
 30
0.0
 11
2.14285
 21
123.098
 31
0.0
  0
LINE
  8
0
 62
     0
 10
2.14285
 20
123.098
 30
0.0
 11
2.09324
 21
123.406
 31
0.0
  0
LINE
  8
0
 62
     0
 10
2.09324
 20
123.406
 30
0.0
 11
2.14285
 21
123.715
 31
0.0
  0
LINE
  8
0
 62
     0
 10
2.14285
 20
123.715
 30
0.0
 11
2.28479
 21
123.994
 31
0.0
  0
LINE
  8
0
 62
     0
 10
2.28479
 20
123.994
 30
0.0
 11
2.50527
 21
124.215
 31
0.0
  0
LINE
  8
0
 62
     0
 10
2.50527
 20
124.215
 30
0.0
 11
2.78501
 21
124.357
 31
0.0
  0
LINE
  8
0
 62
     0
 10
2.78501
 20
124.357
 30
0.0
 11
3.0937
 21
124.406
 31
0.0
  0
ENDSEC
  0
EOF
