<?xml version="1.0"?>
<!-- Generated by SVGo -->
<svg width="326.800mm" height="136.300mm"
     viewBox="0.000 0.000 326.800 136.300"
     xmlns="http://www.w3.org/2000/svg" 
     xmlns:xlink="http://www.w3.org/1999/xlink">
<polygon points="319.800,5.000 319.957,5.006 320.113,5.025 320.267,5.055 320.418,5.098 320.565,5.152 320.708,5.218 320.845,5.295 320.976,5.382 321.099,5.479 321.214,5.586 321.321,5.701 321.418,5.824 321.505,5.955 321.582,6.092 321.648,6.235 321.702,6.382 321.745,6.533 321.775,6.687 321.794,6.843 321.800,7.000 321.800,129.300 321.794,129.457 321.775,129.613 321.745,129.767 321.702,129.918 321.648,130.065 321.582,130.208 321.505,130.345 321.418,130.476 321.321,130.599 321.214,130.714 321.099,130.821 320.976,130.918 320.845,131.005 320.708,131.082 320.565,131.148 320.418,131.202 320.267,131.245 320.113,131.275 319.957,131.294 319.800,131.300 7.000,131.300 6.843,131.294 6.687,131.275 6.533,131.245 6.382,131.202 6.235,131.148 6.092,131.082 5.955,131.005 5.824,130.918 5.701,130.821 5.586,130.714 5.479,130.599 5.382,130.476 5.295,130.345 5.218,130.208 5.152,130.065 5.098,129.918 5.055,129.767 5.025,129.613 5.006,129.457 5.000,129.300 5.000,7.000 5.006,6.843 5.025,6.687 5.055,6.533 5.098,6.382 5.152,6.235 5.218,6.092 5.295,5.955 5.382,5.824 5.479,5.701 5.586,5.586 5.701,5.479 5.824,5.382 5.955,5.295 6.092,5.218 6.235,5.152 6.382,5.098 6.533,5.055 6.687,5.025 6.843,5.006 7.000,5.000" style="fill:none;stroke-width:0.2;stroke:black"/>
<rect x="11.000" y="11.000" width="304.800" height="114.300" style="fill:none;stroke-width:0.2;stroke:black"/>
<polygon points="111.600,7.000 111.909,7.049 112.188,7.191 112.409,7.412 112.551,7.691 112.600,8.000 112.551,8.309 112.409,8.588 112.188,8.809 111.909,8.951 111.600,9.000 111.291,8.951 111.012,8.809 110.791,8.588 110.649,8.309 110.600,8.000 110.649,7.691 110.791,7.412 111.012,7.191 111.291,7.049" style="fill:none;stroke-width:0.2;stroke:black"/>
<polygon points="215.200,7.000 215.509,7.049 215.788,7.191 216.009,7.412 216.151,7.691 216.200,8.000 216.151,8.309 216.009,8.588 215.788,8.809 215.509,8.951 215.200,9.000 214.891,8.951 214.612,8.809 214.391,8.588 214.249,8.309 214.200,8.000 214.249,7.691 214.391,7.412 214.612,7.191 214.891,7.049" style="fill:none;stroke-width:0.2;stroke:black"/>
<polygon points="318.800,7.000 319.109,7.049 319.388,7.191 319.609,7.412 319.751,7.691 319.800,8.000 319.751,8.309 319.609,8.588 319.388,8.809 319.109,8.951 318.800,9.000 318.491,8.951 318.212,8.809 317.991,8.588 317.849,8.309 317.800,8.000 317.849,7.691 317.991,7.412 318.212,7.191 318.491,7.049" style="fill:none;stroke-width:0.2;stroke:black"/>
<polygon points="318.800,127.300 319.109,127.349 319.388,127.491 319.609,127.712 319.751,127.991 319.800,128.300 319.751,128.609 319.609,128.888 319.388,129.109 319.109,129.251 318.800,129.300 318.491,129.251 318.212,129.109 317.991,128.888 317.849,128.609 317.800,128.300 317.849,127.991 317.991,127.712 318.212,127.491 318.491,127.349" style="fill:none;stroke-width:0.2;stroke:black"/>
<polygon points="215.200,127.300 215.509,127.349 215.788,127.491 216.009,127.712 216.151,127.991 216.200,128.300 216.151,128.609 216.009,128.888 215.788,129.109 215.509,129.251 215.200,129.300 214.891,129.251 214.612,129.109 214.391,128.888 214.249,128.609 214.200,128.300 214.249,127.991 214.391,127.712 214.612,127.491 214.891,127.349" style="fill:none;stroke-width:0.2;stroke:black"/>
<polygon points="111.600,127.300 111.909,127.349 112.188,127.491 112.409,127.712 112.551,127.991 112.600,128.300 112.551,128.609 112.409,128.888 112.188,129.109 111.909,129.251 111.600,129.300 111.291,129.251 111.012,129.109 110.791,128.888 110.649,128.609 110.600,128.300 110.649,127.991 110.791,127.712 111.012,127.491 111.291,127.349" style="fill:none;stroke-width:0.2;stroke:black"/>
<polygon points="8.000,127.300 8.309,127.349 8.588,127.491 8.809,127.712 8.951,127.991 9.000,128.300 8.951,128.609 8.809,128.888 8.588,129.109 8.309,129.251 8.000,129.300 7.691,129.251 7.412,129.109 7.191,128.888 7.049,128.609 7.000,128.300 7.049,127.991 7.191,127.712 7.412,127.491 7.691,127.349" style="fill:none;stroke-width:0.2;stroke:black"/>
<polygon points="8.000,7.000 8.309,7.049 8.588,7.191 8.809,7.412 8.951,7.691 9.000,8.000 8.951,8.309 8.809,8.588 8.588,8.809 8.309,8.951 8.000,9.000 7.691,8.951 7.412,8.809 7.191,8.588 7.049,8.309 7.000,8.000 7.049,7.691 7.191,7.412 7.412,7.191 7.691,7.049" style="fill:none;stroke-width:0.2;stroke:black"/>
</svg>
