<?xml version="1.0"?>
<!-- Generated by SVGo -->
<svg width="326.800mm" height="136.300mm"
     viewBox="0.000 0.000 326.800 136.300"
     xmlns="http://www.w3.org/2000/svg" 
     xmlns:xlink="http://www.w3.org/1999/xlink">
<polygon points="319.800,5.000 319.957,5.006 320.113,5.025 320.267,5.055 320.418,5.098 320.565,5.152 320.708,5.218 320.845,5.295 320.976,5.382 321.099,5.479 321.214,5.586 321.321,5.701 321.418,5.824 321.505,5.955 321.582,6.092 321.648,6.235 321.702,6.382 321.745,6.533 321.775,6.687 321.794,6.843 321.800,7.000 321.800,129.300 321.794,129.457 321.775,129.613 321.745,129.767 321.702,129.918 321.648,130.065 321.582,130.208 321.505,130.345 321.418,130.476 321.321,130.599 321.214,130.714 321.099,130.821 320.976,130.918 320.845,131.005 320.708,131.082 320.565,131.148 320.418,131.202 320.267,131.245 320.113,131.275 319.957,131.294 319.800,131.300 7.000,131.300 6.843,131.294 6.687,131.275 6.533,131.245 6.382,131.202 6.235,131.148 6.092,131.082 5.955,131.005 5.824,130.918 5.701,130.821 5.586,130.714 5.479,130.599 5.382,130.476 5.295,130.345 5.218,130.208 5.152,130.065 5.098,129.918 5.055,129.767 5.025,129.613 5.006,129.457 5.000,129.300 5.000,7.000 5.006,6.843 5.025,6.687 5.055,6.533 5.098,6.382 5.152,6.235 5.218,6.092 5.295,5.955 5.382,5.824 5.479,5.701 5.586,5.586 5.701,5.479 5.824,5.382 5.955,5.295 6.092,5.218 6.235,5.152 6.382,5.098 6.533,5.055 6.687,5.025 6.843,5.006 7.000,5.000" style="fill:none;stroke-width:0.2;stroke:black"/>
<polygon points="111.600,7.000 111.909,7.049 112.188,7.191 112.409,7.412 112.551,7.691 112.600,8.000 112.551,8.309 112.409,8.588 112.188,8.809 111.909,8.951 111.600,9.000 111.291,8.951 111.012,8.809 110.791,8.588 110.649,8.309 110.600,8.000 110.649,7.691 110.791,7.412 111.012,7.191 111.291,7.049" style="fill:none;stroke-width:0.2;stroke:black"/>
<polygon points="215.200,7.000 215.509,7.049 215.788,7.191 216.009,7.412 216.151,7.691 216.200,8.000 216.151,8.309 216.009,8.588 215.788,8.809 215.509,8.951 215.200,9.000 214.891,8.951 214.612,8.809 214.391,8.588 214.249,8.309 214.200,8.000 214.249,7.691 214.391,7.412 214.612,7.191 214.891,7.049" style="fill:none;stroke-width:0.2;stroke:black"/>
<polygon points="318.800,7.000 319.109,7.049 319.388,7.191 319.609,7.412 319.751,7.691 319.800,8.000 319.751,8.309 319.609,8.588 319.388,8.809 319.109,8.951 318.800,9.000 318.491,8.951 318.212,8.809 317.991,8.588 317.849,8.309 317.800,8.000 317.849,7.691 317.991,7.412 318.212,7.191 318.491,7.049" style="fill:none;stroke-width:0.2;stroke:black"/>
<polygon points="318.800,127.300 319.109,127.349 319.388,127.491 319.609,127.712 319.751,127.991 319.800,128.300 319.751,128.609 319.609,128.888 319.388,129.109 319.109,129.251 318.800,129.300 318.491,129.251 318.212,129.109 317.991,128.888 317.849,128.609 317.800,128.300 317.849,127.991 317.991,127.712 318.212,127.491 318.491,127.349" style="fill:none;stroke-width:0.2;stroke:black"/>
<polygon points="215.200,127.300 215.509,127.349 215.788,127.491 216.009,127.712 216.151,127.991 216.200,128.300 216.151,128.609 216.009,128.888 215.788,129.109 215.509,129.251 215.200,129.300 214.891,129.251 214.612,129.109 214.391,128.888 214.249,128.609 214.200,128.300 214.249,127.991 214.391,127.712 214.612,127.491 214.891,127.349" style="fill:none;stroke-width:0.2;stroke:black"/>
<polygon points="111.600,127.300 111.909,127.349 112.188,127.491 112.409,127.712 112.551,127.991 112.600,128.300 112.551,128.609 112.409,128.888 112.188,129.109 111.909,129.251 111.600,129.300 111.291,129.251 111.012,129.109 110.791,128.888 110.649,128.609 110.600,128.300 110.649,127.991 110.791,127.712 111.012,127.491 111.291,127.349" style="fill:none;stroke-width:0.2;stroke:black"/>
<polygon points="8.000,127.300 8.309,127.349 8.588,127.491 8.809,127.712 8.951,127.991 9.000,128.300 8.951,128.609 8.809,128.888 8.588,129.109 8.309,129.251 8.000,129.300 7.691,129.251 7.412,129.109 7.191,128.888 7.049,128.609 7.000,128.300 7.049,127.991 7.191,127.712 7.412,127.491 7.691,127.349" style="fill:none;stroke-width:0.2;stroke:black"/>
<polygon points="8.000,7.000 8.309,7.049 8.588,7.191 8.809,7.412 8.951,7.691 9.000,8.000 8.951,8.309 8.809,8.588 8.588,8.809 8.309,8.951 8.000,9.000 7.691,8.951 7.412,8.809 7.191,8.588 7.049,8.309 7.000,8.000 7.049,7.691 7.191,7.412 7.412,7.191 7.691,7.049" style="fill:none;stroke-width:0.2;stroke:black"/>
<polygon points="26.525,37.050 26.525,37.850 25.255,37.850 25.255,38.625 26.055,38.625 26.055,40.350 26.975,40.350 26.975,43.650 26.055,43.650 26.055,45.275 22.825,45.275 22.825,46.150 20.025,46.150 20.025,45.275 13.755,45.275 13.755,43.650 12.775,43.650 12.775,40.350 13.755,40.350 13.755,38.625 14.555,38.625 14.555,37.850 14.525,37.850 14.525,37.050 13.525,37.050 13.525,23.050 14.525,23.050 14.525,22.250 14.555,22.250 14.555,21.475 13.755,21.475 13.755,19.750 12.775,19.750 12.775,16.450 13.755,16.450 13.755,14.825 20.025,14.825 20.025,13.950 22.825,13.950 22.825,14.825 26.055,14.825 26.055,16.450 26.975,16.450 26.975,19.750 26.055,19.750 26.055,21.475 25.255,21.475 25.255,22.250 26.525,22.250 26.525,23.050 27.525,23.050 27.525,37.050" style="fill:none;stroke-width:0.2;stroke:black"/>
<polygon points="29.906,121.775 29.906,122.775 15.906,122.775 15.906,121.775 15.106,121.775 15.106,118.675 15.906,118.675 15.906,112.875 15.106,112.875 15.106,109.775 15.906,109.775 15.906,108.775 29.906,108.775 29.906,109.775 30.706,109.775 30.706,112.875 29.906,112.875 29.906,118.675 30.706,118.675 30.706,121.775" style="fill:none;stroke-width:0.2;stroke:black"/>
<polygon points="32.288,64.625 32.288,65.625 18.288,65.625 18.288,64.625 17.488,64.625 17.488,61.525 18.288,61.525 18.288,55.725 17.488,55.725 17.488,52.625 18.288,52.625 18.288,51.625 32.288,51.625 32.288,52.625 33.087,52.625 33.087,55.725 32.288,55.725 32.288,61.525 33.087,61.525 33.087,64.625" style="fill:none;stroke-width:0.2;stroke:black"/>
<polygon points="34.669,83.675 34.669,84.675 20.669,84.675 20.669,83.675 19.869,83.675 19.869,80.575 20.669,80.575 20.669,74.775 19.869,74.775 19.869,71.675 20.669,71.675 20.669,70.675 34.669,70.675 34.669,71.675 35.469,71.675 35.469,74.775 34.669,74.775 34.669,80.575 35.469,80.575 35.469,83.675" style="fill:none;stroke-width:0.2;stroke:black"/>
<polygon points="46.575,26.525 46.575,27.525 32.575,27.525 32.575,26.525 31.775,26.525 31.775,23.425 32.575,23.425 32.575,17.625 31.775,17.625 31.775,14.525 32.575,14.525 32.575,13.525 46.575,13.525 46.575,14.525 47.375,14.525 47.375,17.625 46.575,17.625 46.575,23.425 47.375,23.425 47.375,26.525" style="fill:none;stroke-width:0.2;stroke:black"/>
<polygon points="46.575,45.575 46.575,46.575 32.575,46.575 32.575,45.575 31.775,45.575 31.775,42.475 32.575,42.475 32.575,36.675 31.775,36.675 31.775,33.575 32.575,33.575 32.575,32.575 46.575,32.575 46.575,33.575 47.375,33.575 47.375,36.675 46.575,36.675 46.575,42.475 47.375,42.475 47.375,45.575" style="fill:none;stroke-width:0.2;stroke:black"/>
<polygon points="47.656,97.225 47.656,103.495 46.031,103.495 46.031,104.475 42.731,104.475 42.731,103.495 41.006,103.495 41.006,102.695 40.231,102.695 40.231,102.725 39.431,102.725 39.431,103.725 25.431,103.725 25.431,102.725 24.631,102.725 24.631,102.695 23.856,102.695 23.856,103.495 22.131,103.495 22.131,104.475 18.831,104.475 18.831,103.495 17.206,103.495 17.206,97.225 16.331,97.225 16.331,94.425 17.206,94.425 17.206,91.195 18.831,91.195 18.831,90.275 22.131,90.275 22.131,91.195 23.856,91.195 23.856,91.995 24.631,91.995 24.631,90.725 25.431,90.725 25.431,89.725 39.431,89.725 39.431,90.725 40.231,90.725 40.231,91.995 41.006,91.995 41.006,91.195 42.731,91.195 42.731,90.275 46.031,90.275 46.031,91.195 47.656,91.195 47.656,94.425 48.531,94.425 48.531,97.225" style="fill:none;stroke-width:0.2;stroke:black"/>
<polygon points="53.719,121.775 53.719,122.775 39.719,122.775 39.719,121.775 38.919,121.775 38.919,118.675 39.719,118.675 39.719,112.875 38.919,112.875 38.919,109.775 39.719,109.775 39.719,108.775 53.719,108.775 53.719,109.775 54.519,109.775 54.519,112.875 53.719,112.875 53.719,118.675 54.519,118.675 54.519,121.775" style="fill:none;stroke-width:0.2;stroke:black"/>
<polygon points="56.100,64.625 56.100,65.625 42.100,65.625 42.100,64.625 41.300,64.625 41.300,61.525 42.100,61.525 42.100,55.725 41.300,55.725 41.300,52.625 42.100,52.625 42.100,51.625 56.100,51.625 56.100,52.625 56.900,52.625 56.900,55.725 56.100,55.725 56.100,61.525 56.900,61.525 56.900,64.625" style="fill:none;stroke-width:0.2;stroke:black"/>
<polygon points="60.862,83.675 60.862,84.675 46.862,84.675 46.862,83.675 46.062,83.675 46.062,80.575 46.862,80.575 46.862,74.775 46.062,74.775 46.062,71.675 46.862,71.675 46.862,70.675 60.862,70.675 60.862,71.675 61.662,71.675 61.662,74.775 60.862,74.775 60.862,80.575 61.662,80.575 61.662,83.675" style="fill:none;stroke-width:0.2;stroke:black"/>
<polygon points="65.625,26.525 65.625,27.525 51.625,27.525 51.625,26.525 50.825,26.525 50.825,23.425 51.625,23.425 51.625,17.625 50.825,17.625 50.825,14.525 51.625,14.525 51.625,13.525 65.625,13.525 65.625,14.525 66.425,14.525 66.425,17.625 65.625,17.625 65.625,23.425 66.425,23.425 66.425,26.525" style="fill:none;stroke-width:0.2;stroke:black"/>
<polygon points="65.625,45.575 65.625,46.575 51.625,46.575 51.625,45.575 50.825,45.575 50.825,42.475 51.625,42.475 51.625,36.675 50.825,36.675 50.825,33.575 51.625,33.575 51.625,32.575 65.625,32.575 65.625,33.575 66.425,33.575 66.425,36.675 65.625,36.675 65.625,42.475 66.425,42.475 66.425,45.575" style="fill:none;stroke-width:0.2;stroke:black"/>
<polygon points="70.388,102.725 70.388,103.725 56.388,103.725 56.388,102.725 55.588,102.725 55.588,99.625 56.388,99.625 56.388,93.825 55.588,93.825 55.588,90.725 56.388,90.725 56.388,89.725 70.388,89.725 70.388,90.725 71.188,90.725 71.188,93.825 70.388,93.825 70.388,99.625 71.188,99.625 71.188,102.725" style="fill:none;stroke-width:0.2;stroke:black"/>
<polygon points="75.150,64.625 75.150,65.625 61.150,65.625 61.150,64.625 60.350,64.625 60.350,61.525 61.150,61.525 61.150,55.725 60.350,55.725 60.350,52.625 61.150,52.625 61.150,51.625 75.150,51.625 75.150,52.625 75.950,52.625 75.950,55.725 75.150,55.725 75.150,61.525 75.950,61.525 75.950,64.625" style="fill:none;stroke-width:0.2;stroke:black"/>
<polygon points="77.531,121.775 77.531,122.775 63.531,122.775 63.531,121.775 62.731,121.775 62.731,118.675 63.531,118.675 63.531,112.875 62.731,112.875 62.731,109.775 63.531,109.775 63.531,108.775 77.531,108.775 77.531,109.775 78.331,109.775 78.331,112.875 77.531,112.875 77.531,118.675 78.331,118.675 78.331,121.775" style="fill:none;stroke-width:0.2;stroke:black"/>
<polygon points="79.912,83.675 79.912,84.675 65.912,84.675 65.912,83.675 65.112,83.675 65.112,80.575 65.912,80.575 65.912,74.775 65.112,74.775 65.112,71.675 65.912,71.675 65.912,70.675 79.912,70.675 79.912,71.675 80.712,71.675 80.712,74.775 79.912,74.775 79.912,80.575 80.712,80.575 80.712,83.675" style="fill:none;stroke-width:0.2;stroke:black"/>
<polygon points="84.675,26.525 84.675,27.525 70.675,27.525 70.675,26.525 69.875,26.525 69.875,23.425 70.675,23.425 70.675,17.625 69.875,17.625 69.875,14.525 70.675,14.525 70.675,13.525 84.675,13.525 84.675,14.525 85.475,14.525 85.475,17.625 84.675,17.625 84.675,23.425 85.475,23.425 85.475,26.525" style="fill:none;stroke-width:0.2;stroke:black"/>
<polygon points="84.675,45.575 84.675,46.575 70.675,46.575 70.675,45.575 69.875,45.575 69.875,42.475 70.675,42.475 70.675,36.675 69.875,36.675 69.875,33.575 70.675,33.575 70.675,32.575 84.675,32.575 84.675,33.575 85.475,33.575 85.475,36.675 84.675,36.675 84.675,42.475 85.475,42.475 85.475,45.575" style="fill:none;stroke-width:0.2;stroke:black"/>
<polygon points="89.438,102.725 89.438,103.725 75.438,103.725 75.438,102.725 74.638,102.725 74.638,99.625 75.438,99.625 75.438,93.825 74.638,93.825 74.638,90.725 75.438,90.725 75.438,89.725 89.438,89.725 89.438,90.725 90.238,90.725 90.238,93.825 89.438,93.825 89.438,99.625 90.238,99.625 90.238,102.725" style="fill:none;stroke-width:0.2;stroke:black"/>
<polygon points="94.200,64.625 94.200,65.625 80.200,65.625 80.200,64.625 79.400,64.625 79.400,61.525 80.200,61.525 80.200,55.725 79.400,55.725 79.400,52.625 80.200,52.625 80.200,51.625 94.200,51.625 94.200,52.625 95.000,52.625 95.000,55.725 94.200,55.725 94.200,61.525 95.000,61.525 95.000,64.625" style="fill:none;stroke-width:0.2;stroke:black"/>
<polygon points="98.962,83.675 98.962,84.675 84.962,84.675 84.962,83.675 84.162,83.675 84.162,80.575 84.962,80.575 84.962,74.775 84.162,74.775 84.162,71.675 84.962,71.675 84.962,70.675 98.962,70.675 98.962,71.675 99.762,71.675 99.762,74.775 98.962,74.775 98.962,80.575 99.762,80.575 99.762,83.675" style="fill:none;stroke-width:0.2;stroke:black"/>
<polygon points="103.725,26.525 103.725,27.525 89.725,27.525 89.725,26.525 88.925,26.525 88.925,23.425 89.725,23.425 89.725,17.625 88.925,17.625 88.925,14.525 89.725,14.525 89.725,13.525 103.725,13.525 103.725,14.525 104.525,14.525 104.525,17.625 103.725,17.625 103.725,23.425 104.525,23.425 104.525,26.525" style="fill:none;stroke-width:0.2;stroke:black"/>
<polygon points="103.725,45.575 103.725,46.575 89.725,46.575 89.725,45.575 88.925,45.575 88.925,42.475 89.725,42.475 89.725,36.675 88.925,36.675 88.925,33.575 89.725,33.575 89.725,32.575 103.725,32.575 103.725,33.575 104.525,33.575 104.525,36.675 103.725,36.675 103.725,42.475 104.525,42.475 104.525,45.575" style="fill:none;stroke-width:0.2;stroke:black"/>
<polygon points="108.488,102.725 108.488,103.725 94.488,103.725 94.488,102.725 93.688,102.725 93.688,99.625 94.488,99.625 94.488,93.825 93.688,93.825 93.688,90.725 94.488,90.725 94.488,89.725 108.488,89.725 108.488,90.725 109.288,90.725 109.288,93.825 108.488,93.825 108.488,99.625 109.288,99.625 109.288,102.725" style="fill:none;stroke-width:0.2;stroke:black"/>
<polygon points="113.250,64.625 113.250,65.625 99.250,65.625 99.250,64.625 98.450,64.625 98.450,61.525 99.250,61.525 99.250,55.725 98.450,55.725 98.450,52.625 99.250,52.625 99.250,51.625 113.250,51.625 113.250,52.625 114.050,52.625 114.050,55.725 113.250,55.725 113.250,61.525 114.050,61.525 114.050,64.625" style="fill:none;stroke-width:0.2;stroke:black"/>
<polygon points="118.012,83.675 118.012,84.675 104.012,84.675 104.012,83.675 103.212,83.675 103.212,80.575 104.012,80.575 104.012,74.775 103.212,74.775 103.212,71.675 104.012,71.675 104.012,70.675 118.012,70.675 118.012,71.675 118.812,71.675 118.812,74.775 118.012,74.775 118.012,80.575 118.812,80.575 118.812,83.675" style="fill:none;stroke-width:0.2;stroke:black"/>
<polygon points="122.775,26.525 122.775,27.525 108.775,27.525 108.775,26.525 107.975,26.525 107.975,23.425 108.775,23.425 108.775,17.625 107.975,17.625 107.975,14.525 108.775,14.525 108.775,13.525 122.775,13.525 122.775,14.525 123.575,14.525 123.575,17.625 122.775,17.625 122.775,23.425 123.575,23.425 123.575,26.525" style="fill:none;stroke-width:0.2;stroke:black"/>
<polygon points="122.775,45.575 122.775,46.575 108.775,46.575 108.775,45.575 107.975,45.575 107.975,42.475 108.775,42.475 108.775,36.675 107.975,36.675 107.975,33.575 108.775,33.575 108.775,32.575 122.775,32.575 122.775,33.575 123.575,33.575 123.575,36.675 122.775,36.675 122.775,42.475 123.575,42.475 123.575,45.575" style="fill:none;stroke-width:0.2;stroke:black"/>
<polygon points="127.538,102.725 127.538,103.725 113.538,103.725 113.538,102.725 112.738,102.725 112.738,99.625 113.538,99.625 113.538,93.825 112.738,93.825 112.738,90.725 113.538,90.725 113.538,89.725 127.538,89.725 127.538,90.725 128.338,90.725 128.338,93.825 127.538,93.825 127.538,99.625 128.338,99.625 128.338,102.725" style="fill:none;stroke-width:0.2;stroke:black"/>
<polygon points="132.300,64.625 132.300,65.625 118.300,65.625 118.300,64.625 117.500,64.625 117.500,61.525 118.300,61.525 118.300,55.725 117.500,55.725 117.500,52.625 118.300,52.625 118.300,51.625 132.300,51.625 132.300,52.625 133.100,52.625 133.100,55.725 132.300,55.725 132.300,61.525 133.100,61.525 133.100,64.625" style="fill:none;stroke-width:0.2;stroke:black"/>
<polygon points="137.062,83.675 137.062,84.675 123.062,84.675 123.062,83.675 122.263,83.675 122.263,80.575 123.062,80.575 123.062,74.775 122.263,74.775 122.263,71.675 123.062,71.675 123.062,70.675 137.062,70.675 137.062,71.675 137.863,71.675 137.863,74.775 137.062,74.775 137.062,80.575 137.863,80.575 137.863,83.675" style="fill:none;stroke-width:0.2;stroke:black"/>
<polygon points="141.825,26.525 141.825,27.525 127.825,27.525 127.825,26.525 127.025,26.525 127.025,23.425 127.825,23.425 127.825,17.625 127.025,17.625 127.025,14.525 127.825,14.525 127.825,13.525 141.825,13.525 141.825,14.525 142.625,14.525 142.625,17.625 141.825,17.625 141.825,23.425 142.625,23.425 142.625,26.525" style="fill:none;stroke-width:0.2;stroke:black"/>
<polygon points="141.825,45.575 141.825,46.575 127.825,46.575 127.825,45.575 127.025,45.575 127.025,42.475 127.825,42.475 127.825,36.675 127.025,36.675 127.025,33.575 127.825,33.575 127.825,32.575 141.825,32.575 141.825,33.575 142.625,33.575 142.625,36.675 141.825,36.675 141.825,42.475 142.625,42.475 142.625,45.575" style="fill:none;stroke-width:0.2;stroke:black"/>
<polygon points="146.588,102.725 146.588,103.725 132.588,103.725 132.588,102.725 131.787,102.725 131.787,99.625 132.588,99.625 132.588,93.825 131.787,93.825 131.787,90.725 132.588,90.725 132.588,89.725 146.588,89.725 146.588,90.725 147.388,90.725 147.388,93.825 146.588,93.825 146.588,99.625 147.388,99.625 147.388,102.725" style="fill:none;stroke-width:0.2;stroke:black"/>
<polygon points="151.350,64.625 151.350,65.625 137.350,65.625 137.350,64.625 136.550,64.625 136.550,61.525 137.350,61.525 137.350,55.725 136.550,55.725 136.550,52.625 137.350,52.625 137.350,51.625 151.350,51.625 151.350,52.625 152.150,52.625 152.150,55.725 151.350,55.725 151.350,61.525 152.150,61.525 152.150,64.625" style="fill:none;stroke-width:0.2;stroke:black"/>
<polygon points="156.113,83.675 156.113,84.675 142.113,84.675 142.113,83.675 141.312,83.675 141.312,80.575 142.113,80.575 142.113,74.775 141.312,74.775 141.312,71.675 142.113,71.675 142.113,70.675 156.113,70.675 156.113,71.675 156.913,71.675 156.913,74.775 156.113,74.775 156.113,80.575 156.913,80.575 156.913,83.675" style="fill:none;stroke-width:0.2;stroke:black"/>
<polygon points="160.875,26.525 160.875,27.525 146.875,27.525 146.875,26.525 146.075,26.525 146.075,23.425 146.875,23.425 146.875,17.625 146.075,17.625 146.075,14.525 146.875,14.525 146.875,13.525 160.875,13.525 160.875,14.525 161.675,14.525 161.675,17.625 160.875,17.625 160.875,23.425 161.675,23.425 161.675,26.525" style="fill:none;stroke-width:0.2;stroke:black"/>
<polygon points="160.875,45.575 160.875,46.575 146.875,46.575 146.875,45.575 146.075,45.575 146.075,42.475 146.875,42.475 146.875,36.675 146.075,36.675 146.075,33.575 146.875,33.575 146.875,32.575 160.875,32.575 160.875,33.575 161.675,33.575 161.675,36.675 160.875,36.675 160.875,42.475 161.675,42.475 161.675,45.575" style="fill:none;stroke-width:0.2;stroke:black"/>
<polygon points="165.638,102.725 165.638,103.725 151.638,103.725 151.638,102.725 150.838,102.725 150.838,99.625 151.638,99.625 151.638,93.825 150.838,93.825 150.838,90.725 151.638,90.725 151.638,89.725 165.638,89.725 165.638,90.725 166.438,90.725 166.438,93.825 165.638,93.825 165.638,99.625 166.438,99.625 166.438,102.725" style="fill:none;stroke-width:0.2;stroke:black"/>
<polygon points="170.400,64.625 170.400,65.625 156.400,65.625 156.400,64.625 155.600,64.625 155.600,61.525 156.400,61.525 156.400,55.725 155.600,55.725 155.600,52.625 156.400,52.625 156.400,51.625 170.400,51.625 170.400,52.625 171.200,52.625 171.200,55.725 170.400,55.725 170.400,61.525 171.200,61.525 171.200,64.625" style="fill:none;stroke-width:0.2;stroke:black"/>
<polygon points="175.163,83.675 175.163,84.675 161.163,84.675 161.163,83.675 160.363,83.675 160.363,80.575 161.163,80.575 161.163,74.775 160.363,74.775 160.363,71.675 161.163,71.675 161.163,70.675 175.163,70.675 175.163,71.675 175.963,71.675 175.963,74.775 175.163,74.775 175.163,80.575 175.963,80.575 175.963,83.675" style="fill:none;stroke-width:0.2;stroke:black"/>
<polygon points="179.925,26.525 179.925,27.525 165.925,27.525 165.925,26.525 165.125,26.525 165.125,23.425 165.925,23.425 165.925,17.625 165.125,17.625 165.125,14.525 165.925,14.525 165.925,13.525 179.925,13.525 179.925,14.525 180.725,14.525 180.725,17.625 179.925,17.625 179.925,23.425 180.725,23.425 180.725,26.525" style="fill:none;stroke-width:0.2;stroke:black"/>
<polygon points="179.925,45.575 179.925,46.575 165.925,46.575 165.925,45.575 165.125,45.575 165.125,42.475 165.925,42.475 165.925,36.675 165.125,36.675 165.125,33.575 165.925,33.575 165.925,32.575 179.925,32.575 179.925,33.575 180.725,33.575 180.725,36.675 179.925,36.675 179.925,42.475 180.725,42.475 180.725,45.575" style="fill:none;stroke-width:0.2;stroke:black"/>
<polygon points="184.688,102.725 184.688,103.725 170.688,103.725 170.688,102.725 169.888,102.725 169.888,99.625 170.688,99.625 170.688,93.825 169.888,93.825 169.888,90.725 170.688,90.725 170.688,89.725 184.688,89.725 184.688,90.725 185.488,90.725 185.488,93.825 184.688,93.825 184.688,99.625 185.488,99.625 185.488,102.725" style="fill:none;stroke-width:0.2;stroke:black"/>
<polygon points="189.450,64.625 189.450,65.625 175.450,65.625 175.450,64.625 174.650,64.625 174.650,61.525 175.450,61.525 175.450,55.725 174.650,55.725 174.650,52.625 175.450,52.625 175.450,51.625 189.450,51.625 189.450,52.625 190.250,52.625 190.250,55.725 189.450,55.725 189.450,61.525 190.250,61.525 190.250,64.625" style="fill:none;stroke-width:0.2;stroke:black"/>
<polygon points="194.213,83.675 194.213,84.675 180.213,84.675 180.213,83.675 179.413,83.675 179.413,80.575 180.213,80.575 180.213,74.775 179.413,74.775 179.413,71.675 180.213,71.675 180.213,70.675 194.213,70.675 194.213,71.675 195.013,71.675 195.013,74.775 194.213,74.775 194.213,80.575 195.013,80.575 195.013,83.675" style="fill:none;stroke-width:0.2;stroke:black"/>
<polygon points="195.294,116.275 195.294,122.545 193.619,122.545 193.619,123.525 190.319,123.525 190.319,122.545 188.644,122.545 188.644,118.075 148.969,118.075 148.969,118.675 149.769,118.675 149.769,121.775 148.969,121.775 148.969,122.775 134.969,122.775 134.969,121.775 134.169,121.775 134.169,118.675 134.969,118.675 134.969,118.075 95.294,118.075 95.294,122.545 93.619,122.545 93.619,123.525 90.319,123.525 90.319,122.545 88.644,122.545 88.644,116.275 87.769,116.275 87.769,113.475 88.644,113.475 88.644,110.245 90.319,110.245 90.319,109.325 93.619,109.325 93.619,110.245 95.294,110.245 95.294,113.475 134.969,113.475 134.969,112.875 134.169,112.875 134.169,109.775 134.969,109.775 134.969,108.775 148.969,108.775 148.969,109.775 149.769,109.775 149.769,112.875 148.969,112.875 148.969,113.475 188.644,113.475 188.644,110.245 190.319,110.245 190.319,109.325 193.619,109.325 193.619,110.245 195.294,110.245 195.294,113.475 196.169,113.475 196.169,116.275" style="fill:none;stroke-width:0.2;stroke:black"/>
<polygon points="198.975,26.525 198.975,27.525 184.975,27.525 184.975,26.525 184.175,26.525 184.175,23.425 184.975,23.425 184.975,17.625 184.175,17.625 184.175,14.525 184.975,14.525 184.975,13.525 198.975,13.525 198.975,14.525 199.775,14.525 199.775,17.625 198.975,17.625 198.975,23.425 199.775,23.425 199.775,26.525" style="fill:none;stroke-width:0.2;stroke:black"/>
<polygon points="198.975,45.575 198.975,46.575 184.975,46.575 184.975,45.575 184.175,45.575 184.175,42.475 184.975,42.475 184.975,36.675 184.175,36.675 184.175,33.575 184.975,33.575 184.975,32.575 198.975,32.575 198.975,33.575 199.775,33.575 199.775,36.675 198.975,36.675 198.975,42.475 199.775,42.475 199.775,45.575" style="fill:none;stroke-width:0.2;stroke:black"/>
<polygon points="203.738,102.725 203.738,103.725 189.738,103.725 189.738,102.725 188.938,102.725 188.938,99.625 189.738,99.625 189.738,93.825 188.938,93.825 188.938,90.725 189.738,90.725 189.738,89.725 203.738,89.725 203.738,90.725 204.538,90.725 204.538,93.825 203.738,93.825 203.738,99.625 204.538,99.625 204.538,102.725" style="fill:none;stroke-width:0.2;stroke:black"/>
<polygon points="208.500,64.625 208.500,65.625 194.500,65.625 194.500,64.625 193.700,64.625 193.700,61.525 194.500,61.525 194.500,55.725 193.700,55.725 193.700,52.625 194.500,52.625 194.500,51.625 208.500,51.625 208.500,52.625 209.300,52.625 209.300,55.725 208.500,55.725 208.500,61.525 209.300,61.525 209.300,64.625" style="fill:none;stroke-width:0.2;stroke:black"/>
<polygon points="213.263,83.675 213.263,84.675 199.263,84.675 199.263,83.675 198.463,83.675 198.463,80.575 199.263,80.575 199.263,74.775 198.463,74.775 198.463,71.675 199.263,71.675 199.263,70.675 213.263,70.675 213.263,71.675 214.063,71.675 214.063,74.775 213.263,74.775 213.263,80.575 214.063,80.575 214.063,83.675" style="fill:none;stroke-width:0.2;stroke:black"/>
<polygon points="218.025,121.775 218.025,122.775 204.025,122.775 204.025,121.775 203.225,121.775 203.225,118.675 204.025,118.675 204.025,112.875 203.225,112.875 203.225,109.775 204.025,109.775 204.025,108.775 218.025,108.775 218.025,109.775 218.825,109.775 218.825,112.875 218.025,112.875 218.025,118.675 218.825,118.675 218.825,121.775" style="fill:none;stroke-width:0.2;stroke:black"/>
<polygon points="218.025,26.525 218.025,27.525 204.025,27.525 204.025,26.525 203.225,26.525 203.225,23.425 204.025,23.425 204.025,17.625 203.225,17.625 203.225,14.525 204.025,14.525 204.025,13.525 218.025,13.525 218.025,14.525 218.825,14.525 218.825,17.625 218.025,17.625 218.025,23.425 218.825,23.425 218.825,26.525" style="fill:none;stroke-width:0.2;stroke:black"/>
<polygon points="218.025,45.575 218.025,46.575 204.025,46.575 204.025,45.575 203.225,45.575 203.225,42.475 204.025,42.475 204.025,36.675 203.225,36.675 203.225,33.575 204.025,33.575 204.025,32.575 218.025,32.575 218.025,33.575 218.825,33.575 218.825,36.675 218.025,36.675 218.025,42.475 218.825,42.475 218.825,45.575" style="fill:none;stroke-width:0.2;stroke:black"/>
<polygon points="222.788,102.725 222.788,103.725 208.788,103.725 208.788,102.725 207.988,102.725 207.988,99.625 208.788,99.625 208.788,93.825 207.988,93.825 207.988,90.725 208.788,90.725 208.788,89.725 222.788,89.725 222.788,90.725 223.588,90.725 223.588,93.825 222.788,93.825 222.788,99.625 223.588,99.625 223.588,102.725" style="fill:none;stroke-width:0.2;stroke:black"/>
<polygon points="227.550,64.625 227.550,65.625 213.550,65.625 213.550,64.625 212.750,64.625 212.750,61.525 213.550,61.525 213.550,55.725 212.750,55.725 212.750,52.625 213.550,52.625 213.550,51.625 227.550,51.625 227.550,52.625 228.350,52.625 228.350,55.725 227.550,55.725 227.550,61.525 228.350,61.525 228.350,64.625" style="fill:none;stroke-width:0.2;stroke:black"/>
<polygon points="232.313,83.675 232.313,84.675 218.313,84.675 218.313,83.675 217.513,83.675 217.513,80.575 218.313,80.575 218.313,74.775 217.513,74.775 217.513,71.675 218.313,71.675 218.313,70.675 232.313,70.675 232.313,71.675 233.113,71.675 233.113,74.775 232.313,74.775 232.313,80.575 233.113,80.575 233.113,83.675" style="fill:none;stroke-width:0.2;stroke:black"/>
<polygon points="237.075,121.775 237.075,122.775 223.075,122.775 223.075,121.775 222.275,121.775 222.275,118.675 223.075,118.675 223.075,112.875 222.275,112.875 222.275,109.775 223.075,109.775 223.075,108.775 237.075,108.775 237.075,109.775 237.875,109.775 237.875,112.875 237.075,112.875 237.075,118.675 237.875,118.675 237.875,121.775" style="fill:none;stroke-width:0.2;stroke:black"/>
<polygon points="237.075,26.525 237.075,27.525 223.075,27.525 223.075,26.525 222.275,26.525 222.275,23.425 223.075,23.425 223.075,17.625 222.275,17.625 222.275,14.525 223.075,14.525 223.075,13.525 237.075,13.525 237.075,14.525 237.875,14.525 237.875,17.625 237.075,17.625 237.075,23.425 237.875,23.425 237.875,26.525" style="fill:none;stroke-width:0.2;stroke:black"/>
<polygon points="237.075,45.575 237.075,46.575 223.075,46.575 223.075,45.575 222.275,45.575 222.275,42.475 223.075,42.475 223.075,36.675 222.275,36.675 222.275,33.575 223.075,33.575 223.075,32.575 237.075,32.575 237.075,33.575 237.875,33.575 237.875,36.675 237.075,36.675 237.075,42.475 237.875,42.475 237.875,45.575" style="fill:none;stroke-width:0.2;stroke:black"/>
<polygon points="241.838,102.725 241.838,103.725 227.838,103.725 227.838,102.725 227.038,102.725 227.038,99.625 227.838,99.625 227.838,93.825 227.038,93.825 227.038,90.725 227.838,90.725 227.838,89.725 241.838,89.725 241.838,90.725 242.638,90.725 242.638,93.825 241.838,93.825 241.838,99.625 242.638,99.625 242.638,102.725" style="fill:none;stroke-width:0.2;stroke:black"/>
<polygon points="246.600,64.625 246.600,65.625 232.600,65.625 232.600,64.625 231.800,64.625 231.800,61.525 232.600,61.525 232.600,55.725 231.800,55.725 231.800,52.625 232.600,52.625 232.600,51.625 246.600,51.625 246.600,52.625 247.400,52.625 247.400,55.725 246.600,55.725 246.600,61.525 247.400,61.525 247.400,64.625" style="fill:none;stroke-width:0.2;stroke:black"/>
<polygon points="251.363,83.675 251.363,84.675 237.363,84.675 237.363,83.675 236.563,83.675 236.563,80.575 237.363,80.575 237.363,74.775 236.563,74.775 236.563,71.675 237.363,71.675 237.363,70.675 251.363,70.675 251.363,71.675 252.163,71.675 252.163,74.775 251.363,74.775 251.363,80.575 252.163,80.575 252.163,83.675" style="fill:none;stroke-width:0.2;stroke:black"/>
<polygon points="256.125,121.775 256.125,122.775 242.125,122.775 242.125,121.775 241.325,121.775 241.325,118.675 242.125,118.675 242.125,112.875 241.325,112.875 241.325,109.775 242.125,109.775 242.125,108.775 256.125,108.775 256.125,109.775 256.925,109.775 256.925,112.875 256.125,112.875 256.125,118.675 256.925,118.675 256.925,121.775" style="fill:none;stroke-width:0.2;stroke:black"/>
<polygon points="256.125,26.525 256.125,27.525 242.125,27.525 242.125,26.525 241.325,26.525 241.325,23.425 242.125,23.425 242.125,17.625 241.325,17.625 241.325,14.525 242.125,14.525 242.125,13.525 256.125,13.525 256.125,14.525 256.925,14.525 256.925,17.625 256.125,17.625 256.125,23.425 256.925,23.425 256.925,26.525" style="fill:none;stroke-width:0.2;stroke:black"/>
<polygon points="256.125,45.575 256.125,46.575 242.125,46.575 242.125,45.575 241.325,45.575 241.325,42.475 242.125,42.475 242.125,36.675 241.325,36.675 241.325,33.575 242.125,33.575 242.125,32.575 256.125,32.575 256.125,33.575 256.925,33.575 256.925,36.675 256.125,36.675 256.125,42.475 256.925,42.475 256.925,45.575" style="fill:none;stroke-width:0.2;stroke:black"/>
<polygon points="265.650,64.625 265.650,65.625 251.650,65.625 251.650,64.625 250.850,64.625 250.850,61.525 251.650,61.525 251.650,55.725 250.850,55.725 250.850,52.625 251.650,52.625 251.650,51.625 265.650,51.625 265.650,52.625 266.450,52.625 266.450,55.725 265.650,55.725 265.650,61.525 266.450,61.525 266.450,64.625" style="fill:none;stroke-width:0.2;stroke:black"/>
<polygon points="268.031,102.725 268.031,103.725 254.031,103.725 254.031,102.725 253.231,102.725 253.231,99.625 254.031,99.625 254.031,93.825 253.231,93.825 253.231,90.725 254.031,90.725 254.031,89.725 268.031,89.725 268.031,90.725 268.831,90.725 268.831,93.825 268.031,93.825 268.031,99.625 268.831,99.625 268.831,102.725" style="fill:none;stroke-width:0.2;stroke:black"/>
<polygon points="275.175,121.775 275.175,122.775 261.175,122.775 261.175,121.775 260.375,121.775 260.375,118.675 261.175,118.675 261.175,112.875 260.375,112.875 260.375,109.775 261.175,109.775 261.175,108.775 275.175,108.775 275.175,109.775 275.975,109.775 275.975,112.875 275.175,112.875 275.175,118.675 275.975,118.675 275.975,121.775" style="fill:none;stroke-width:0.2;stroke:black"/>
<polygon points="275.175,26.525 275.175,27.525 261.175,27.525 261.175,26.525 260.375,26.525 260.375,23.425 261.175,23.425 261.175,17.625 260.375,17.625 260.375,14.525 261.175,14.525 261.175,13.525 275.175,13.525 275.175,14.525 275.975,14.525 275.975,17.625 275.175,17.625 275.175,23.425 275.975,23.425 275.975,26.525" style="fill:none;stroke-width:0.2;stroke:black"/>
<polygon points="275.175,45.575 275.175,46.575 261.175,46.575 261.175,45.575 260.375,45.575 260.375,42.475 261.175,42.475 261.175,36.675 260.375,36.675 260.375,33.575 261.175,33.575 261.175,32.575 275.175,32.575 275.175,33.575 275.975,33.575 275.975,36.675 275.175,36.675 275.175,42.475 275.975,42.475 275.975,45.575" style="fill:none;stroke-width:0.2;stroke:black"/>
<polygon points="289.463,64.625 289.463,65.625 275.463,65.625 275.463,64.625 274.663,64.625 274.663,61.525 275.463,61.525 275.463,55.725 274.663,55.725 274.663,52.625 275.463,52.625 275.463,51.625 289.463,51.625 289.463,52.625 290.263,52.625 290.263,55.725 289.463,55.725 289.463,61.525 290.263,61.525 290.263,64.625" style="fill:none;stroke-width:0.2;stroke:black"/>
<polygon points="290.544,78.175 290.544,84.445 288.919,84.445 288.919,85.425 285.619,85.425 285.619,84.445 283.894,84.445 283.894,83.645 283.119,83.645 283.119,83.675 282.319,83.675 282.319,84.675 268.319,84.675 268.319,83.675 267.519,83.675 267.519,83.645 266.744,83.645 266.744,84.445 265.019,84.445 265.019,85.425 261.719,85.425 261.719,84.445 260.094,84.445 260.094,78.175 259.219,78.175 259.219,75.375 260.094,75.375 260.094,72.145 261.719,72.145 261.719,71.225 265.019,71.225 265.019,72.145 266.744,72.145 266.744,72.945 267.519,72.945 267.519,71.675 268.319,71.675 268.319,70.675 282.319,70.675 282.319,71.675 283.119,71.675 283.119,72.945 283.894,72.945 283.894,72.145 285.619,72.145 285.619,71.225 288.919,71.225 288.919,72.145 290.544,72.145 290.544,75.375 291.419,75.375 291.419,78.175" style="fill:none;stroke-width:0.2;stroke:black"/>
<polygon points="294.225,121.775 294.225,122.775 280.225,122.775 280.225,121.775 279.425,121.775 279.425,118.675 280.225,118.675 280.225,112.875 279.425,112.875 279.425,109.775 280.225,109.775 280.225,108.775 294.225,108.775 294.225,109.775 295.025,109.775 295.025,112.875 294.225,112.875 294.225,118.675 295.025,118.675 295.025,121.775" style="fill:none;stroke-width:0.2;stroke:black"/>
<polygon points="294.225,26.525 294.225,27.525 280.225,27.525 280.225,26.525 279.425,26.525 279.425,23.425 280.225,23.425 280.225,17.625 279.425,17.625 279.425,14.525 280.225,14.525 280.225,13.525 294.225,13.525 294.225,14.525 295.025,14.525 295.025,17.625 294.225,17.625 294.225,23.425 295.025,23.425 295.025,26.525" style="fill:none;stroke-width:0.2;stroke:black"/>
<polygon points="294.225,45.575 294.225,46.575 280.225,46.575 280.225,45.575 279.425,45.575 279.425,42.475 280.225,42.475 280.225,36.675 279.425,36.675 279.425,33.575 280.225,33.575 280.225,32.575 294.225,32.575 294.225,33.575 295.025,33.575 295.025,36.675 294.225,36.675 294.225,42.475 295.025,42.475 295.025,45.575" style="fill:none;stroke-width:0.2;stroke:black"/>
<polygon points="294.225,102.725 294.225,103.725 280.225,103.725 280.225,102.725 279.425,102.725 279.425,99.625 280.225,99.625 280.225,93.825 279.425,93.825 279.425,90.725 280.225,90.725 280.225,89.725 294.225,89.725 294.225,90.725 295.025,90.725 295.025,93.825 294.225,93.825 294.225,99.625 295.025,99.625 295.025,102.725" style="fill:none;stroke-width:0.2;stroke:black"/>
<polygon points="313.275,64.625 313.275,65.625 299.275,65.625 299.275,64.625 298.475,64.625 298.475,61.525 299.275,61.525 299.275,55.725 298.475,55.725 298.475,52.625 299.275,52.625 299.275,51.625 313.275,51.625 313.275,52.625 314.075,52.625 314.075,55.725 313.275,55.725 313.275,61.525 314.075,61.525 314.075,64.625" style="fill:none;stroke-width:0.2;stroke:black"/>
<polygon points="313.275,121.775 313.275,122.775 299.275,122.775 299.275,121.775 298.475,121.775 298.475,118.675 299.275,118.675 299.275,112.875 298.475,112.875 298.475,109.775 299.275,109.775 299.275,108.775 313.275,108.775 313.275,109.775 314.075,109.775 314.075,112.875 313.275,112.875 313.275,118.675 314.075,118.675 314.075,121.775" style="fill:none;stroke-width:0.2;stroke:black"/>
<polygon points="313.275,26.525 313.275,27.525 299.275,27.525 299.275,26.525 298.475,26.525 298.475,23.425 299.275,23.425 299.275,17.625 298.475,17.625 298.475,14.525 299.275,14.525 299.275,13.525 313.275,13.525 313.275,14.525 314.075,14.525 314.075,17.625 313.275,17.625 313.275,23.425 314.075,23.425 314.075,26.525" style="fill:none;stroke-width:0.2;stroke:black"/>
<polygon points="313.275,45.575 313.275,46.575 299.275,46.575 299.275,45.575 298.475,45.575 298.475,42.475 299.275,42.475 299.275,36.675 298.475,36.675 298.475,33.575 299.275,33.575 299.275,32.575 313.275,32.575 313.275,33.575 314.075,33.575 314.075,36.675 313.275,36.675 313.275,42.475 314.075,42.475 314.075,45.575" style="fill:none;stroke-width:0.2;stroke:black"/>
<polygon points="313.275,83.675 313.275,84.675 299.275,84.675 299.275,83.675 298.475,83.675 298.475,80.575 299.275,80.575 299.275,74.775 298.475,74.775 298.475,71.675 299.275,71.675 299.275,70.675 313.275,70.675 313.275,71.675 314.075,71.675 314.075,74.775 313.275,74.775 313.275,80.575 314.075,80.575 314.075,83.675" style="fill:none;stroke-width:0.2;stroke:black"/>
<polygon points="313.275,102.725 313.275,103.725 299.275,103.725 299.275,102.725 298.475,102.725 298.475,99.625 299.275,99.625 299.275,93.825 298.475,93.825 298.475,90.725 299.275,90.725 299.275,89.725 313.275,89.725 313.275,90.725 314.075,90.725 314.075,93.825 313.275,93.825 313.275,99.625 314.075,99.625 314.075,102.725" style="fill:none;stroke-width:0.2;stroke:black"/>
</svg>
