  0
SECTION
  2
HEADER
  9
$ACADVER
  1
AC1009
  9
$EXTMIN
 10
0.0
 20
0.0
 30
0.0
  9
$EXTMAX
 10
1000.0
 20
1000.0
 30
0.0
  9
$FILLMODE
 70
 0
  9
$SPLFRAME
 70
 1
  0
ENDSEC
  0
SECTION
  2
TABLES
  0
TABLE
  2
LAYER
 70
1
  0
LAYER
  2
0
 70
     0
 62
     7
  6
CONTINUOUS
  0
ENDTAB
  0
ENDSEC
  0
SECTION
  2
ENTITIES
  0
LINE
  8
0
 62
     0
 10
314.894
 20
126.406
 30
0.0
 11
315.051
 21
126.401
 31
0.0
  0
LINE
  8
0
 62
     0
 10
315.051
 20
126.401
 30
0.0
 11
315.207
 21
126.381
 31
0.0
  0
LINE
  8
0
 62
     0
 10
315.207
 20
126.381
 30
0.0
 11
315.361
 21
126.351
 31
0.0
  0
LINE
  8
0
 62
     0
 10
315.361
 20
126.351
 30
0.0
 11
315.511
 21
126.308
 31
0.0
  0
LINE
  8
0
 62
     0
 10
315.511
 20
126.308
 30
0.0
 11
315.659
 21
126.255
 31
0.0
  0
LINE
  8
0
 62
     0
 10
315.659
 20
126.255
 30
0.0
 11
315.802
 21
126.188
 31
0.0
  0
LINE
  8
0
 62
     0
 10
315.802
 20
126.188
 30
0.0
 11
315.939
 21
126.111
 31
0.0
  0
LINE
  8
0
 62
     0
 10
315.939
 20
126.111
 30
0.0
 11
316.069
 21
126.024
 31
0.0
  0
LINE
  8
0
 62
     0
 10
316.069
 20
126.024
 30
0.0
 11
316.192
 21
125.926
 31
0.0
  0
LINE
  8
0
 62
     0
 10
316.192
 20
125.926
 30
0.0
 11
316.308
 21
125.82
 31
0.0
  0
LINE
  8
0
 62
     0
 10
316.308
 20
125.82
 30
0.0
 11
316.414
 21
125.705
 31
0.0
  0
LINE
  8
0
 62
     0
 10
316.414
 20
125.705
 30
0.0
 11
316.512
 21
125.582
 31
0.0
  0
LINE
  8
0
 62
     0
 10
316.512
 20
125.582
 30
0.0
 11
316.599
 21
125.451
 31
0.0
  0
LINE
  8
0
 62
     0
 10
316.599
 20
125.451
 30
0.0
 11
316.676
 21
125.315
 31
0.0
  0
LINE
  8
0
 62
     0
 10
316.676
 20
125.315
 30
0.0
 11
316.742
 21
125.171
 31
0.0
  0
LINE
  8
0
 62
     0
 10
316.742
 20
125.171
 30
0.0
 11
316.796
 21
125.024
 31
0.0
  0
LINE
  8
0
 62
     0
 10
316.796
 20
125.024
 30
0.0
 11
316.839
 21
124.874
 31
0.0
  0
LINE
  8
0
 62
     0
 10
316.839
 20
124.874
 30
0.0
 11
316.869
 21
124.719
 31
0.0
  0
LINE
  8
0
 62
     0
 10
316.869
 20
124.719
 30
0.0
 11
316.888
 21
124.564
 31
0.0
  0
LINE
  8
0
 62
     0
 10
316.888
 20
124.564
 30
0.0
 11
316.894
 21
124.406
 31
0.0
  0
LINE
  8
0
 62
     0
 10
316.894
 20
124.406
 30
0.0
 11
316.894
 21
2.10564
 31
0.0
  0
LINE
  8
0
 62
     0
 10
316.894
 20
2.10564
 30
0.0
 11
316.888
 21
1.94855
 31
0.0
  0
LINE
  8
0
 62
     0
 10
316.888
 20
1.94855
 30
0.0
 11
316.869
 21
1.79283
 31
0.0
  0
LINE
  8
0
 62
     0
 10
316.869
 20
1.79283
 30
0.0
 11
316.839
 21
1.63849
 31
0.0
  0
LINE
  8
0
 62
     0
 10
316.839
 20
1.63849
 30
0.0
 11
316.796
 21
1.48828
 31
0.0
  0
LINE
  8
0
 62
     0
 10
316.796
 20
1.48828
 30
0.0
 11
316.742
 21
1.34083
 31
0.0
  0
LINE
  8
0
 62
     0
 10
316.742
 20
1.34083
 30
0.0
 11
316.676
 21
1.19751
 31
0.0
  0
LINE
  8
0
 62
     0
 10
316.676
 20
1.19751
 30
0.0
 11
316.599
 21
1.06109
 31
0.0
  0
LINE
  8
0
 62
     0
 10
316.599
 20
1.06109
 30
0.0
 11
316.512
 21
0.930176
 31
0.0
  0
LINE
  8
0
 62
     0
 10
316.512
 20
0.930176
 30
0.0
 11
316.414
 21
0.80753
 31
0.0
  0
LINE
  8
0
 62
     0
 10
316.414
 20
0.80753
 30
0.0
 11
316.308
 21
0.691776
 31
0.0
  0
LINE
  8
0
 62
     0
 10
316.308
 20
0.691776
 30
0.0
 11
316.192
 21
0.585668
 31
0.0
  0
LINE
  8
0
 62
     0
 10
316.192
 20
0.585668
 30
0.0
 11
316.069
 21
0.487825
 31
0.0
  0
LINE
  8
0
 62
     0
 10
316.069
 20
0.487825
 30
0.0
 11
315.939
 21
0.40101
 31
0.0
  0
LINE
  8
0
 62
     0
 10
315.939
 20
0.40101
 30
0.0
 11
315.802
 21
0.323839
 31
0.0
  0
LINE
  8
0
 62
     0
 10
315.802
 20
0.323839
 30
0.0
 11
315.659
 21
0.257693
 31
0.0
  0
LINE
  8
0
 62
     0
 10
315.659
 20
0.257693
 30
0.0
 11
315.511
 21
0.20395
 31
0.0
  0
LINE
  8
0
 62
     0
 10
315.511
 20
0.20395
 30
0.0
 11
315.361
 21
0.16123
 31
0.0
  0
LINE
  8
0
 62
     0
 10
315.361
 20
0.16123
 30
0.0
 11
315.207
 21
0.130914
 31
0.0
  0
LINE
  8
0
 62
     0
 10
315.207
 20
0.130914
 30
0.0
 11
315.051
 21
0.111621
 31
0.0
  0
LINE
  8
0
 62
     0
 10
315.051
 20
0.111621
 30
0.0
 11
314.894
 21
0.106109
 31
0.0
  0
LINE
  8
0
 62
     0
 10
314.894
 20
0.106109
 30
0.0
 11
2.09324
 21
0.106109
 31
0.0
  0
LINE
  8
0
 62
     0
 10
2.09324
 20
0.106109
 30
0.0
 11
1.93614
 21
0.111621
 31
0.0
  0
LINE
  8
0
 62
     0
 10
1.93614
 20
0.111621
 30
0.0
 11
1.78043
 21
0.130914
 31
0.0
  0
LINE
  8
0
 62
     0
 10
1.78043
 20
0.130914
 30
0.0
 11
1.62609
 21
0.16123
 31
0.0
  0
LINE
  8
0
 62
     0
 10
1.62609
 20
0.16123
 30
0.0
 11
1.47588
 21
0.20395
 31
0.0
  0
LINE
  8
0
 62
     0
 10
1.47588
 20
0.20395
 30
0.0
 11
1.32843
 21
0.257693
 31
0.0
  0
LINE
  8
0
 62
     0
 10
1.32843
 20
0.257693
 30
0.0
 11
1.18511
 21
0.323839
 31
0.0
  0
LINE
  8
0
 62
     0
 10
1.18511
 20
0.323839
 30
0.0
 11
1.04869
 21
0.40101
 31
0.0
  0
LINE
  8
0
 62
     0
 10
1.04869
 20
0.40101
 30
0.0
 11
0.917773
 21
0.487825
 31
0.0
  0
LINE
  8
0
 62
     0
 10
0.917773
 20
0.487825
 30
0.0
 11
0.795129
 21
0.585668
 31
0.0
  0
LINE
  8
0
 62
     0
 10
0.795129
 20
0.585668
 30
0.0
 11
0.679372
 21
0.691776
 31
0.0
  0
LINE
  8
0
 62
     0
 10
0.679372
 20
0.691776
 30
0.0
 11
0.573264
 21
0.80753
 31
0.0
  0
LINE
  8
0
 62
     0
 10
0.573264
 20
0.80753
 30
0.0
 11
0.475424
 21
0.930176
 31
0.0
  0
LINE
  8
0
 62
     0
 10
0.475424
 20
0.930176
 30
0.0
 11
0.388606
 21
1.06109
 31
0.0
  0
LINE
  8
0
 62
     0
 10
0.388606
 20
1.06109
 30
0.0
 11
0.311437
 21
1.19751
 31
0.0
  0
LINE
  8
0
 62
     0
 10
0.311437
 20
1.19751
 30
0.0
 11
0.245291
 21
1.34083
 31
0.0
  0
LINE
  8
0
 62
     0
 10
0.245291
 20
1.34083
 30
0.0
 11
0.191547
 21
1.48828
 31
0.0
  0
LINE
  8
0
 62
     0
 10
0.191547
 20
1.48828
 30
0.0
 11
0.148828
 21
1.63849
 31
0.0
  0
LINE
  8
0
 62
     0
 10
0.148828
 20
1.63849
 30
0.0
 11
0.118511
 21
1.79283
 31
0.0
  0
LINE
  8
0
 62
     0
 10
0.118511
 20
1.79283
 30
0.0
 11
0.0992188
 21
1.94855
 31
0.0
  0
LINE
  8
0
 62
     0
 10
0.0992188
 20
1.94855
 30
0.0
 11
0.0937066
 21
2.10564
 31
0.0
  0
LINE
  8
0
 62
     0
 10
0.0937066
 20
2.10564
 30
0.0
 11
0.0937066
 21
124.406
 31
0.0
  0
LINE
  8
0
 62
     0
 10
0.0937066
 20
124.406
 30
0.0
 11
0.0992188
 21
124.564
 31
0.0
  0
LINE
  8
0
 62
     0
 10
0.0992188
 20
124.564
 30
0.0
 11
0.118511
 21
124.719
 31
0.0
  0
LINE
  8
0
 62
     0
 10
0.118511
 20
124.719
 30
0.0
 11
0.148828
 21
124.874
 31
0.0
  0
LINE
  8
0
 62
     0
 10
0.148828
 20
124.874
 30
0.0
 11
0.191547
 21
125.024
 31
0.0
  0
LINE
  8
0
 62
     0
 10
0.191547
 20
125.024
 30
0.0
 11
0.245291
 21
125.171
 31
0.0
  0
LINE
  8
0
 62
     0
 10
0.245291
 20
125.171
 30
0.0
 11
0.311437
 21
125.315
 31
0.0
  0
LINE
  8
0
 62
     0
 10
0.311437
 20
125.315
 30
0.0
 11
0.388606
 21
125.451
 31
0.0
  0
LINE
  8
0
 62
     0
 10
0.388606
 20
125.451
 30
0.0
 11
0.475424
 21
125.582
 31
0.0
  0
LINE
  8
0
 62
     0
 10
0.475424
 20
125.582
 30
0.0
 11
0.573264
 21
125.705
 31
0.0
  0
LINE
  8
0
 62
     0
 10
0.573264
 20
125.705
 30
0.0
 11
0.679372
 21
125.82
 31
0.0
  0
LINE
  8
0
 62
     0
 10
0.679372
 20
125.82
 30
0.0
 11
0.795129
 21
125.926
 31
0.0
  0
LINE
  8
0
 62
     0
 10
0.795129
 20
125.926
 30
0.0
 11
0.917773
 21
126.024
 31
0.0
  0
LINE
  8
0
 62
     0
 10
0.917773
 20
126.024
 30
0.0
 11
1.04869
 21
126.111
 31
0.0
  0
LINE
  8
0
 62
     0
 10
1.04869
 20
126.111
 30
0.0
 11
1.18511
 21
126.188
 31
0.0
  0
LINE
  8
0
 62
     0
 10
1.18511
 20
126.188
 30
0.0
 11
1.32843
 21
126.255
 31
0.0
  0
LINE
  8
0
 62
     0
 10
1.32843
 20
126.255
 30
0.0
 11
1.47588
 21
126.308
 31
0.0
  0
LINE
  8
0
 62
     0
 10
1.47588
 20
126.308
 30
0.0
 11
1.62609
 21
126.351
 31
0.0
  0
LINE
  8
0
 62
     0
 10
1.62609
 20
126.351
 30
0.0
 11
1.78043
 21
126.381
 31
0.0
  0
LINE
  8
0
 62
     0
 10
1.78043
 20
126.381
 30
0.0
 11
1.93614
 21
126.401
 31
0.0
  0
LINE
  8
0
 62
     0
 10
1.93614
 20
126.401
 30
0.0
 11
2.09324
 21
126.406
 31
0.0
  0
LINE
  8
0
 62
     0
 10
2.09324
 20
126.406
 30
0.0
 11
314.894
 21
126.406
 31
0.0
  0
LINE
  8
0
 62
     0
 10
106.693
 20
124.406
 30
0.0
 11
107.003
 21
124.357
 31
0.0
  0
LINE
  8
0
 62
     0
 10
107.003
 20
124.357
 30
0.0
 11
107.281
 21
124.215
 31
0.0
  0
LINE
  8
0
 62
     0
 10
107.281
 20
124.215
 30
0.0
 11
107.502
 21
123.994
 31
0.0
  0
LINE
  8
0
 62
     0
 10
107.502
 20
123.994
 30
0.0
 11
107.644
 21
123.715
 31
0.0
  0
LINE
  8
0
 62
     0
 10
107.644
 20
123.715
 30
0.0
 11
107.694
 21
123.406
 31
0.0
  0
LINE
  8
0
 62
     0
 10
107.694
 20
123.406
 30
0.0
 11
107.644
 21
123.098
 31
0.0
  0
LINE
  8
0
 62
     0
 10
107.644
 20
123.098
 30
0.0
 11
107.502
 21
122.818
 31
0.0
  0
LINE
  8
0
 62
     0
 10
107.502
 20
122.818
 30
0.0
 11
107.281
 21
122.597
 31
0.0
  0
LINE
  8
0
 62
     0
 10
107.281
 20
122.597
 30
0.0
 11
107.003
 21
122.455
 31
0.0
  0
LINE
  8
0
 62
     0
 10
107.003
 20
122.455
 30
0.0
 11
106.693
 21
122.406
 31
0.0
  0
LINE
  8
0
 62
     0
 10
106.693
 20
122.406
 30
0.0
 11
106.385
 21
122.455
 31
0.0
  0
LINE
  8
0
 62
     0
 10
106.385
 20
122.455
 30
0.0
 11
106.106
 21
122.597
 31
0.0
  0
LINE
  8
0
 62
     0
 10
106.106
 20
122.597
 30
0.0
 11
105.884
 21
122.818
 31
0.0
  0
LINE
  8
0
 62
     0
 10
105.884
 20
122.818
 30
0.0
 11
105.742
 21
123.098
 31
0.0
  0
LINE
  8
0
 62
     0
 10
105.742
 20
123.098
 30
0.0
 11
105.694
 21
123.406
 31
0.0
  0
LINE
  8
0
 62
     0
 10
105.694
 20
123.406
 30
0.0
 11
105.742
 21
123.715
 31
0.0
  0
LINE
  8
0
 62
     0
 10
105.742
 20
123.715
 30
0.0
 11
105.884
 21
123.994
 31
0.0
  0
LINE
  8
0
 62
     0
 10
105.884
 20
123.994
 30
0.0
 11
106.106
 21
124.215
 31
0.0
  0
LINE
  8
0
 62
     0
 10
106.106
 20
124.215
 30
0.0
 11
106.385
 21
124.357
 31
0.0
  0
LINE
  8
0
 62
     0
 10
106.385
 20
124.357
 30
0.0
 11
106.693
 21
124.406
 31
0.0
  0
LINE
  8
0
 62
     0
 10
210.294
 20
124.406
 30
0.0
 11
210.603
 21
124.357
 31
0.0
  0
LINE
  8
0
 62
     0
 10
210.603
 20
124.357
 30
0.0
 11
210.881
 21
124.215
 31
0.0
  0
LINE
  8
0
 62
     0
 10
210.881
 20
124.215
 30
0.0
 11
211.103
 21
123.994
 31
0.0
  0
LINE
  8
0
 62
     0
 10
211.103
 20
123.994
 30
0.0
 11
211.245
 21
123.715
 31
0.0
  0
LINE
  8
0
 62
     0
 10
211.245
 20
123.715
 30
0.0
 11
211.293
 21
123.406
 31
0.0
  0
LINE
  8
0
 62
     0
 10
211.293
 20
123.406
 30
0.0
 11
211.245
 21
123.098
 31
0.0
  0
LINE
  8
0
 62
     0
 10
211.245
 20
123.098
 30
0.0
 11
211.103
 21
122.818
 31
0.0
  0
LINE
  8
0
 62
     0
 10
211.103
 20
122.818
 30
0.0
 11
210.881
 21
122.597
 31
0.0
  0
LINE
  8
0
 62
     0
 10
210.881
 20
122.597
 30
0.0
 11
210.603
 21
122.455
 31
0.0
  0
LINE
  8
0
 62
     0
 10
210.603
 20
122.455
 30
0.0
 11
210.294
 21
122.406
 31
0.0
  0
LINE
  8
0
 62
     0
 10
210.294
 20
122.406
 30
0.0
 11
209.984
 21
122.455
 31
0.0
  0
LINE
  8
0
 62
     0
 10
209.984
 20
122.455
 30
0.0
 11
209.706
 21
122.597
 31
0.0
  0
LINE
  8
0
 62
     0
 10
209.706
 20
122.597
 30
0.0
 11
209.485
 21
122.818
 31
0.0
  0
LINE
  8
0
 62
     0
 10
209.485
 20
122.818
 30
0.0
 11
209.343
 21
123.098
 31
0.0
  0
LINE
  8
0
 62
     0
 10
209.343
 20
123.098
 30
0.0
 11
209.294
 21
123.406
 31
0.0
  0
LINE
  8
0
 62
     0
 10
209.294
 20
123.406
 30
0.0
 11
209.343
 21
123.715
 31
0.0
  0
LINE
  8
0
 62
     0
 10
209.343
 20
123.715
 30
0.0
 11
209.485
 21
123.994
 31
0.0
  0
LINE
  8
0
 62
     0
 10
209.485
 20
123.994
 30
0.0
 11
209.706
 21
124.215
 31
0.0
  0
LINE
  8
0
 62
     0
 10
209.706
 20
124.215
 30
0.0
 11
209.984
 21
124.357
 31
0.0
  0
LINE
  8
0
 62
     0
 10
209.984
 20
124.357
 30
0.0
 11
210.294
 21
124.406
 31
0.0
  0
LINE
  8
0
 62
     0
 10
313.894
 20
124.406
 30
0.0
 11
314.202
 21
124.357
 31
0.0
  0
LINE
  8
0
 62
     0
 10
314.202
 20
124.357
 30
0.0
 11
314.482
 21
124.215
 31
0.0
  0
LINE
  8
0
 62
     0
 10
314.482
 20
124.215
 30
0.0
 11
314.702
 21
123.994
 31
0.0
  0
LINE
  8
0
 62
     0
 10
314.702
 20
123.994
 30
0.0
 11
314.845
 21
123.715
 31
0.0
  0
LINE
  8
0
 62
     0
 10
314.845
 20
123.715
 30
0.0
 11
314.894
 21
123.406
 31
0.0
  0
LINE
  8
0
 62
     0
 10
314.894
 20
123.406
 30
0.0
 11
314.845
 21
123.098
 31
0.0
  0
LINE
  8
0
 62
     0
 10
314.845
 20
123.098
 30
0.0
 11
314.702
 21
122.818
 31
0.0
  0
LINE
  8
0
 62
     0
 10
314.702
 20
122.818
 30
0.0
 11
314.482
 21
122.597
 31
0.0
  0
LINE
  8
0
 62
     0
 10
314.482
 20
122.597
 30
0.0
 11
314.202
 21
122.455
 31
0.0
  0
LINE
  8
0
 62
     0
 10
314.202
 20
122.455
 30
0.0
 11
313.894
 21
122.406
 31
0.0
  0
LINE
  8
0
 62
     0
 10
313.894
 20
122.406
 30
0.0
 11
313.585
 21
122.455
 31
0.0
  0
LINE
  8
0
 62
     0
 10
313.585
 20
122.455
 30
0.0
 11
313.305
 21
122.597
 31
0.0
  0
LINE
  8
0
 62
     0
 10
313.305
 20
122.597
 30
0.0
 11
313.085
 21
122.818
 31
0.0
  0
LINE
  8
0
 62
     0
 10
313.085
 20
122.818
 30
0.0
 11
312.943
 21
123.098
 31
0.0
  0
LINE
  8
0
 62
     0
 10
312.943
 20
123.098
 30
0.0
 11
312.893
 21
123.406
 31
0.0
  0
LINE
  8
0
 62
     0
 10
312.893
 20
123.406
 30
0.0
 11
312.943
 21
123.715
 31
0.0
  0
LINE
  8
0
 62
     0
 10
312.943
 20
123.715
 30
0.0
 11
313.085
 21
123.994
 31
0.0
  0
LINE
  8
0
 62
     0
 10
313.085
 20
123.994
 30
0.0
 11
313.305
 21
124.215
 31
0.0
  0
LINE
  8
0
 62
     0
 10
313.305
 20
124.215
 30
0.0
 11
313.585
 21
124.357
 31
0.0
  0
LINE
  8
0
 62
     0
 10
313.585
 20
124.357
 30
0.0
 11
313.894
 21
124.406
 31
0.0
  0
LINE
  8
0
 62
     0
 10
313.894
 20
4.10655
 30
0.0
 11
314.202
 21
4.05694
 31
0.0
  0
LINE
  8
0
 62
     0
 10
314.202
 20
4.05694
 30
0.0
 11
314.482
 21
3.91502
 31
0.0
  0
LINE
  8
0
 62
     0
 10
314.482
 20
3.91502
 30
0.0
 11
314.702
 21
3.69454
 31
0.0
  0
LINE
  8
0
 62
     0
 10
314.702
 20
3.69454
 30
0.0
 11
314.845
 21
3.41478
 31
0.0
  0
LINE
  8
0
 62
     0
 10
314.845
 20
3.41478
 30
0.0
 11
314.894
 21
3.1061
 31
0.0
  0
LINE
  8
0
 62
     0
 10
314.894
 20
3.1061
 30
0.0
 11
314.845
 21
2.79742
 31
0.0
  0
LINE
  8
0
 62
     0
 10
314.845
 20
2.79742
 30
0.0
 11
314.702
 21
2.51768
 31
0.0
  0
LINE
  8
0
 62
     0
 10
314.702
 20
2.51768
 30
0.0
 11
314.482
 21
2.29719
 31
0.0
  0
LINE
  8
0
 62
     0
 10
314.482
 20
2.29719
 30
0.0
 11
314.202
 21
2.15525
 31
0.0
  0
LINE
  8
0
 62
     0
 10
314.202
 20
2.15525
 30
0.0
 11
313.894
 21
2.10564
 31
0.0
  0
LINE
  8
0
 62
     0
 10
313.894
 20
2.10564
 30
0.0
 11
313.585
 21
2.15525
 31
0.0
  0
LINE
  8
0
 62
     0
 10
313.585
 20
2.15525
 30
0.0
 11
313.305
 21
2.29719
 31
0.0
  0
LINE
  8
0
 62
     0
 10
313.305
 20
2.29719
 30
0.0
 11
313.085
 21
2.51768
 31
0.0
  0
LINE
  8
0
 62
     0
 10
313.085
 20
2.51768
 30
0.0
 11
312.943
 21
2.79742
 31
0.0
  0
LINE
  8
0
 62
     0
 10
312.943
 20
2.79742
 30
0.0
 11
312.893
 21
3.1061
 31
0.0
  0
LINE
  8
0
 62
     0
 10
312.893
 20
3.1061
 30
0.0
 11
312.943
 21
3.41478
 31
0.0
  0
LINE
  8
0
 62
     0
 10
312.943
 20
3.41478
 30
0.0
 11
313.085
 21
3.69454
 31
0.0
  0
LINE
  8
0
 62
     0
 10
313.085
 20
3.69454
 30
0.0
 11
313.305
 21
3.91502
 31
0.0
  0
LINE
  8
0
 62
     0
 10
313.305
 20
3.91502
 30
0.0
 11
313.585
 21
4.05694
 31
0.0
  0
LINE
  8
0
 62
     0
 10
313.585
 20
4.05694
 30
0.0
 11
313.894
 21
4.10655
 31
0.0
  0
LINE
  8
0
 62
     0
 10
210.294
 20
4.10655
 30
0.0
 11
210.603
 21
4.05694
 31
0.0
  0
LINE
  8
0
 62
     0
 10
210.603
 20
4.05694
 30
0.0
 11
210.881
 21
3.91502
 31
0.0
  0
LINE
  8
0
 62
     0
 10
210.881
 20
3.91502
 30
0.0
 11
211.103
 21
3.69454
 31
0.0
  0
LINE
  8
0
 62
     0
 10
211.103
 20
3.69454
 30
0.0
 11
211.245
 21
3.41478
 31
0.0
  0
LINE
  8
0
 62
     0
 10
211.245
 20
3.41478
 30
0.0
 11
211.293
 21
3.1061
 31
0.0
  0
LINE
  8
0
 62
     0
 10
211.293
 20
3.1061
 30
0.0
 11
211.245
 21
2.79742
 31
0.0
  0
LINE
  8
0
 62
     0
 10
211.245
 20
2.79742
 30
0.0
 11
211.103
 21
2.51768
 31
0.0
  0
LINE
  8
0
 62
     0
 10
211.103
 20
2.51768
 30
0.0
 11
210.881
 21
2.29719
 31
0.0
  0
LINE
  8
0
 62
     0
 10
210.881
 20
2.29719
 30
0.0
 11
210.603
 21
2.15525
 31
0.0
  0
LINE
  8
0
 62
     0
 10
210.603
 20
2.15525
 30
0.0
 11
210.294
 21
2.10564
 31
0.0
  0
LINE
  8
0
 62
     0
 10
210.294
 20
2.10564
 30
0.0
 11
209.984
 21
2.15525
 31
0.0
  0
LINE
  8
0
 62
     0
 10
209.984
 20
2.15525
 30
0.0
 11
209.706
 21
2.29719
 31
0.0
  0
LINE
  8
0
 62
     0
 10
209.706
 20
2.29719
 30
0.0
 11
209.485
 21
2.51768
 31
0.0
  0
LINE
  8
0
 62
     0
 10
209.485
 20
2.51768
 30
0.0
 11
209.343
 21
2.79742
 31
0.0
  0
LINE
  8
0
 62
     0
 10
209.343
 20
2.79742
 30
0.0
 11
209.294
 21
3.1061
 31
0.0
  0
LINE
  8
0
 62
     0
 10
209.294
 20
3.1061
 30
0.0
 11
209.343
 21
3.41478
 31
0.0
  0
LINE
  8
0
 62
     0
 10
209.343
 20
3.41478
 30
0.0
 11
209.485
 21
3.69454
 31
0.0
  0
LINE
  8
0
 62
     0
 10
209.485
 20
3.69454
 30
0.0
 11
209.706
 21
3.91502
 31
0.0
  0
LINE
  8
0
 62
     0
 10
209.706
 20
3.91502
 30
0.0
 11
209.984
 21
4.05694
 31
0.0
  0
LINE
  8
0
 62
     0
 10
209.984
 20
4.05694
 30
0.0
 11
210.294
 21
4.10655
 31
0.0
  0
LINE
  8
0
 62
     0
 10
106.693
 20
4.10655
 30
0.0
 11
107.003
 21
4.05694
 31
0.0
  0
LINE
  8
0
 62
     0
 10
107.003
 20
4.05694
 30
0.0
 11
107.281
 21
3.91502
 31
0.0
  0
LINE
  8
0
 62
     0
 10
107.281
 20
3.91502
 30
0.0
 11
107.502
 21
3.69454
 31
0.0
  0
LINE
  8
0
 62
     0
 10
107.502
 20
3.69454
 30
0.0
 11
107.644
 21
3.41478
 31
0.0
  0
LINE
  8
0
 62
     0
 10
107.644
 20
3.41478
 30
0.0
 11
107.694
 21
3.1061
 31
0.0
  0
LINE
  8
0
 62
     0
 10
107.694
 20
3.1061
 30
0.0
 11
107.644
 21
2.79742
 31
0.0
  0
LINE
  8
0
 62
     0
 10
107.644
 20
2.79742
 30
0.0
 11
107.502
 21
2.51768
 31
0.0
  0
LINE
  8
0
 62
     0
 10
107.502
 20
2.51768
 30
0.0
 11
107.281
 21
2.29719
 31
0.0
  0
LINE
  8
0
 62
     0
 10
107.281
 20
2.29719
 30
0.0
 11
107.003
 21
2.15525
 31
0.0
  0
LINE
  8
0
 62
     0
 10
107.003
 20
2.15525
 30
0.0
 11
106.693
 21
2.10564
 31
0.0
  0
LINE
  8
0
 62
     0
 10
106.693
 20
2.10564
 30
0.0
 11
106.385
 21
2.15525
 31
0.0
  0
LINE
  8
0
 62
     0
 10
106.385
 20
2.15525
 30
0.0
 11
106.106
 21
2.29719
 31
0.0
  0
LINE
  8
0
 62
     0
 10
106.106
 20
2.29719
 30
0.0
 11
105.884
 21
2.51768
 31
0.0
  0
LINE
  8
0
 62
     0
 10
105.884
 20
2.51768
 30
0.0
 11
105.742
 21
2.79742
 31
0.0
  0
LINE
  8
0
 62
     0
 10
105.742
 20
2.79742
 30
0.0
 11
105.694
 21
3.1061
 31
0.0
  0
LINE
  8
0
 62
     0
 10
105.694
 20
3.1061
 30
0.0
 11
105.742
 21
3.41478
 31
0.0
  0
LINE
  8
0
 62
     0
 10
105.742
 20
3.41478
 30
0.0
 11
105.884
 21
3.69454
 31
0.0
  0
LINE
  8
0
 62
     0
 10
105.884
 20
3.69454
 30
0.0
 11
106.106
 21
3.91502
 31
0.0
  0
LINE
  8
0
 62
     0
 10
106.106
 20
3.91502
 30
0.0
 11
106.385
 21
4.05694
 31
0.0
  0
LINE
  8
0
 62
     0
 10
106.385
 20
4.05694
 30
0.0
 11
106.693
 21
4.10655
 31
0.0
  0
LINE
  8
0
 62
     0
 10
3.0937
 20
4.10655
 30
0.0
 11
3.40238
 21
4.05694
 31
0.0
  0
LINE
  8
0
 62
     0
 10
3.40238
 20
4.05694
 30
0.0
 11
3.68212
 21
3.91502
 31
0.0
  0
LINE
  8
0
 62
     0
 10
3.68212
 20
3.91502
 30
0.0
 11
3.9026
 21
3.69454
 31
0.0
  0
LINE
  8
0
 62
     0
 10
3.9026
 20
3.69454
 30
0.0
 11
4.04453
 21
3.41478
 31
0.0
  0
LINE
  8
0
 62
     0
 10
4.04453
 20
3.41478
 30
0.0
 11
4.09416
 21
3.1061
 31
0.0
  0
LINE
  8
0
 62
     0
 10
4.09416
 20
3.1061
 30
0.0
 11
4.04453
 21
2.79742
 31
0.0
  0
LINE
  8
0
 62
     0
 10
4.04453
 20
2.79742
 30
0.0
 11
3.9026
 21
2.51768
 31
0.0
  0
LINE
  8
0
 62
     0
 10
3.9026
 20
2.51768
 30
0.0
 11
3.68212
 21
2.29719
 31
0.0
  0
LINE
  8
0
 62
     0
 10
3.68212
 20
2.29719
 30
0.0
 11
3.40238
 21
2.15525
 31
0.0
  0
LINE
  8
0
 62
     0
 10
3.40238
 20
2.15525
 30
0.0
 11
3.0937
 21
2.10564
 31
0.0
  0
LINE
  8
0
 62
     0
 10
3.0937
 20
2.10564
 30
0.0
 11
2.78501
 21
2.15525
 31
0.0
  0
LINE
  8
0
 62
     0
 10
2.78501
 20
2.15525
 30
0.0
 11
2.50527
 21
2.29719
 31
0.0
  0
LINE
  8
0
 62
     0
 10
2.50527
 20
2.29719
 30
0.0
 11
2.28479
 21
2.51768
 31
0.0
  0
LINE
  8
0
 62
     0
 10
2.28479
 20
2.51768
 30
0.0
 11
2.14285
 21
2.79742
 31
0.0
  0
LINE
  8
0
 62
     0
 10
2.14285
 20
2.79742
 30
0.0
 11
2.09324
 21
3.1061
 31
0.0
  0
LINE
  8
0
 62
     0
 10
2.09324
 20
3.1061
 30
0.0
 11
2.14285
 21
3.41478
 31
0.0
  0
LINE
  8
0
 62
     0
 10
2.14285
 20
3.41478
 30
0.0
 11
2.28479
 21
3.69454
 31
0.0
  0
LINE
  8
0
 62
     0
 10
2.28479
 20
3.69454
 30
0.0
 11
2.50527
 21
3.91502
 31
0.0
  0
LINE
  8
0
 62
     0
 10
2.50527
 20
3.91502
 30
0.0
 11
2.78501
 21
4.05694
 31
0.0
  0
LINE
  8
0
 62
     0
 10
2.78501
 20
4.05694
 30
0.0
 11
3.0937
 21
4.10655
 31
0.0
  0
LINE
  8
0
 62
     0
 10
3.0937
 20
124.406
 30
0.0
 11
3.40238
 21
124.357
 31
0.0
  0
LINE
  8
0
 62
     0
 10
3.40238
 20
124.357
 30
0.0
 11
3.68212
 21
124.215
 31
0.0
  0
LINE
  8
0
 62
     0
 10
3.68212
 20
124.215
 30
0.0
 11
3.9026
 21
123.994
 31
0.0
  0
LINE
  8
0
 62
     0
 10
3.9026
 20
123.994
 30
0.0
 11
4.04453
 21
123.715
 31
0.0
  0
LINE
  8
0
 62
     0
 10
4.04453
 20
123.715
 30
0.0
 11
4.09416
 21
123.406
 31
0.0
  0
LINE
  8
0
 62
     0
 10
4.09416
 20
123.406
 30
0.0
 11
4.04453
 21
123.098
 31
0.0
  0
LINE
  8
0
 62
     0
 10
4.04453
 20
123.098
 30
0.0
 11
3.9026
 21
122.818
 31
0.0
  0
LINE
  8
0
 62
     0
 10
3.9026
 20
122.818
 30
0.0
 11
3.68212
 21
122.597
 31
0.0
  0
LINE
  8
0
 62
     0
 10
3.68212
 20
122.597
 30
0.0
 11
3.40238
 21
122.455
 31
0.0
  0
LINE
  8
0
 62
     0
 10
3.40238
 20
122.455
 30
0.0
 11
3.0937
 21
122.406
 31
0.0
  0
LINE
  8
0
 62
     0
 10
3.0937
 20
122.406
 30
0.0
 11
2.78501
 21
122.455
 31
0.0
  0
LINE
  8
0
 62
     0
 10
2.78501
 20
122.455
 30
0.0
 11
2.50527
 21
122.597
 31
0.0
  0
LINE
  8
0
 62
     0
 10
2.50527
 20
122.597
 30
0.0
 11
2.28479
 21
122.818
 31
0.0
  0
LINE
  8
0
 62
     0
 10
2.28479
 20
122.818
 30
0.0
 11
2.14285
 21
123.098
 31
0.0
  0
LINE
  8
0
 62
     0
 10
2.14285
 20
123.098
 30
0.0
 11
2.09324
 21
123.406
 31
0.0
  0
LINE
  8
0
 62
     0
 10
2.09324
 20
123.406
 30
0.0
 11
2.14285
 21
123.715
 31
0.0
  0
LINE
  8
0
 62
     0
 10
2.14285
 20
123.715
 30
0.0
 11
2.28479
 21
123.994
 31
0.0
  0
LINE
  8
0
 62
     0
 10
2.28479
 20
123.994
 30
0.0
 11
2.50527
 21
124.215
 31
0.0
  0
LINE
  8
0
 62
     0
 10
2.50527
 20
124.215
 30
0.0
 11
2.78501
 21
124.357
 31
0.0
  0
LINE
  8
0
 62
     0
 10
2.78501
 20
124.357
 30
0.0
 11
3.0937
 21
124.406
 31
0.0
  0
LINE
  8
0
 62
     0
 10
21.6187
 20
94.3557
 30
0.0
 11
21.6187
 21
93.5563
 31
0.0
  0
LINE
  8
0
 62
     0
 10
21.6187
 20
93.5563
 30
0.0
 11
20.3481
 21
93.5563
 31
0.0
  0
LINE
  8
0
 62
     0
 10
20.3481
 20
93.5563
 30
0.0
 11
20.3481
 21
92.7806
 31
0.0
  0
LINE
  8
0
 62
     0
 10
20.3481
 20
92.7806
 30
0.0
 11
21.1487
 21
92.7806
 31
0.0
  0
LINE
  8
0
 62
     0
 10
21.1487
 20
92.7806
 30
0.0
 11
21.1487
 21
91.0565
 31
0.0
  0
LINE
  8
0
 62
     0
 10
21.1487
 20
91.0565
 30
0.0
 11
22.0693
 21
91.0565
 31
0.0
  0
LINE
  8
0
 62
     0
 10
22.0693
 20
91.0565
 30
0.0
 11
22.0693
 21
87.7563
 31
0.0
  0
LINE
  8
0
 62
     0
 10
22.0693
 20
87.7563
 30
0.0
 11
21.1487
 21
87.7563
 31
0.0
  0
LINE
  8
0
 62
     0
 10
21.1487
 20
87.7563
 30
0.0
 11
21.1487
 21
86.1314
 31
0.0
  0
LINE
  8
0
 62
     0
 10
21.1487
 20
86.1314
 30
0.0
 11
17.9186
 21
86.1314
 31
0.0
  0
LINE
  8
0
 62
     0
 10
17.9186
 20
86.1314
 30
0.0
 11
17.9186
 21
85.2565
 31
0.0
  0
LINE
  8
0
 62
     0
 10
17.9186
 20
85.2565
 30
0.0
 11
15.1185
 21
85.2565
 31
0.0
  0
LINE
  8
0
 62
     0
 10
15.1185
 20
85.2565
 30
0.0
 11
15.1185
 21
86.1314
 31
0.0
  0
LINE
  8
0
 62
     0
 10
15.1185
 20
86.1314
 30
0.0
 11
8.84837
 21
86.1314
 31
0.0
  0
LINE
  8
0
 62
     0
 10
8.84837
 20
86.1314
 30
0.0
 11
8.84837
 21
87.7563
 31
0.0
  0
LINE
  8
0
 62
     0
 10
8.84837
 20
87.7563
 30
0.0
 11
7.8686
 21
87.7563
 31
0.0
  0
LINE
  8
0
 62
     0
 10
7.8686
 20
87.7563
 30
0.0
 11
7.8686
 21
91.0565
 31
0.0
  0
LINE
  8
0
 62
     0
 10
7.8686
 20
91.0565
 30
0.0
 11
8.84837
 21
91.0565
 31
0.0
  0
LINE
  8
0
 62
     0
 10
8.84837
 20
91.0565
 30
0.0
 11
8.84837
 21
92.7806
 31
0.0
  0
LINE
  8
0
 62
     0
 10
8.84837
 20
92.7806
 30
0.0
 11
9.64904
 21
92.7806
 31
0.0
  0
LINE
  8
0
 62
     0
 10
9.64904
 20
92.7806
 30
0.0
 11
9.64904
 21
93.5563
 31
0.0
  0
LINE
  8
0
 62
     0
 10
9.64904
 20
93.5563
 30
0.0
 11
9.6187
 21
93.5563
 31
0.0
  0
LINE
  8
0
 62
     0
 10
9.6187
 20
93.5563
 30
0.0
 11
9.6187
 21
94.3557
 31
0.0
  0
LINE
  8
0
 62
     0
 10
9.6187
 20
94.3557
 30
0.0
 11
8.61826
 21
94.3557
 31
0.0
  0
LINE
  8
0
 62
     0
 10
8.61826
 20
94.3557
 30
0.0
 11
8.61826
 21
108.356
 31
0.0
  0
LINE
  8
0
 62
     0
 10
8.61826
 20
108.356
 30
0.0
 11
9.6187
 21
108.356
 31
0.0
  0
LINE
  8
0
 62
     0
 10
9.6187
 20
108.356
 30
0.0
 11
9.6187
 21
109.156
 31
0.0
  0
LINE
  8
0
 62
     0
 10
9.6187
 20
109.156
 30
0.0
 11
9.64904
 21
109.156
 31
0.0
  0
LINE
  8
0
 62
     0
 10
9.64904
 20
109.156
 30
0.0
 11
9.64904
 21
109.932
 31
0.0
  0
LINE
  8
0
 62
     0
 10
9.64904
 20
109.932
 30
0.0
 11
8.84837
 21
109.932
 31
0.0
  0
LINE
  8
0
 62
     0
 10
8.84837
 20
109.932
 30
0.0
 11
8.84837
 21
111.656
 31
0.0
  0
LINE
  8
0
 62
     0
 10
8.84837
 20
111.656
 30
0.0
 11
7.8686
 21
111.656
 31
0.0
  0
LINE
  8
0
 62
     0
 10
7.8686
 20
111.656
 30
0.0
 11
7.8686
 21
114.956
 31
0.0
  0
LINE
  8
0
 62
     0
 10
7.8686
 20
114.956
 30
0.0
 11
8.84837
 21
114.956
 31
0.0
  0
LINE
  8
0
 62
     0
 10
8.84837
 20
114.956
 30
0.0
 11
8.84837
 21
116.581
 31
0.0
  0
LINE
  8
0
 62
     0
 10
8.84837
 20
116.581
 30
0.0
 11
15.1185
 21
116.581
 31
0.0
  0
LINE
  8
0
 62
     0
 10
15.1185
 20
116.581
 30
0.0
 11
15.1185
 21
117.456
 31
0.0
  0
LINE
  8
0
 62
     0
 10
15.1185
 20
117.456
 30
0.0
 11
17.9186
 21
117.456
 31
0.0
  0
LINE
  8
0
 62
     0
 10
17.9186
 20
117.456
 30
0.0
 11
17.9186
 21
116.581
 31
0.0
  0
LINE
  8
0
 62
     0
 10
17.9186
 20
116.581
 30
0.0
 11
21.1487
 21
116.581
 31
0.0
  0
LINE
  8
0
 62
     0
 10
21.1487
 20
116.581
 30
0.0
 11
21.1487
 21
114.956
 31
0.0
  0
LINE
  8
0
 62
     0
 10
21.1487
 20
114.956
 30
0.0
 11
22.0693
 21
114.956
 31
0.0
  0
LINE
  8
0
 62
     0
 10
22.0693
 20
114.956
 30
0.0
 11
22.0693
 21
111.656
 31
0.0
  0
LINE
  8
0
 62
     0
 10
22.0693
 20
111.656
 30
0.0
 11
21.1487
 21
111.656
 31
0.0
  0
LINE
  8
0
 62
     0
 10
21.1487
 20
111.656
 30
0.0
 11
21.1487
 21
109.932
 31
0.0
  0
LINE
  8
0
 62
     0
 10
21.1487
 20
109.932
 30
0.0
 11
20.3481
 21
109.932
 31
0.0
  0
LINE
  8
0
 62
     0
 10
20.3481
 20
109.932
 30
0.0
 11
20.3481
 21
109.156
 31
0.0
  0
LINE
  8
0
 62
     0
 10
20.3481
 20
109.156
 30
0.0
 11
21.6187
 21
109.156
 31
0.0
  0
LINE
  8
0
 62
     0
 10
21.6187
 20
109.156
 30
0.0
 11
21.6187
 21
108.356
 31
0.0
  0
LINE
  8
0
 62
     0
 10
21.6187
 20
108.356
 30
0.0
 11
22.6191
 21
108.356
 31
0.0
  0
LINE
  8
0
 62
     0
 10
22.6191
 20
108.356
 30
0.0
 11
22.6191
 21
94.3557
 31
0.0
  0
LINE
  8
0
 62
     0
 10
22.6191
 20
94.3557
 30
0.0
 11
21.6187
 21
94.3557
 31
0.0
  0
LINE
  8
0
 62
     0
 10
25.0004
 20
9.63112
 30
0.0
 11
25.0004
 21
8.63064
 31
0.0
  0
LINE
  8
0
 62
     0
 10
25.0004
 20
8.63064
 30
0.0
 11
10.9995
 21
8.63064
 31
0.0
  0
LINE
  8
0
 62
     0
 10
10.9995
 20
8.63064
 30
0.0
 11
10.9995
 21
9.63112
 31
0.0
  0
LINE
  8
0
 62
     0
 10
10.9995
 20
9.63112
 30
0.0
 11
10.2003
 21
9.63112
 31
0.0
  0
LINE
  8
0
 62
     0
 10
10.2003
 20
9.63112
 30
0.0
 11
10.2003
 21
12.7317
 31
0.0
  0
LINE
  8
0
 62
     0
 10
10.2003
 20
12.7317
 30
0.0
 11
10.9995
 21
12.7317
 31
0.0
  0
LINE
  8
0
 62
     0
 10
10.9995
 20
12.7317
 30
0.0
 11
10.9995
 21
18.5305
 31
0.0
  0
LINE
  8
0
 62
     0
 10
10.9995
 20
18.5305
 30
0.0
 11
10.2003
 21
18.5305
 31
0.0
  0
LINE
  8
0
 62
     0
 10
10.2003
 20
18.5305
 30
0.0
 11
10.2003
 21
21.6311
 31
0.0
  0
LINE
  8
0
 62
     0
 10
10.2003
 20
21.6311
 30
0.0
 11
10.9995
 21
21.6311
 31
0.0
  0
LINE
  8
0
 62
     0
 10
10.9995
 20
21.6311
 30
0.0
 11
10.9995
 21
22.6315
 31
0.0
  0
LINE
  8
0
 62
     0
 10
10.9995
 20
22.6315
 30
0.0
 11
25.0004
 21
22.6315
 31
0.0
  0
LINE
  8
0
 62
     0
 10
25.0004
 20
22.6315
 30
0.0
 11
25.0004
 21
21.6311
 31
0.0
  0
LINE
  8
0
 62
     0
 10
25.0004
 20
21.6311
 30
0.0
 11
25.7996
 21
21.6311
 31
0.0
  0
LINE
  8
0
 62
     0
 10
25.7996
 20
21.6311
 30
0.0
 11
25.7996
 21
18.5305
 31
0.0
  0
LINE
  8
0
 62
     0
 10
25.7996
 20
18.5305
 30
0.0
 11
25.0004
 21
18.5305
 31
0.0
  0
LINE
  8
0
 62
     0
 10
25.0004
 20
18.5305
 30
0.0
 11
25.0004
 21
12.7317
 31
0.0
  0
LINE
  8
0
 62
     0
 10
25.0004
 20
12.7317
 30
0.0
 11
25.7996
 21
12.7317
 31
0.0
  0
LINE
  8
0
 62
     0
 10
25.7996
 20
12.7317
 30
0.0
 11
25.7996
 21
9.63112
 31
0.0
  0
LINE
  8
0
 62
     0
 10
25.7996
 20
9.63112
 30
0.0
 11
25.0004
 21
9.63112
 31
0.0
  0
LINE
  8
0
 62
     0
 10
27.3816
 20
66.7812
 30
0.0
 11
27.3816
 21
65.7807
 31
0.0
  0
LINE
  8
0
 62
     0
 10
27.3816
 20
65.7807
 30
0.0
 11
13.3821
 21
65.7807
 31
0.0
  0
LINE
  8
0
 62
     0
 10
13.3821
 20
65.7807
 30
0.0
 11
13.3821
 21
66.7812
 31
0.0
  0
LINE
  8
0
 62
     0
 10
13.3821
 20
66.7812
 30
0.0
 11
12.5815
 21
66.7812
 31
0.0
  0
LINE
  8
0
 62
     0
 10
12.5815
 20
66.7812
 30
0.0
 11
12.5815
 21
69.8817
 31
0.0
  0
LINE
  8
0
 62
     0
 10
12.5815
 20
69.8817
 30
0.0
 11
13.3821
 21
69.8817
 31
0.0
  0
LINE
  8
0
 62
     0
 10
13.3821
 20
69.8817
 30
0.0
 11
13.3821
 21
75.6804
 31
0.0
  0
LINE
  8
0
 62
     0
 10
13.3821
 20
75.6804
 30
0.0
 11
12.5815
 21
75.6804
 31
0.0
  0
LINE
  8
0
 62
     0
 10
12.5815
 20
75.6804
 30
0.0
 11
12.5815
 21
78.7809
 31
0.0
  0
LINE
  8
0
 62
     0
 10
12.5815
 20
78.7809
 30
0.0
 11
13.3821
 21
78.7809
 31
0.0
  0
LINE
  8
0
 62
     0
 10
13.3821
 20
78.7809
 30
0.0
 11
13.3821
 21
79.7814
 31
0.0
  0
LINE
  8
0
 62
     0
 10
13.3821
 20
79.7814
 30
0.0
 11
27.3816
 21
79.7814
 31
0.0
  0
LINE
  8
0
 62
     0
 10
27.3816
 20
79.7814
 30
0.0
 11
27.3816
 21
78.7809
 31
0.0
  0
LINE
  8
0
 62
     0
 10
27.3816
 20
78.7809
 30
0.0
 11
28.1809
 21
78.7809
 31
0.0
  0
LINE
  8
0
 62
     0
 10
28.1809
 20
78.7809
 30
0.0
 11
28.1809
 21
75.6804
 31
0.0
  0
LINE
  8
0
 62
     0
 10
28.1809
 20
75.6804
 30
0.0
 11
27.3816
 21
75.6804
 31
0.0
  0
LINE
  8
0
 62
     0
 10
27.3816
 20
75.6804
 30
0.0
 11
27.3816
 21
69.8817
 31
0.0
  0
LINE
  8
0
 62
     0
 10
27.3816
 20
69.8817
 30
0.0
 11
28.1809
 21
69.8817
 31
0.0
  0
LINE
  8
0
 62
     0
 10
28.1809
 20
69.8817
 30
0.0
 11
28.1809
 21
66.7812
 31
0.0
  0
LINE
  8
0
 62
     0
 10
28.1809
 20
66.7812
 30
0.0
 11
27.3816
 21
66.7812
 31
0.0
  0
LINE
  8
0
 62
     0
 10
29.7629
 20
47.7312
 30
0.0
 11
29.7629
 21
46.7307
 31
0.0
  0
LINE
  8
0
 62
     0
 10
29.7629
 20
46.7307
 30
0.0
 11
15.7634
 21
46.7307
 31
0.0
  0
LINE
  8
0
 62
     0
 10
15.7634
 20
46.7307
 30
0.0
 11
15.7634
 21
47.7312
 31
0.0
  0
LINE
  8
0
 62
     0
 10
15.7634
 20
47.7312
 30
0.0
 11
14.9628
 21
47.7312
 31
0.0
  0
LINE
  8
0
 62
     0
 10
14.9628
 20
47.7312
 30
0.0
 11
14.9628
 21
50.8317
 31
0.0
  0
LINE
  8
0
 62
     0
 10
14.9628
 20
50.8317
 30
0.0
 11
15.7634
 21
50.8317
 31
0.0
  0
LINE
  8
0
 62
     0
 10
15.7634
 20
50.8317
 30
0.0
 11
15.7634
 21
56.6304
 31
0.0
  0
LINE
  8
0
 62
     0
 10
15.7634
 20
56.6304
 30
0.0
 11
14.9628
 21
56.6304
 31
0.0
  0
LINE
  8
0
 62
     0
 10
14.9628
 20
56.6304
 30
0.0
 11
14.9628
 21
59.7309
 31
0.0
  0
LINE
  8
0
 62
     0
 10
14.9628
 20
59.7309
 30
0.0
 11
15.7634
 21
59.7309
 31
0.0
  0
LINE
  8
0
 62
     0
 10
15.7634
 20
59.7309
 30
0.0
 11
15.7634
 21
60.7314
 31
0.0
  0
LINE
  8
0
 62
     0
 10
15.7634
 20
60.7314
 30
0.0
 11
29.7629
 21
60.7314
 31
0.0
  0
LINE
  8
0
 62
     0
 10
29.7629
 20
60.7314
 30
0.0
 11
29.7629
 21
59.7309
 31
0.0
  0
LINE
  8
0
 62
     0
 10
29.7629
 20
59.7309
 30
0.0
 11
30.5621
 21
59.7309
 31
0.0
  0
LINE
  8
0
 62
     0
 10
30.5621
 20
59.7309
 30
0.0
 11
30.5621
 21
56.6304
 31
0.0
  0
LINE
  8
0
 62
     0
 10
30.5621
 20
56.6304
 30
0.0
 11
29.7629
 21
56.6304
 31
0.0
  0
LINE
  8
0
 62
     0
 10
29.7629
 20
56.6304
 30
0.0
 11
29.7629
 21
50.8317
 31
0.0
  0
LINE
  8
0
 62
     0
 10
29.7629
 20
50.8317
 30
0.0
 11
30.5621
 21
50.8317
 31
0.0
  0
LINE
  8
0
 62
     0
 10
30.5621
 20
50.8317
 30
0.0
 11
30.5621
 21
47.7312
 31
0.0
  0
LINE
  8
0
 62
     0
 10
30.5621
 20
47.7312
 30
0.0
 11
29.7629
 21
47.7312
 31
0.0
  0
LINE
  8
0
 62
     0
 10
41.6691
 20
104.881
 30
0.0
 11
41.6691
 21
103.881
 31
0.0
  0
LINE
  8
0
 62
     0
 10
41.6691
 20
103.881
 30
0.0
 11
27.6683
 21
103.881
 31
0.0
  0
LINE
  8
0
 62
     0
 10
27.6683
 20
103.881
 30
0.0
 11
27.6683
 21
104.881
 31
0.0
  0
LINE
  8
0
 62
     0
 10
27.6683
 20
104.881
 30
0.0
 11
26.869
 21
104.881
 31
0.0
  0
LINE
  8
0
 62
     0
 10
26.869
 20
104.881
 30
0.0
 11
26.869
 21
107.982
 31
0.0
  0
LINE
  8
0
 62
     0
 10
26.869
 20
107.982
 30
0.0
 11
27.6683
 21
107.982
 31
0.0
  0
LINE
  8
0
 62
     0
 10
27.6683
 20
107.982
 30
0.0
 11
27.6683
 21
113.78
 31
0.0
  0
LINE
  8
0
 62
     0
 10
27.6683
 20
113.78
 30
0.0
 11
26.869
 21
113.78
 31
0.0
  0
LINE
  8
0
 62
     0
 10
26.869
 20
113.78
 30
0.0
 11
26.869
 21
116.881
 31
0.0
  0
LINE
  8
0
 62
     0
 10
26.869
 20
116.881
 30
0.0
 11
27.6683
 21
116.881
 31
0.0
  0
LINE
  8
0
 62
     0
 10
27.6683
 20
116.881
 30
0.0
 11
27.6683
 21
117.881
 31
0.0
  0
LINE
  8
0
 62
     0
 10
27.6683
 20
117.881
 30
0.0
 11
41.6691
 21
117.881
 31
0.0
  0
LINE
  8
0
 62
     0
 10
41.6691
 20
117.881
 30
0.0
 11
41.6691
 21
116.881
 31
0.0
  0
LINE
  8
0
 62
     0
 10
41.6691
 20
116.881
 30
0.0
 11
42.4684
 21
116.881
 31
0.0
  0
LINE
  8
0
 62
     0
 10
42.4684
 20
116.881
 30
0.0
 11
42.4684
 21
113.78
 31
0.0
  0
LINE
  8
0
 62
     0
 10
42.4684
 20
113.78
 30
0.0
 11
41.6691
 21
113.78
 31
0.0
  0
LINE
  8
0
 62
     0
 10
41.6691
 20
113.78
 30
0.0
 11
41.6691
 21
107.982
 31
0.0
  0
LINE
  8
0
 62
     0
 10
41.6691
 20
107.982
 30
0.0
 11
42.4684
 21
107.982
 31
0.0
  0
LINE
  8
0
 62
     0
 10
42.4684
 20
107.982
 30
0.0
 11
42.4684
 21
104.881
 31
0.0
  0
LINE
  8
0
 62
     0
 10
42.4684
 20
104.881
 30
0.0
 11
41.6691
 21
104.881
 31
0.0
  0
LINE
  8
0
 62
     0
 10
41.6691
 20
85.8312
 30
0.0
 11
41.6691
 21
84.8307
 31
0.0
  0
LINE
  8
0
 62
     0
 10
41.6691
 20
84.8307
 30
0.0
 11
27.6683
 21
84.8307
 31
0.0
  0
LINE
  8
0
 62
     0
 10
27.6683
 20
84.8307
 30
0.0
 11
27.6683
 21
85.8312
 31
0.0
  0
LINE
  8
0
 62
     0
 10
27.6683
 20
85.8312
 30
0.0
 11
26.869
 21
85.8312
 31
0.0
  0
LINE
  8
0
 62
     0
 10
26.869
 20
85.8312
 30
0.0
 11
26.869
 21
88.9317
 31
0.0
  0
LINE
  8
0
 62
     0
 10
26.869
 20
88.9317
 30
0.0
 11
27.6683
 21
88.9317
 31
0.0
  0
LINE
  8
0
 62
     0
 10
27.6683
 20
88.9317
 30
0.0
 11
27.6683
 21
94.7304
 31
0.0
  0
LINE
  8
0
 62
     0
 10
27.6683
 20
94.7304
 30
0.0
 11
26.869
 21
94.7304
 31
0.0
  0
LINE
  8
0
 62
     0
 10
26.869
 20
94.7304
 30
0.0
 11
26.869
 21
97.8309
 31
0.0
  0
LINE
  8
0
 62
     0
 10
26.869
 20
97.8309
 30
0.0
 11
27.6683
 21
97.8309
 31
0.0
  0
LINE
  8
0
 62
     0
 10
27.6683
 20
97.8309
 30
0.0
 11
27.6683
 21
98.8314
 31
0.0
  0
LINE
  8
0
 62
     0
 10
27.6683
 20
98.8314
 30
0.0
 11
41.6691
 21
98.8314
 31
0.0
  0
LINE
  8
0
 62
     0
 10
41.6691
 20
98.8314
 30
0.0
 11
41.6691
 21
97.8309
 31
0.0
  0
LINE
  8
0
 62
     0
 10
41.6691
 20
97.8309
 30
0.0
 11
42.4684
 21
97.8309
 31
0.0
  0
LINE
  8
0
 62
     0
 10
42.4684
 20
97.8309
 30
0.0
 11
42.4684
 21
94.7304
 31
0.0
  0
LINE
  8
0
 62
     0
 10
42.4684
 20
94.7304
 30
0.0
 11
41.6691
 21
94.7304
 31
0.0
  0
LINE
  8
0
 62
     0
 10
41.6691
 20
94.7304
 30
0.0
 11
41.6691
 21
88.9317
 31
0.0
  0
LINE
  8
0
 62
     0
 10
41.6691
 20
88.9317
 30
0.0
 11
42.4684
 21
88.9317
 31
0.0
  0
LINE
  8
0
 62
     0
 10
42.4684
 20
88.9317
 30
0.0
 11
42.4684
 21
85.8312
 31
0.0
  0
LINE
  8
0
 62
     0
 10
42.4684
 20
85.8312
 30
0.0
 11
41.6691
 21
85.8312
 31
0.0
  0
LINE
  8
0
 62
     0
 10
42.7496
 20
34.1809
 30
0.0
 11
42.7496
 21
27.9108
 31
0.0
  0
LINE
  8
0
 62
     0
 10
42.7496
 20
27.9108
 30
0.0
 11
41.1247
 21
27.9108
 31
0.0
  0
LINE
  8
0
 62
     0
 10
41.1247
 20
27.9108
 30
0.0
 11
41.1247
 21
26.931
 31
0.0
  0
LINE
  8
0
 62
     0
 10
41.1247
 20
26.931
 30
0.0
 11
37.8245
 21
26.931
 31
0.0
  0
LINE
  8
0
 62
     0
 10
37.8245
 20
26.931
 30
0.0
 11
37.8245
 21
27.9108
 31
0.0
  0
LINE
  8
0
 62
     0
 10
37.8245
 20
27.9108
 30
0.0
 11
36.099
 21
27.9108
 31
0.0
  0
LINE
  8
0
 62
     0
 10
36.099
 20
27.9108
 30
0.0
 11
36.099
 21
28.7114
 31
0.0
  0
LINE
  8
0
 62
     0
 10
36.099
 20
28.7114
 30
0.0
 11
35.3247
 21
28.7114
 31
0.0
  0
LINE
  8
0
 62
     0
 10
35.3247
 20
28.7114
 30
0.0
 11
35.3247
 21
28.6811
 31
0.0
  0
LINE
  8
0
 62
     0
 10
35.3247
 20
28.6811
 30
0.0
 11
34.5254
 21
28.6811
 31
0.0
  0
LINE
  8
0
 62
     0
 10
34.5254
 20
28.6811
 30
0.0
 11
34.5254
 21
27.6806
 31
0.0
  0
LINE
  8
0
 62
     0
 10
34.5254
 20
27.6806
 30
0.0
 11
20.5245
 21
27.6806
 31
0.0
  0
LINE
  8
0
 62
     0
 10
20.5245
 20
27.6806
 30
0.0
 11
20.5245
 21
28.6811
 31
0.0
  0
LINE
  8
0
 62
     0
 10
20.5245
 20
28.6811
 30
0.0
 11
19.7253
 21
28.6811
 31
0.0
  0
LINE
  8
0
 62
     0
 10
19.7253
 20
28.6811
 30
0.0
 11
19.7253
 21
28.7114
 31
0.0
  0
LINE
  8
0
 62
     0
 10
19.7253
 20
28.7114
 30
0.0
 11
18.9494
 21
28.7114
 31
0.0
  0
LINE
  8
0
 62
     0
 10
18.9494
 20
28.7114
 30
0.0
 11
18.9494
 21
27.9108
 31
0.0
  0
LINE
  8
0
 62
     0
 10
18.9494
 20
27.9108
 30
0.0
 11
17.2241
 21
27.9108
 31
0.0
  0
LINE
  8
0
 62
     0
 10
17.2241
 20
27.9108
 30
0.0
 11
17.2241
 21
26.931
 31
0.0
  0
LINE
  8
0
 62
     0
 10
17.2241
 20
26.931
 30
0.0
 11
13.9251
 21
26.931
 31
0.0
  0
LINE
  8
0
 62
     0
 10
13.9251
 20
26.931
 30
0.0
 11
13.9251
 21
27.9108
 31
0.0
  0
LINE
  8
0
 62
     0
 10
13.9251
 20
27.9108
 30
0.0
 11
12.3004
 21
27.9108
 31
0.0
  0
LINE
  8
0
 62
     0
 10
12.3004
 20
27.9108
 30
0.0
 11
12.3004
 21
34.1809
 31
0.0
  0
LINE
  8
0
 62
     0
 10
12.3004
 20
34.1809
 30
0.0
 11
11.4253
 21
34.1809
 31
0.0
  0
LINE
  8
0
 62
     0
 10
11.4253
 20
34.1809
 30
0.0
 11
11.4253
 21
36.981
 31
0.0
  0
LINE
  8
0
 62
     0
 10
11.4253
 20
36.981
 30
0.0
 11
12.3004
 21
36.981
 31
0.0
  0
LINE
  8
0
 62
     0
 10
12.3004
 20
36.981
 30
0.0
 11
12.3004
 21
40.211
 31
0.0
  0
LINE
  8
0
 62
     0
 10
12.3004
 20
40.211
 30
0.0
 11
13.9251
 21
40.211
 31
0.0
  0
LINE
  8
0
 62
     0
 10
13.9251
 20
40.211
 30
0.0
 11
13.9251
 21
41.1318
 31
0.0
  0
LINE
  8
0
 62
     0
 10
13.9251
 20
41.1318
 30
0.0
 11
17.2241
 21
41.1318
 31
0.0
  0
LINE
  8
0
 62
     0
 10
17.2241
 20
41.1318
 30
0.0
 11
17.2241
 21
40.211
 31
0.0
  0
LINE
  8
0
 62
     0
 10
17.2241
 20
40.211
 30
0.0
 11
18.9494
 21
40.211
 31
0.0
  0
LINE
  8
0
 62
     0
 10
18.9494
 20
40.211
 30
0.0
 11
18.9494
 21
39.4106
 31
0.0
  0
LINE
  8
0
 62
     0
 10
18.9494
 20
39.4106
 30
0.0
 11
19.7253
 21
39.4106
 31
0.0
  0
LINE
  8
0
 62
     0
 10
19.7253
 20
39.4106
 30
0.0
 11
19.7253
 21
40.6809
 31
0.0
  0
LINE
  8
0
 62
     0
 10
19.7253
 20
40.6809
 30
0.0
 11
20.5245
 21
40.6809
 31
0.0
  0
LINE
  8
0
 62
     0
 10
20.5245
 20
40.6809
 30
0.0
 11
20.5245
 21
41.6814
 31
0.0
  0
LINE
  8
0
 62
     0
 10
20.5245
 20
41.6814
 30
0.0
 11
34.5254
 21
41.6814
 31
0.0
  0
LINE
  8
0
 62
     0
 10
34.5254
 20
41.6814
 30
0.0
 11
34.5254
 21
40.6809
 31
0.0
  0
LINE
  8
0
 62
     0
 10
34.5254
 20
40.6809
 30
0.0
 11
35.3247
 21
40.6809
 31
0.0
  0
LINE
  8
0
 62
     0
 10
35.3247
 20
40.6809
 30
0.0
 11
35.3247
 21
39.4106
 31
0.0
  0
LINE
  8
0
 62
     0
 10
35.3247
 20
39.4106
 30
0.0
 11
36.099
 21
39.4106
 31
0.0
  0
LINE
  8
0
 62
     0
 10
36.099
 20
39.4106
 30
0.0
 11
36.099
 21
40.211
 31
0.0
  0
LINE
  8
0
 62
     0
 10
36.099
 20
40.211
 30
0.0
 11
37.8245
 21
40.211
 31
0.0
  0
LINE
  8
0
 62
     0
 10
37.8245
 20
40.211
 30
0.0
 11
37.8245
 21
41.1318
 31
0.0
  0
LINE
  8
0
 62
     0
 10
37.8245
 20
41.1318
 30
0.0
 11
41.1247
 21
41.1318
 31
0.0
  0
LINE
  8
0
 62
     0
 10
41.1247
 20
41.1318
 30
0.0
 11
41.1247
 21
40.211
 31
0.0
  0
LINE
  8
0
 62
     0
 10
41.1247
 20
40.211
 30
0.0
 11
42.7496
 21
40.211
 31
0.0
  0
LINE
  8
0
 62
     0
 10
42.7496
 20
40.211
 30
0.0
 11
42.7496
 21
36.981
 31
0.0
  0
LINE
  8
0
 62
     0
 10
42.7496
 20
36.981
 30
0.0
 11
43.6245
 21
36.981
 31
0.0
  0
LINE
  8
0
 62
     0
 10
43.6245
 20
36.981
 30
0.0
 11
43.6245
 21
34.1809
 31
0.0
  0
LINE
  8
0
 62
     0
 10
43.6245
 20
34.1809
 30
0.0
 11
42.7496
 21
34.1809
 31
0.0
  0
LINE
  8
0
 62
     0
 10
48.8128
 20
9.63112
 30
0.0
 11
48.8128
 21
8.63064
 31
0.0
  0
LINE
  8
0
 62
     0
 10
48.8128
 20
8.63064
 30
0.0
 11
34.8134
 21
8.63064
 31
0.0
  0
LINE
  8
0
 62
     0
 10
34.8134
 20
8.63064
 30
0.0
 11
34.8134
 21
9.63112
 31
0.0
  0
LINE
  8
0
 62
     0
 10
34.8134
 20
9.63112
 30
0.0
 11
34.0128
 21
9.63112
 31
0.0
  0
LINE
  8
0
 62
     0
 10
34.0128
 20
9.63112
 30
0.0
 11
34.0128
 21
12.7317
 31
0.0
  0
LINE
  8
0
 62
     0
 10
34.0128
 20
12.7317
 30
0.0
 11
34.8134
 21
12.7317
 31
0.0
  0
LINE
  8
0
 62
     0
 10
34.8134
 20
12.7317
 30
0.0
 11
34.8134
 21
18.5305
 31
0.0
  0
LINE
  8
0
 62
     0
 10
34.8134
 20
18.5305
 30
0.0
 11
34.0128
 21
18.5305
 31
0.0
  0
LINE
  8
0
 62
     0
 10
34.0128
 20
18.5305
 30
0.0
 11
34.0128
 21
21.6311
 31
0.0
  0
LINE
  8
0
 62
     0
 10
34.0128
 20
21.6311
 30
0.0
 11
34.8134
 21
21.6311
 31
0.0
  0
LINE
  8
0
 62
     0
 10
34.8134
 20
21.6311
 30
0.0
 11
34.8134
 21
22.6315
 31
0.0
  0
LINE
  8
0
 62
     0
 10
34.8134
 20
22.6315
 30
0.0
 11
48.8128
 21
22.6315
 31
0.0
  0
LINE
  8
0
 62
     0
 10
48.8128
 20
22.6315
 30
0.0
 11
48.8128
 21
21.6311
 31
0.0
  0
LINE
  8
0
 62
     0
 10
48.8128
 20
21.6311
 30
0.0
 11
49.6122
 21
21.6311
 31
0.0
  0
LINE
  8
0
 62
     0
 10
49.6122
 20
21.6311
 30
0.0
 11
49.6122
 21
18.5305
 31
0.0
  0
LINE
  8
0
 62
     0
 10
49.6122
 20
18.5305
 30
0.0
 11
48.8128
 21
18.5305
 31
0.0
  0
LINE
  8
0
 62
     0
 10
48.8128
 20
18.5305
 30
0.0
 11
48.8128
 21
12.7317
 31
0.0
  0
LINE
  8
0
 62
     0
 10
48.8128
 20
12.7317
 30
0.0
 11
49.6122
 21
12.7317
 31
0.0
  0
LINE
  8
0
 62
     0
 10
49.6122
 20
12.7317
 30
0.0
 11
49.6122
 21
9.63112
 31
0.0
  0
LINE
  8
0
 62
     0
 10
49.6122
 20
9.63112
 30
0.0
 11
48.8128
 21
9.63112
 31
0.0
  0
LINE
  8
0
 62
     0
 10
51.1941
 20
66.7812
 30
0.0
 11
51.1941
 21
65.7807
 31
0.0
  0
LINE
  8
0
 62
     0
 10
51.1941
 20
65.7807
 30
0.0
 11
37.1934
 21
65.7807
 31
0.0
  0
LINE
  8
0
 62
     0
 10
37.1934
 20
65.7807
 30
0.0
 11
37.1934
 21
66.7812
 31
0.0
  0
LINE
  8
0
 62
     0
 10
37.1934
 20
66.7812
 30
0.0
 11
36.394
 21
66.7812
 31
0.0
  0
LINE
  8
0
 62
     0
 10
36.394
 20
66.7812
 30
0.0
 11
36.394
 21
69.8817
 31
0.0
  0
LINE
  8
0
 62
     0
 10
36.394
 20
69.8817
 30
0.0
 11
37.1934
 21
69.8817
 31
0.0
  0
LINE
  8
0
 62
     0
 10
37.1934
 20
69.8817
 30
0.0
 11
37.1934
 21
75.6804
 31
0.0
  0
LINE
  8
0
 62
     0
 10
37.1934
 20
75.6804
 30
0.0
 11
36.394
 21
75.6804
 31
0.0
  0
LINE
  8
0
 62
     0
 10
36.394
 20
75.6804
 30
0.0
 11
36.394
 21
78.7809
 31
0.0
  0
LINE
  8
0
 62
     0
 10
36.394
 20
78.7809
 30
0.0
 11
37.1934
 21
78.7809
 31
0.0
  0
LINE
  8
0
 62
     0
 10
37.1934
 20
78.7809
 30
0.0
 11
37.1934
 21
79.7814
 31
0.0
  0
LINE
  8
0
 62
     0
 10
37.1934
 20
79.7814
 30
0.0
 11
51.1941
 21
79.7814
 31
0.0
  0
LINE
  8
0
 62
     0
 10
51.1941
 20
79.7814
 30
0.0
 11
51.1941
 21
78.7809
 31
0.0
  0
LINE
  8
0
 62
     0
 10
51.1941
 20
78.7809
 30
0.0
 11
51.9934
 21
78.7809
 31
0.0
  0
LINE
  8
0
 62
     0
 10
51.9934
 20
78.7809
 30
0.0
 11
51.9934
 21
75.6804
 31
0.0
  0
LINE
  8
0
 62
     0
 10
51.9934
 20
75.6804
 30
0.0
 11
51.1941
 21
75.6804
 31
0.0
  0
LINE
  8
0
 62
     0
 10
51.1941
 20
75.6804
 30
0.0
 11
51.1941
 21
69.8817
 31
0.0
  0
LINE
  8
0
 62
     0
 10
51.1941
 20
69.8817
 30
0.0
 11
51.9934
 21
69.8817
 31
0.0
  0
LINE
  8
0
 62
     0
 10
51.9934
 20
69.8817
 30
0.0
 11
51.9934
 21
66.7812
 31
0.0
  0
LINE
  8
0
 62
     0
 10
51.9934
 20
66.7812
 30
0.0
 11
51.1941
 21
66.7812
 31
0.0
  0
LINE
  8
0
 62
     0
 10
55.9551
 20
47.7312
 30
0.0
 11
55.9551
 21
46.7307
 31
0.0
  0
LINE
  8
0
 62
     0
 10
55.9551
 20
46.7307
 30
0.0
 11
41.9559
 21
46.7307
 31
0.0
  0
LINE
  8
0
 62
     0
 10
41.9559
 20
46.7307
 30
0.0
 11
41.9559
 21
47.7312
 31
0.0
  0
LINE
  8
0
 62
     0
 10
41.9559
 20
47.7312
 30
0.0
 11
41.1551
 21
47.7312
 31
0.0
  0
LINE
  8
0
 62
     0
 10
41.1551
 20
47.7312
 30
0.0
 11
41.1551
 21
50.8317
 31
0.0
  0
LINE
  8
0
 62
     0
 10
41.1551
 20
50.8317
 30
0.0
 11
41.9559
 21
50.8317
 31
0.0
  0
LINE
  8
0
 62
     0
 10
41.9559
 20
50.8317
 30
0.0
 11
41.9559
 21
56.6304
 31
0.0
  0
LINE
  8
0
 62
     0
 10
41.9559
 20
56.6304
 30
0.0
 11
41.1551
 21
56.6304
 31
0.0
  0
LINE
  8
0
 62
     0
 10
41.1551
 20
56.6304
 30
0.0
 11
41.1551
 21
59.7309
 31
0.0
  0
LINE
  8
0
 62
     0
 10
41.1551
 20
59.7309
 30
0.0
 11
41.9559
 21
59.7309
 31
0.0
  0
LINE
  8
0
 62
     0
 10
41.9559
 20
59.7309
 30
0.0
 11
41.9559
 21
60.7314
 31
0.0
  0
LINE
  8
0
 62
     0
 10
41.9559
 20
60.7314
 30
0.0
 11
55.9551
 21
60.7314
 31
0.0
  0
LINE
  8
0
 62
     0
 10
55.9551
 20
60.7314
 30
0.0
 11
55.9551
 21
59.7309
 31
0.0
  0
LINE
  8
0
 62
     0
 10
55.9551
 20
59.7309
 30
0.0
 11
56.7559
 21
59.7309
 31
0.0
  0
LINE
  8
0
 62
     0
 10
56.7559
 20
59.7309
 30
0.0
 11
56.7559
 21
56.6304
 31
0.0
  0
LINE
  8
0
 62
     0
 10
56.7559
 20
56.6304
 30
0.0
 11
55.9551
 21
56.6304
 31
0.0
  0
LINE
  8
0
 62
     0
 10
55.9551
 20
56.6304
 30
0.0
 11
55.9551
 21
50.8317
 31
0.0
  0
LINE
  8
0
 62
     0
 10
55.9551
 20
50.8317
 30
0.0
 11
56.7559
 21
50.8317
 31
0.0
  0
LINE
  8
0
 62
     0
 10
56.7559
 20
50.8317
 30
0.0
 11
56.7559
 21
47.7312
 31
0.0
  0
LINE
  8
0
 62
     0
 10
56.7559
 20
47.7312
 30
0.0
 11
55.9551
 21
47.7312
 31
0.0
  0
LINE
  8
0
 62
     0
 10
60.7191
 20
104.881
 30
0.0
 11
60.7191
 21
103.881
 31
0.0
  0
LINE
  8
0
 62
     0
 10
60.7191
 20
103.881
 30
0.0
 11
46.7184
 21
103.881
 31
0.0
  0
LINE
  8
0
 62
     0
 10
46.7184
 20
103.881
 30
0.0
 11
46.7184
 21
104.881
 31
0.0
  0
LINE
  8
0
 62
     0
 10
46.7184
 20
104.881
 30
0.0
 11
45.919
 21
104.881
 31
0.0
  0
LINE
  8
0
 62
     0
 10
45.919
 20
104.881
 30
0.0
 11
45.919
 21
107.982
 31
0.0
  0
LINE
  8
0
 62
     0
 10
45.919
 20
107.982
 30
0.0
 11
46.7184
 21
107.982
 31
0.0
  0
LINE
  8
0
 62
     0
 10
46.7184
 20
107.982
 30
0.0
 11
46.7184
 21
113.78
 31
0.0
  0
LINE
  8
0
 62
     0
 10
46.7184
 20
113.78
 30
0.0
 11
45.919
 21
113.78
 31
0.0
  0
LINE
  8
0
 62
     0
 10
45.919
 20
113.78
 30
0.0
 11
45.919
 21
116.881
 31
0.0
  0
LINE
  8
0
 62
     0
 10
45.919
 20
116.881
 30
0.0
 11
46.7184
 21
116.881
 31
0.0
  0
LINE
  8
0
 62
     0
 10
46.7184
 20
116.881
 30
0.0
 11
46.7184
 21
117.881
 31
0.0
  0
LINE
  8
0
 62
     0
 10
46.7184
 20
117.881
 30
0.0
 11
60.7191
 21
117.881
 31
0.0
  0
LINE
  8
0
 62
     0
 10
60.7191
 20
117.881
 30
0.0
 11
60.7191
 21
116.881
 31
0.0
  0
LINE
  8
0
 62
     0
 10
60.7191
 20
116.881
 30
0.0
 11
61.5184
 21
116.881
 31
0.0
  0
LINE
  8
0
 62
     0
 10
61.5184
 20
116.881
 30
0.0
 11
61.5184
 21
113.78
 31
0.0
  0
LINE
  8
0
 62
     0
 10
61.5184
 20
113.78
 30
0.0
 11
60.7191
 21
113.78
 31
0.0
  0
LINE
  8
0
 62
     0
 10
60.7191
 20
113.78
 30
0.0
 11
60.7191
 21
107.982
 31
0.0
  0
LINE
  8
0
 62
     0
 10
60.7191
 20
107.982
 30
0.0
 11
61.5184
 21
107.982
 31
0.0
  0
LINE
  8
0
 62
     0
 10
61.5184
 20
107.982
 30
0.0
 11
61.5184
 21
104.881
 31
0.0
  0
LINE
  8
0
 62
     0
 10
61.5184
 20
104.881
 30
0.0
 11
60.7191
 21
104.881
 31
0.0
  0
LINE
  8
0
 62
     0
 10
60.7191
 20
85.8312
 30
0.0
 11
60.7191
 21
84.8307
 31
0.0
  0
LINE
  8
0
 62
     0
 10
60.7191
 20
84.8307
 30
0.0
 11
46.7184
 21
84.8307
 31
0.0
  0
LINE
  8
0
 62
     0
 10
46.7184
 20
84.8307
 30
0.0
 11
46.7184
 21
85.8312
 31
0.0
  0
LINE
  8
0
 62
     0
 10
46.7184
 20
85.8312
 30
0.0
 11
45.919
 21
85.8312
 31
0.0
  0
LINE
  8
0
 62
     0
 10
45.919
 20
85.8312
 30
0.0
 11
45.919
 21
88.9317
 31
0.0
  0
LINE
  8
0
 62
     0
 10
45.919
 20
88.9317
 30
0.0
 11
46.7184
 21
88.9317
 31
0.0
  0
LINE
  8
0
 62
     0
 10
46.7184
 20
88.9317
 30
0.0
 11
46.7184
 21
94.7304
 31
0.0
  0
LINE
  8
0
 62
     0
 10
46.7184
 20
94.7304
 30
0.0
 11
45.919
 21
94.7304
 31
0.0
  0
LINE
  8
0
 62
     0
 10
45.919
 20
94.7304
 30
0.0
 11
45.919
 21
97.8309
 31
0.0
  0
LINE
  8
0
 62
     0
 10
45.919
 20
97.8309
 30
0.0
 11
46.7184
 21
97.8309
 31
0.0
  0
LINE
  8
0
 62
     0
 10
46.7184
 20
97.8309
 30
0.0
 11
46.7184
 21
98.8314
 31
0.0
  0
LINE
  8
0
 62
     0
 10
46.7184
 20
98.8314
 30
0.0
 11
60.7191
 21
98.8314
 31
0.0
  0
LINE
  8
0
 62
     0
 10
60.7191
 20
98.8314
 30
0.0
 11
60.7191
 21
97.8309
 31
0.0
  0
LINE
  8
0
 62
     0
 10
60.7191
 20
97.8309
 30
0.0
 11
61.5184
 21
97.8309
 31
0.0
  0
LINE
  8
0
 62
     0
 10
61.5184
 20
97.8309
 30
0.0
 11
61.5184
 21
94.7304
 31
0.0
  0
LINE
  8
0
 62
     0
 10
61.5184
 20
94.7304
 30
0.0
 11
60.7191
 21
94.7304
 31
0.0
  0
LINE
  8
0
 62
     0
 10
60.7191
 20
94.7304
 30
0.0
 11
60.7191
 21
88.9317
 31
0.0
  0
LINE
  8
0
 62
     0
 10
60.7191
 20
88.9317
 30
0.0
 11
61.5184
 21
88.9317
 31
0.0
  0
LINE
  8
0
 62
     0
 10
61.5184
 20
88.9317
 30
0.0
 11
61.5184
 21
85.8312
 31
0.0
  0
LINE
  8
0
 62
     0
 10
61.5184
 20
85.8312
 30
0.0
 11
60.7191
 21
85.8312
 31
0.0
  0
LINE
  8
0
 62
     0
 10
65.4816
 20
28.6811
 30
0.0
 11
65.4816
 21
27.6806
 31
0.0
  0
LINE
  8
0
 62
     0
 10
65.4816
 20
27.6806
 30
0.0
 11
51.4823
 21
27.6806
 31
0.0
  0
LINE
  8
0
 62
     0
 10
51.4823
 20
27.6806
 30
0.0
 11
51.4823
 21
28.6811
 31
0.0
  0
LINE
  8
0
 62
     0
 10
51.4823
 20
28.6811
 30
0.0
 11
50.6815
 21
28.6811
 31
0.0
  0
LINE
  8
0
 62
     0
 10
50.6815
 20
28.6811
 30
0.0
 11
50.6815
 21
31.7817
 31
0.0
  0
LINE
  8
0
 62
     0
 10
50.6815
 20
31.7817
 30
0.0
 11
51.4823
 21
31.7817
 31
0.0
  0
LINE
  8
0
 62
     0
 10
51.4823
 20
31.7817
 30
0.0
 11
51.4823
 21
37.5804
 31
0.0
  0
LINE
  8
0
 62
     0
 10
51.4823
 20
37.5804
 30
0.0
 11
50.6815
 21
37.5804
 31
0.0
  0
LINE
  8
0
 62
     0
 10
50.6815
 20
37.5804
 30
0.0
 11
50.6815
 21
40.6809
 31
0.0
  0
LINE
  8
0
 62
     0
 10
50.6815
 20
40.6809
 30
0.0
 11
51.4823
 21
40.6809
 31
0.0
  0
LINE
  8
0
 62
     0
 10
51.4823
 20
40.6809
 30
0.0
 11
51.4823
 21
41.6814
 31
0.0
  0
LINE
  8
0
 62
     0
 10
51.4823
 20
41.6814
 30
0.0
 11
65.4816
 21
41.6814
 31
0.0
  0
LINE
  8
0
 62
     0
 10
65.4816
 20
41.6814
 30
0.0
 11
65.4816
 21
40.6809
 31
0.0
  0
LINE
  8
0
 62
     0
 10
65.4816
 20
40.6809
 30
0.0
 11
66.2824
 21
40.6809
 31
0.0
  0
LINE
  8
0
 62
     0
 10
66.2824
 20
40.6809
 30
0.0
 11
66.2824
 21
37.5804
 31
0.0
  0
LINE
  8
0
 62
     0
 10
66.2824
 20
37.5804
 30
0.0
 11
65.4816
 21
37.5804
 31
0.0
  0
LINE
  8
0
 62
     0
 10
65.4816
 20
37.5804
 30
0.0
 11
65.4816
 21
31.7817
 31
0.0
  0
LINE
  8
0
 62
     0
 10
65.4816
 20
31.7817
 30
0.0
 11
66.2824
 21
31.7817
 31
0.0
  0
LINE
  8
0
 62
     0
 10
66.2824
 20
31.7817
 30
0.0
 11
66.2824
 21
28.6811
 31
0.0
  0
LINE
  8
0
 62
     0
 10
66.2824
 20
28.6811
 30
0.0
 11
65.4816
 21
28.6811
 31
0.0
  0
LINE
  8
0
 62
     0
 10
70.2441
 20
66.7812
 30
0.0
 11
70.2441
 21
65.7807
 31
0.0
  0
LINE
  8
0
 62
     0
 10
70.2441
 20
65.7807
 30
0.0
 11
56.2434
 21
65.7807
 31
0.0
  0
LINE
  8
0
 62
     0
 10
56.2434
 20
65.7807
 30
0.0
 11
56.2434
 21
66.7812
 31
0.0
  0
LINE
  8
0
 62
     0
 10
56.2434
 20
66.7812
 30
0.0
 11
55.444
 21
66.7812
 31
0.0
  0
LINE
  8
0
 62
     0
 10
55.444
 20
66.7812
 30
0.0
 11
55.444
 21
69.8817
 31
0.0
  0
LINE
  8
0
 62
     0
 10
55.444
 20
69.8817
 30
0.0
 11
56.2434
 21
69.8817
 31
0.0
  0
LINE
  8
0
 62
     0
 10
56.2434
 20
69.8817
 30
0.0
 11
56.2434
 21
75.6804
 31
0.0
  0
LINE
  8
0
 62
     0
 10
56.2434
 20
75.6804
 30
0.0
 11
55.444
 21
75.6804
 31
0.0
  0
LINE
  8
0
 62
     0
 10
55.444
 20
75.6804
 30
0.0
 11
55.444
 21
78.7809
 31
0.0
  0
LINE
  8
0
 62
     0
 10
55.444
 20
78.7809
 30
0.0
 11
56.2434
 21
78.7809
 31
0.0
  0
LINE
  8
0
 62
     0
 10
56.2434
 20
78.7809
 30
0.0
 11
56.2434
 21
79.7814
 31
0.0
  0
LINE
  8
0
 62
     0
 10
56.2434
 20
79.7814
 30
0.0
 11
70.2441
 21
79.7814
 31
0.0
  0
LINE
  8
0
 62
     0
 10
70.2441
 20
79.7814
 30
0.0
 11
70.2441
 21
78.7809
 31
0.0
  0
LINE
  8
0
 62
     0
 10
70.2441
 20
78.7809
 30
0.0
 11
71.0434
 21
78.7809
 31
0.0
  0
LINE
  8
0
 62
     0
 10
71.0434
 20
78.7809
 30
0.0
 11
71.0434
 21
75.6804
 31
0.0
  0
LINE
  8
0
 62
     0
 10
71.0434
 20
75.6804
 30
0.0
 11
70.2441
 21
75.6804
 31
0.0
  0
LINE
  8
0
 62
     0
 10
70.2441
 20
75.6804
 30
0.0
 11
70.2441
 21
69.8817
 31
0.0
  0
LINE
  8
0
 62
     0
 10
70.2441
 20
69.8817
 30
0.0
 11
71.0434
 21
69.8817
 31
0.0
  0
LINE
  8
0
 62
     0
 10
71.0434
 20
69.8817
 30
0.0
 11
71.0434
 21
66.7812
 31
0.0
  0
LINE
  8
0
 62
     0
 10
71.0434
 20
66.7812
 30
0.0
 11
70.2441
 21
66.7812
 31
0.0
  0
LINE
  8
0
 62
     0
 10
72.6253
 20
9.63112
 30
0.0
 11
72.6253
 21
8.63064
 31
0.0
  0
LINE
  8
0
 62
     0
 10
72.6253
 20
8.63064
 30
0.0
 11
58.6246
 21
8.63064
 31
0.0
  0
LINE
  8
0
 62
     0
 10
58.6246
 20
8.63064
 30
0.0
 11
58.6246
 21
9.63112
 31
0.0
  0
LINE
  8
0
 62
     0
 10
58.6246
 20
9.63112
 30
0.0
 11
57.8252
 21
9.63112
 31
0.0
  0
LINE
  8
0
 62
     0
 10
57.8252
 20
9.63112
 30
0.0
 11
57.8252
 21
12.7317
 31
0.0
  0
LINE
  8
0
 62
     0
 10
57.8252
 20
12.7317
 30
0.0
 11
58.6246
 21
12.7317
 31
0.0
  0
LINE
  8
0
 62
     0
 10
58.6246
 20
12.7317
 30
0.0
 11
58.6246
 21
18.5305
 31
0.0
  0
LINE
  8
0
 62
     0
 10
58.6246
 20
18.5305
 30
0.0
 11
57.8252
 21
18.5305
 31
0.0
  0
LINE
  8
0
 62
     0
 10
57.8252
 20
18.5305
 30
0.0
 11
57.8252
 21
21.6311
 31
0.0
  0
LINE
  8
0
 62
     0
 10
57.8252
 20
21.6311
 30
0.0
 11
58.6246
 21
21.6311
 31
0.0
  0
LINE
  8
0
 62
     0
 10
58.6246
 20
21.6311
 30
0.0
 11
58.6246
 21
22.6315
 31
0.0
  0
LINE
  8
0
 62
     0
 10
58.6246
 20
22.6315
 30
0.0
 11
72.6253
 21
22.6315
 31
0.0
  0
LINE
  8
0
 62
     0
 10
72.6253
 20
22.6315
 30
0.0
 11
72.6253
 21
21.6311
 31
0.0
  0
LINE
  8
0
 62
     0
 10
72.6253
 20
21.6311
 30
0.0
 11
73.4247
 21
21.6311
 31
0.0
  0
LINE
  8
0
 62
     0
 10
73.4247
 20
21.6311
 30
0.0
 11
73.4247
 21
18.5305
 31
0.0
  0
LINE
  8
0
 62
     0
 10
73.4247
 20
18.5305
 30
0.0
 11
72.6253
 21
18.5305
 31
0.0
  0
LINE
  8
0
 62
     0
 10
72.6253
 20
18.5305
 30
0.0
 11
72.6253
 21
12.7317
 31
0.0
  0
LINE
  8
0
 62
     0
 10
72.6253
 20
12.7317
 30
0.0
 11
73.4247
 21
12.7317
 31
0.0
  0
LINE
  8
0
 62
     0
 10
73.4247
 20
12.7317
 30
0.0
 11
73.4247
 21
9.63112
 31
0.0
  0
LINE
  8
0
 62
     0
 10
73.4247
 20
9.63112
 30
0.0
 11
72.6253
 21
9.63112
 31
0.0
  0
LINE
  8
0
 62
     0
 10
75.0051
 20
47.7312
 30
0.0
 11
75.0051
 21
46.7307
 31
0.0
  0
LINE
  8
0
 62
     0
 10
75.0051
 20
46.7307
 30
0.0
 11
61.0059
 21
46.7307
 31
0.0
  0
LINE
  8
0
 62
     0
 10
61.0059
 20
46.7307
 30
0.0
 11
61.0059
 21
47.7312
 31
0.0
  0
LINE
  8
0
 62
     0
 10
61.0059
 20
47.7312
 30
0.0
 11
60.2051
 21
47.7312
 31
0.0
  0
LINE
  8
0
 62
     0
 10
60.2051
 20
47.7312
 30
0.0
 11
60.2051
 21
50.8317
 31
0.0
  0
LINE
  8
0
 62
     0
 10
60.2051
 20
50.8317
 30
0.0
 11
61.0059
 21
50.8317
 31
0.0
  0
LINE
  8
0
 62
     0
 10
61.0059
 20
50.8317
 30
0.0
 11
61.0059
 21
56.6304
 31
0.0
  0
LINE
  8
0
 62
     0
 10
61.0059
 20
56.6304
 30
0.0
 11
60.2051
 21
56.6304
 31
0.0
  0
LINE
  8
0
 62
     0
 10
60.2051
 20
56.6304
 30
0.0
 11
60.2051
 21
59.7309
 31
0.0
  0
LINE
  8
0
 62
     0
 10
60.2051
 20
59.7309
 30
0.0
 11
61.0059
 21
59.7309
 31
0.0
  0
LINE
  8
0
 62
     0
 10
61.0059
 20
59.7309
 30
0.0
 11
61.0059
 21
60.7314
 31
0.0
  0
LINE
  8
0
 62
     0
 10
61.0059
 20
60.7314
 30
0.0
 11
75.0051
 21
60.7314
 31
0.0
  0
LINE
  8
0
 62
     0
 10
75.0051
 20
60.7314
 30
0.0
 11
75.0051
 21
59.7309
 31
0.0
  0
LINE
  8
0
 62
     0
 10
75.0051
 20
59.7309
 30
0.0
 11
75.8059
 21
59.7309
 31
0.0
  0
LINE
  8
0
 62
     0
 10
75.8059
 20
59.7309
 30
0.0
 11
75.8059
 21
56.6304
 31
0.0
  0
LINE
  8
0
 62
     0
 10
75.8059
 20
56.6304
 30
0.0
 11
75.0051
 21
56.6304
 31
0.0
  0
LINE
  8
0
 62
     0
 10
75.0051
 20
56.6304
 30
0.0
 11
75.0051
 21
50.8317
 31
0.0
  0
LINE
  8
0
 62
     0
 10
75.0051
 20
50.8317
 30
0.0
 11
75.8059
 21
50.8317
 31
0.0
  0
LINE
  8
0
 62
     0
 10
75.8059
 20
50.8317
 30
0.0
 11
75.8059
 21
47.7312
 31
0.0
  0
LINE
  8
0
 62
     0
 10
75.8059
 20
47.7312
 30
0.0
 11
75.0051
 21
47.7312
 31
0.0
  0
LINE
  8
0
 62
     0
 10
79.7691
 20
104.881
 30
0.0
 11
79.7691
 21
103.881
 31
0.0
  0
LINE
  8
0
 62
     0
 10
79.7691
 20
103.881
 30
0.0
 11
65.7684
 21
103.881
 31
0.0
  0
LINE
  8
0
 62
     0
 10
65.7684
 20
103.881
 30
0.0
 11
65.7684
 21
104.881
 31
0.0
  0
LINE
  8
0
 62
     0
 10
65.7684
 20
104.881
 30
0.0
 11
64.969
 21
104.881
 31
0.0
  0
LINE
  8
0
 62
     0
 10
64.969
 20
104.881
 30
0.0
 11
64.969
 21
107.982
 31
0.0
  0
LINE
  8
0
 62
     0
 10
64.969
 20
107.982
 30
0.0
 11
65.7684
 21
107.982
 31
0.0
  0
LINE
  8
0
 62
     0
 10
65.7684
 20
107.982
 30
0.0
 11
65.7684
 21
113.78
 31
0.0
  0
LINE
  8
0
 62
     0
 10
65.7684
 20
113.78
 30
0.0
 11
64.969
 21
113.78
 31
0.0
  0
LINE
  8
0
 62
     0
 10
64.969
 20
113.78
 30
0.0
 11
64.969
 21
116.881
 31
0.0
  0
LINE
  8
0
 62
     0
 10
64.969
 20
116.881
 30
0.0
 11
65.7684
 21
116.881
 31
0.0
  0
LINE
  8
0
 62
     0
 10
65.7684
 20
116.881
 30
0.0
 11
65.7684
 21
117.881
 31
0.0
  0
LINE
  8
0
 62
     0
 10
65.7684
 20
117.881
 30
0.0
 11
79.7691
 21
117.881
 31
0.0
  0
LINE
  8
0
 62
     0
 10
79.7691
 20
117.881
 30
0.0
 11
79.7691
 21
116.881
 31
0.0
  0
LINE
  8
0
 62
     0
 10
79.7691
 20
116.881
 30
0.0
 11
80.5684
 21
116.881
 31
0.0
  0
LINE
  8
0
 62
     0
 10
80.5684
 20
116.881
 30
0.0
 11
80.5684
 21
113.78
 31
0.0
  0
LINE
  8
0
 62
     0
 10
80.5684
 20
113.78
 30
0.0
 11
79.7691
 21
113.78
 31
0.0
  0
LINE
  8
0
 62
     0
 10
79.7691
 20
113.78
 30
0.0
 11
79.7691
 21
107.982
 31
0.0
  0
LINE
  8
0
 62
     0
 10
79.7691
 20
107.982
 30
0.0
 11
80.5684
 21
107.982
 31
0.0
  0
LINE
  8
0
 62
     0
 10
80.5684
 20
107.982
 30
0.0
 11
80.5684
 21
104.881
 31
0.0
  0
LINE
  8
0
 62
     0
 10
80.5684
 20
104.881
 30
0.0
 11
79.7691
 21
104.881
 31
0.0
  0
LINE
  8
0
 62
     0
 10
79.7691
 20
85.8312
 30
0.0
 11
79.7691
 21
84.8307
 31
0.0
  0
LINE
  8
0
 62
     0
 10
79.7691
 20
84.8307
 30
0.0
 11
65.7684
 21
84.8307
 31
0.0
  0
LINE
  8
0
 62
     0
 10
65.7684
 20
84.8307
 30
0.0
 11
65.7684
 21
85.8312
 31
0.0
  0
LINE
  8
0
 62
     0
 10
65.7684
 20
85.8312
 30
0.0
 11
64.969
 21
85.8312
 31
0.0
  0
LINE
  8
0
 62
     0
 10
64.969
 20
85.8312
 30
0.0
 11
64.969
 21
88.9317
 31
0.0
  0
LINE
  8
0
 62
     0
 10
64.969
 20
88.9317
 30
0.0
 11
65.7684
 21
88.9317
 31
0.0
  0
LINE
  8
0
 62
     0
 10
65.7684
 20
88.9317
 30
0.0
 11
65.7684
 21
94.7304
 31
0.0
  0
LINE
  8
0
 62
     0
 10
65.7684
 20
94.7304
 30
0.0
 11
64.969
 21
94.7304
 31
0.0
  0
LINE
  8
0
 62
     0
 10
64.969
 20
94.7304
 30
0.0
 11
64.969
 21
97.8309
 31
0.0
  0
LINE
  8
0
 62
     0
 10
64.969
 20
97.8309
 30
0.0
 11
65.7684
 21
97.8309
 31
0.0
  0
LINE
  8
0
 62
     0
 10
65.7684
 20
97.8309
 30
0.0
 11
65.7684
 21
98.8314
 31
0.0
  0
LINE
  8
0
 62
     0
 10
65.7684
 20
98.8314
 30
0.0
 11
79.7691
 21
98.8314
 31
0.0
  0
LINE
  8
0
 62
     0
 10
79.7691
 20
98.8314
 30
0.0
 11
79.7691
 21
97.8309
 31
0.0
  0
LINE
  8
0
 62
     0
 10
79.7691
 20
97.8309
 30
0.0
 11
80.5684
 21
97.8309
 31
0.0
  0
LINE
  8
0
 62
     0
 10
80.5684
 20
97.8309
 30
0.0
 11
80.5684
 21
94.7304
 31
0.0
  0
LINE
  8
0
 62
     0
 10
80.5684
 20
94.7304
 30
0.0
 11
79.7691
 21
94.7304
 31
0.0
  0
LINE
  8
0
 62
     0
 10
79.7691
 20
94.7304
 30
0.0
 11
79.7691
 21
88.9317
 31
0.0
  0
LINE
  8
0
 62
     0
 10
79.7691
 20
88.9317
 30
0.0
 11
80.5684
 21
88.9317
 31
0.0
  0
LINE
  8
0
 62
     0
 10
80.5684
 20
88.9317
 30
0.0
 11
80.5684
 21
85.8312
 31
0.0
  0
LINE
  8
0
 62
     0
 10
80.5684
 20
85.8312
 30
0.0
 11
79.7691
 21
85.8312
 31
0.0
  0
LINE
  8
0
 62
     0
 10
84.5316
 20
28.6811
 30
0.0
 11
84.5316
 21
27.6806
 31
0.0
  0
LINE
  8
0
 62
     0
 10
84.5316
 20
27.6806
 30
0.0
 11
70.5323
 21
27.6806
 31
0.0
  0
LINE
  8
0
 62
     0
 10
70.5323
 20
27.6806
 30
0.0
 11
70.5323
 21
28.6811
 31
0.0
  0
LINE
  8
0
 62
     0
 10
70.5323
 20
28.6811
 30
0.0
 11
69.7315
 21
28.6811
 31
0.0
  0
LINE
  8
0
 62
     0
 10
69.7315
 20
28.6811
 30
0.0
 11
69.7315
 21
31.7817
 31
0.0
  0
LINE
  8
0
 62
     0
 10
69.7315
 20
31.7817
 30
0.0
 11
70.5323
 21
31.7817
 31
0.0
  0
LINE
  8
0
 62
     0
 10
70.5323
 20
31.7817
 30
0.0
 11
70.5323
 21
37.5804
 31
0.0
  0
LINE
  8
0
 62
     0
 10
70.5323
 20
37.5804
 30
0.0
 11
69.7315
 21
37.5804
 31
0.0
  0
LINE
  8
0
 62
     0
 10
69.7315
 20
37.5804
 30
0.0
 11
69.7315
 21
40.6809
 31
0.0
  0
LINE
  8
0
 62
     0
 10
69.7315
 20
40.6809
 30
0.0
 11
70.5323
 21
40.6809
 31
0.0
  0
LINE
  8
0
 62
     0
 10
70.5323
 20
40.6809
 30
0.0
 11
70.5323
 21
41.6814
 31
0.0
  0
LINE
  8
0
 62
     0
 10
70.5323
 20
41.6814
 30
0.0
 11
84.5316
 21
41.6814
 31
0.0
  0
LINE
  8
0
 62
     0
 10
84.5316
 20
41.6814
 30
0.0
 11
84.5316
 21
40.6809
 31
0.0
  0
LINE
  8
0
 62
     0
 10
84.5316
 20
40.6809
 30
0.0
 11
85.3324
 21
40.6809
 31
0.0
  0
LINE
  8
0
 62
     0
 10
85.3324
 20
40.6809
 30
0.0
 11
85.3324
 21
37.5804
 31
0.0
  0
LINE
  8
0
 62
     0
 10
85.3324
 20
37.5804
 30
0.0
 11
84.5316
 21
37.5804
 31
0.0
  0
LINE
  8
0
 62
     0
 10
84.5316
 20
37.5804
 30
0.0
 11
84.5316
 21
31.7817
 31
0.0
  0
LINE
  8
0
 62
     0
 10
84.5316
 20
31.7817
 30
0.0
 11
85.3324
 21
31.7817
 31
0.0
  0
LINE
  8
0
 62
     0
 10
85.3324
 20
31.7817
 30
0.0
 11
85.3324
 21
28.6811
 31
0.0
  0
LINE
  8
0
 62
     0
 10
85.3324
 20
28.6811
 30
0.0
 11
84.5316
 21
28.6811
 31
0.0
  0
LINE
  8
0
 62
     0
 10
89.2941
 20
66.7812
 30
0.0
 11
89.2941
 21
65.7807
 31
0.0
  0
LINE
  8
0
 62
     0
 10
89.2941
 20
65.7807
 30
0.0
 11
75.2934
 21
65.7807
 31
0.0
  0
LINE
  8
0
 62
     0
 10
75.2934
 20
65.7807
 30
0.0
 11
75.2934
 21
66.7812
 31
0.0
  0
LINE
  8
0
 62
     0
 10
75.2934
 20
66.7812
 30
0.0
 11
74.494
 21
66.7812
 31
0.0
  0
LINE
  8
0
 62
     0
 10
74.494
 20
66.7812
 30
0.0
 11
74.494
 21
69.8817
 31
0.0
  0
LINE
  8
0
 62
     0
 10
74.494
 20
69.8817
 30
0.0
 11
75.2934
 21
69.8817
 31
0.0
  0
LINE
  8
0
 62
     0
 10
75.2934
 20
69.8817
 30
0.0
 11
75.2934
 21
75.6804
 31
0.0
  0
LINE
  8
0
 62
     0
 10
75.2934
 20
75.6804
 30
0.0
 11
74.494
 21
75.6804
 31
0.0
  0
LINE
  8
0
 62
     0
 10
74.494
 20
75.6804
 30
0.0
 11
74.494
 21
78.7809
 31
0.0
  0
LINE
  8
0
 62
     0
 10
74.494
 20
78.7809
 30
0.0
 11
75.2934
 21
78.7809
 31
0.0
  0
LINE
  8
0
 62
     0
 10
75.2934
 20
78.7809
 30
0.0
 11
75.2934
 21
79.7814
 31
0.0
  0
LINE
  8
0
 62
     0
 10
75.2934
 20
79.7814
 30
0.0
 11
89.2941
 21
79.7814
 31
0.0
  0
LINE
  8
0
 62
     0
 10
89.2941
 20
79.7814
 30
0.0
 11
89.2941
 21
78.7809
 31
0.0
  0
LINE
  8
0
 62
     0
 10
89.2941
 20
78.7809
 30
0.0
 11
90.0934
 21
78.7809
 31
0.0
  0
LINE
  8
0
 62
     0
 10
90.0934
 20
78.7809
 30
0.0
 11
90.0934
 21
75.6804
 31
0.0
  0
LINE
  8
0
 62
     0
 10
90.0934
 20
75.6804
 30
0.0
 11
89.2941
 21
75.6804
 31
0.0
  0
LINE
  8
0
 62
     0
 10
89.2941
 20
75.6804
 30
0.0
 11
89.2941
 21
69.8817
 31
0.0
  0
LINE
  8
0
 62
     0
 10
89.2941
 20
69.8817
 30
0.0
 11
90.0934
 21
69.8817
 31
0.0
  0
LINE
  8
0
 62
     0
 10
90.0934
 20
69.8817
 30
0.0
 11
90.0934
 21
66.7812
 31
0.0
  0
LINE
  8
0
 62
     0
 10
90.0934
 20
66.7812
 30
0.0
 11
89.2941
 21
66.7812
 31
0.0
  0
LINE
  8
0
 62
     0
 10
94.0551
 20
47.7312
 30
0.0
 11
94.0551
 21
46.7307
 31
0.0
  0
LINE
  8
0
 62
     0
 10
94.0551
 20
46.7307
 30
0.0
 11
80.0559
 21
46.7307
 31
0.0
  0
LINE
  8
0
 62
     0
 10
80.0559
 20
46.7307
 30
0.0
 11
80.0559
 21
47.7312
 31
0.0
  0
LINE
  8
0
 62
     0
 10
80.0559
 20
47.7312
 30
0.0
 11
79.2551
 21
47.7312
 31
0.0
  0
LINE
  8
0
 62
     0
 10
79.2551
 20
47.7312
 30
0.0
 11
79.2551
 21
50.8317
 31
0.0
  0
LINE
  8
0
 62
     0
 10
79.2551
 20
50.8317
 30
0.0
 11
80.0559
 21
50.8317
 31
0.0
  0
LINE
  8
0
 62
     0
 10
80.0559
 20
50.8317
 30
0.0
 11
80.0559
 21
56.6304
 31
0.0
  0
LINE
  8
0
 62
     0
 10
80.0559
 20
56.6304
 30
0.0
 11
79.2551
 21
56.6304
 31
0.0
  0
LINE
  8
0
 62
     0
 10
79.2551
 20
56.6304
 30
0.0
 11
79.2551
 21
59.7309
 31
0.0
  0
LINE
  8
0
 62
     0
 10
79.2551
 20
59.7309
 30
0.0
 11
80.0559
 21
59.7309
 31
0.0
  0
LINE
  8
0
 62
     0
 10
80.0559
 20
59.7309
 30
0.0
 11
80.0559
 21
60.7314
 31
0.0
  0
LINE
  8
0
 62
     0
 10
80.0559
 20
60.7314
 30
0.0
 11
94.0551
 21
60.7314
 31
0.0
  0
LINE
  8
0
 62
     0
 10
94.0551
 20
60.7314
 30
0.0
 11
94.0551
 21
59.7309
 31
0.0
  0
LINE
  8
0
 62
     0
 10
94.0551
 20
59.7309
 30
0.0
 11
94.8559
 21
59.7309
 31
0.0
  0
LINE
  8
0
 62
     0
 10
94.8559
 20
59.7309
 30
0.0
 11
94.8559
 21
56.6304
 31
0.0
  0
LINE
  8
0
 62
     0
 10
94.8559
 20
56.6304
 30
0.0
 11
94.0551
 21
56.6304
 31
0.0
  0
LINE
  8
0
 62
     0
 10
94.0551
 20
56.6304
 30
0.0
 11
94.0551
 21
50.8317
 31
0.0
  0
LINE
  8
0
 62
     0
 10
94.0551
 20
50.8317
 30
0.0
 11
94.8559
 21
50.8317
 31
0.0
  0
LINE
  8
0
 62
     0
 10
94.8559
 20
50.8317
 30
0.0
 11
94.8559
 21
47.7312
 31
0.0
  0
LINE
  8
0
 62
     0
 10
94.8559
 20
47.7312
 30
0.0
 11
94.0551
 21
47.7312
 31
0.0
  0
LINE
  8
0
 62
     0
 10
98.8191
 20
104.881
 30
0.0
 11
98.8191
 21
103.881
 31
0.0
  0
LINE
  8
0
 62
     0
 10
98.8191
 20
103.881
 30
0.0
 11
84.8184
 21
103.881
 31
0.0
  0
LINE
  8
0
 62
     0
 10
84.8184
 20
103.881
 30
0.0
 11
84.8184
 21
104.881
 31
0.0
  0
LINE
  8
0
 62
     0
 10
84.8184
 20
104.881
 30
0.0
 11
84.019
 21
104.881
 31
0.0
  0
LINE
  8
0
 62
     0
 10
84.019
 20
104.881
 30
0.0
 11
84.019
 21
107.982
 31
0.0
  0
LINE
  8
0
 62
     0
 10
84.019
 20
107.982
 30
0.0
 11
84.8184
 21
107.982
 31
0.0
  0
LINE
  8
0
 62
     0
 10
84.8184
 20
107.982
 30
0.0
 11
84.8184
 21
113.78
 31
0.0
  0
LINE
  8
0
 62
     0
 10
84.8184
 20
113.78
 30
0.0
 11
84.019
 21
113.78
 31
0.0
  0
LINE
  8
0
 62
     0
 10
84.019
 20
113.78
 30
0.0
 11
84.019
 21
116.881
 31
0.0
  0
LINE
  8
0
 62
     0
 10
84.019
 20
116.881
 30
0.0
 11
84.8184
 21
116.881
 31
0.0
  0
LINE
  8
0
 62
     0
 10
84.8184
 20
116.881
 30
0.0
 11
84.8184
 21
117.881
 31
0.0
  0
LINE
  8
0
 62
     0
 10
84.8184
 20
117.881
 30
0.0
 11
98.8191
 21
117.881
 31
0.0
  0
LINE
  8
0
 62
     0
 10
98.8191
 20
117.881
 30
0.0
 11
98.8191
 21
116.881
 31
0.0
  0
LINE
  8
0
 62
     0
 10
98.8191
 20
116.881
 30
0.0
 11
99.6184
 21
116.881
 31
0.0
  0
LINE
  8
0
 62
     0
 10
99.6184
 20
116.881
 30
0.0
 11
99.6184
 21
113.78
 31
0.0
  0
LINE
  8
0
 62
     0
 10
99.6184
 20
113.78
 30
0.0
 11
98.8191
 21
113.78
 31
0.0
  0
LINE
  8
0
 62
     0
 10
98.8191
 20
113.78
 30
0.0
 11
98.8191
 21
107.982
 31
0.0
  0
LINE
  8
0
 62
     0
 10
98.8191
 20
107.982
 30
0.0
 11
99.6184
 21
107.982
 31
0.0
  0
LINE
  8
0
 62
     0
 10
99.6184
 20
107.982
 30
0.0
 11
99.6184
 21
104.881
 31
0.0
  0
LINE
  8
0
 62
     0
 10
99.6184
 20
104.881
 30
0.0
 11
98.8191
 21
104.881
 31
0.0
  0
LINE
  8
0
 62
     0
 10
98.8191
 20
85.8312
 30
0.0
 11
98.8191
 21
84.8307
 31
0.0
  0
LINE
  8
0
 62
     0
 10
98.8191
 20
84.8307
 30
0.0
 11
84.8184
 21
84.8307
 31
0.0
  0
LINE
  8
0
 62
     0
 10
84.8184
 20
84.8307
 30
0.0
 11
84.8184
 21
85.8312
 31
0.0
  0
LINE
  8
0
 62
     0
 10
84.8184
 20
85.8312
 30
0.0
 11
84.019
 21
85.8312
 31
0.0
  0
LINE
  8
0
 62
     0
 10
84.019
 20
85.8312
 30
0.0
 11
84.019
 21
88.9317
 31
0.0
  0
LINE
  8
0
 62
     0
 10
84.019
 20
88.9317
 30
0.0
 11
84.8184
 21
88.9317
 31
0.0
  0
LINE
  8
0
 62
     0
 10
84.8184
 20
88.9317
 30
0.0
 11
84.8184
 21
94.7304
 31
0.0
  0
LINE
  8
0
 62
     0
 10
84.8184
 20
94.7304
 30
0.0
 11
84.019
 21
94.7304
 31
0.0
  0
LINE
  8
0
 62
     0
 10
84.019
 20
94.7304
 30
0.0
 11
84.019
 21
97.8309
 31
0.0
  0
LINE
  8
0
 62
     0
 10
84.019
 20
97.8309
 30
0.0
 11
84.8184
 21
97.8309
 31
0.0
  0
LINE
  8
0
 62
     0
 10
84.8184
 20
97.8309
 30
0.0
 11
84.8184
 21
98.8314
 31
0.0
  0
LINE
  8
0
 62
     0
 10
84.8184
 20
98.8314
 30
0.0
 11
98.8191
 21
98.8314
 31
0.0
  0
LINE
  8
0
 62
     0
 10
98.8191
 20
98.8314
 30
0.0
 11
98.8191
 21
97.8309
 31
0.0
  0
LINE
  8
0
 62
     0
 10
98.8191
 20
97.8309
 30
0.0
 11
99.6184
 21
97.8309
 31
0.0
  0
LINE
  8
0
 62
     0
 10
99.6184
 20
97.8309
 30
0.0
 11
99.6184
 21
94.7304
 31
0.0
  0
LINE
  8
0
 62
     0
 10
99.6184
 20
94.7304
 30
0.0
 11
98.8191
 21
94.7304
 31
0.0
  0
LINE
  8
0
 62
     0
 10
98.8191
 20
94.7304
 30
0.0
 11
98.8191
 21
88.9317
 31
0.0
  0
LINE
  8
0
 62
     0
 10
98.8191
 20
88.9317
 30
0.0
 11
99.6184
 21
88.9317
 31
0.0
  0
LINE
  8
0
 62
     0
 10
99.6184
 20
88.9317
 30
0.0
 11
99.6184
 21
85.8312
 31
0.0
  0
LINE
  8
0
 62
     0
 10
99.6184
 20
85.8312
 30
0.0
 11
98.8191
 21
85.8312
 31
0.0
  0
LINE
  8
0
 62
     0
 10
103.582
 20
28.6811
 30
0.0
 11
103.582
 21
27.6806
 31
0.0
  0
LINE
  8
0
 62
     0
 10
103.582
 20
27.6806
 30
0.0
 11
89.5823
 21
27.6806
 31
0.0
  0
LINE
  8
0
 62
     0
 10
89.5823
 20
27.6806
 30
0.0
 11
89.5823
 21
28.6811
 31
0.0
  0
LINE
  8
0
 62
     0
 10
89.5823
 20
28.6811
 30
0.0
 11
88.7815
 21
28.6811
 31
0.0
  0
LINE
  8
0
 62
     0
 10
88.7815
 20
28.6811
 30
0.0
 11
88.7815
 21
31.7817
 31
0.0
  0
LINE
  8
0
 62
     0
 10
88.7815
 20
31.7817
 30
0.0
 11
89.5823
 21
31.7817
 31
0.0
  0
LINE
  8
0
 62
     0
 10
89.5823
 20
31.7817
 30
0.0
 11
89.5823
 21
37.5804
 31
0.0
  0
LINE
  8
0
 62
     0
 10
89.5823
 20
37.5804
 30
0.0
 11
88.7815
 21
37.5804
 31
0.0
  0
LINE
  8
0
 62
     0
 10
88.7815
 20
37.5804
 30
0.0
 11
88.7815
 21
40.6809
 31
0.0
  0
LINE
  8
0
 62
     0
 10
88.7815
 20
40.6809
 30
0.0
 11
89.5823
 21
40.6809
 31
0.0
  0
LINE
  8
0
 62
     0
 10
89.5823
 20
40.6809
 30
0.0
 11
89.5823
 21
41.6814
 31
0.0
  0
LINE
  8
0
 62
     0
 10
89.5823
 20
41.6814
 30
0.0
 11
103.582
 21
41.6814
 31
0.0
  0
LINE
  8
0
 62
     0
 10
103.582
 20
41.6814
 30
0.0
 11
103.582
 21
40.6809
 31
0.0
  0
LINE
  8
0
 62
     0
 10
103.582
 20
40.6809
 30
0.0
 11
104.382
 21
40.6809
 31
0.0
  0
LINE
  8
0
 62
     0
 10
104.382
 20
40.6809
 30
0.0
 11
104.382
 21
37.5804
 31
0.0
  0
LINE
  8
0
 62
     0
 10
104.382
 20
37.5804
 30
0.0
 11
103.582
 21
37.5804
 31
0.0
  0
LINE
  8
0
 62
     0
 10
103.582
 20
37.5804
 30
0.0
 11
103.582
 21
31.7817
 31
0.0
  0
LINE
  8
0
 62
     0
 10
103.582
 20
31.7817
 30
0.0
 11
104.382
 21
31.7817
 31
0.0
  0
LINE
  8
0
 62
     0
 10
104.382
 20
31.7817
 30
0.0
 11
104.382
 21
28.6811
 31
0.0
  0
LINE
  8
0
 62
     0
 10
104.382
 20
28.6811
 30
0.0
 11
103.582
 21
28.6811
 31
0.0
  0
LINE
  8
0
 62
     0
 10
108.344
 20
66.7812
 30
0.0
 11
108.344
 21
65.7807
 31
0.0
  0
LINE
  8
0
 62
     0
 10
108.344
 20
65.7807
 30
0.0
 11
94.3434
 21
65.7807
 31
0.0
  0
LINE
  8
0
 62
     0
 10
94.3434
 20
65.7807
 30
0.0
 11
94.3434
 21
66.7812
 31
0.0
  0
LINE
  8
0
 62
     0
 10
94.3434
 20
66.7812
 30
0.0
 11
93.544
 21
66.7812
 31
0.0
  0
LINE
  8
0
 62
     0
 10
93.544
 20
66.7812
 30
0.0
 11
93.544
 21
69.8817
 31
0.0
  0
LINE
  8
0
 62
     0
 10
93.544
 20
69.8817
 30
0.0
 11
94.3434
 21
69.8817
 31
0.0
  0
LINE
  8
0
 62
     0
 10
94.3434
 20
69.8817
 30
0.0
 11
94.3434
 21
75.6804
 31
0.0
  0
LINE
  8
0
 62
     0
 10
94.3434
 20
75.6804
 30
0.0
 11
93.544
 21
75.6804
 31
0.0
  0
LINE
  8
0
 62
     0
 10
93.544
 20
75.6804
 30
0.0
 11
93.544
 21
78.7809
 31
0.0
  0
LINE
  8
0
 62
     0
 10
93.544
 20
78.7809
 30
0.0
 11
94.3434
 21
78.7809
 31
0.0
  0
LINE
  8
0
 62
     0
 10
94.3434
 20
78.7809
 30
0.0
 11
94.3434
 21
79.7814
 31
0.0
  0
LINE
  8
0
 62
     0
 10
94.3434
 20
79.7814
 30
0.0
 11
108.344
 21
79.7814
 31
0.0
  0
LINE
  8
0
 62
     0
 10
108.344
 20
79.7814
 30
0.0
 11
108.344
 21
78.7809
 31
0.0
  0
LINE
  8
0
 62
     0
 10
108.344
 20
78.7809
 30
0.0
 11
109.143
 21
78.7809
 31
0.0
  0
LINE
  8
0
 62
     0
 10
109.143
 20
78.7809
 30
0.0
 11
109.143
 21
75.6804
 31
0.0
  0
LINE
  8
0
 62
     0
 10
109.143
 20
75.6804
 30
0.0
 11
108.344
 21
75.6804
 31
0.0
  0
LINE
  8
0
 62
     0
 10
108.344
 20
75.6804
 30
0.0
 11
108.344
 21
69.8817
 31
0.0
  0
LINE
  8
0
 62
     0
 10
108.344
 20
69.8817
 30
0.0
 11
109.143
 21
69.8817
 31
0.0
  0
LINE
  8
0
 62
     0
 10
109.143
 20
69.8817
 30
0.0
 11
109.143
 21
66.7812
 31
0.0
  0
LINE
  8
0
 62
     0
 10
109.143
 20
66.7812
 30
0.0
 11
108.344
 21
66.7812
 31
0.0
  0
LINE
  8
0
 62
     0
 10
113.105
 20
47.7312
 30
0.0
 11
113.105
 21
46.7307
 31
0.0
  0
LINE
  8
0
 62
     0
 10
113.105
 20
46.7307
 30
0.0
 11
99.1059
 21
46.7307
 31
0.0
  0
LINE
  8
0
 62
     0
 10
99.1059
 20
46.7307
 30
0.0
 11
99.1059
 21
47.7312
 31
0.0
  0
LINE
  8
0
 62
     0
 10
99.1059
 20
47.7312
 30
0.0
 11
98.3051
 21
47.7312
 31
0.0
  0
LINE
  8
0
 62
     0
 10
98.3051
 20
47.7312
 30
0.0
 11
98.3051
 21
50.8317
 31
0.0
  0
LINE
  8
0
 62
     0
 10
98.3051
 20
50.8317
 30
0.0
 11
99.1059
 21
50.8317
 31
0.0
  0
LINE
  8
0
 62
     0
 10
99.1059
 20
50.8317
 30
0.0
 11
99.1059
 21
56.6304
 31
0.0
  0
LINE
  8
0
 62
     0
 10
99.1059
 20
56.6304
 30
0.0
 11
98.3051
 21
56.6304
 31
0.0
  0
LINE
  8
0
 62
     0
 10
98.3051
 20
56.6304
 30
0.0
 11
98.3051
 21
59.7309
 31
0.0
  0
LINE
  8
0
 62
     0
 10
98.3051
 20
59.7309
 30
0.0
 11
99.1059
 21
59.7309
 31
0.0
  0
LINE
  8
0
 62
     0
 10
99.1059
 20
59.7309
 30
0.0
 11
99.1059
 21
60.7314
 31
0.0
  0
LINE
  8
0
 62
     0
 10
99.1059
 20
60.7314
 30
0.0
 11
113.105
 21
60.7314
 31
0.0
  0
LINE
  8
0
 62
     0
 10
113.105
 20
60.7314
 30
0.0
 11
113.105
 21
59.7309
 31
0.0
  0
LINE
  8
0
 62
     0
 10
113.105
 20
59.7309
 30
0.0
 11
113.906
 21
59.7309
 31
0.0
  0
LINE
  8
0
 62
     0
 10
113.906
 20
59.7309
 30
0.0
 11
113.906
 21
56.6304
 31
0.0
  0
LINE
  8
0
 62
     0
 10
113.906
 20
56.6304
 30
0.0
 11
113.105
 21
56.6304
 31
0.0
  0
LINE
  8
0
 62
     0
 10
113.105
 20
56.6304
 30
0.0
 11
113.105
 21
50.8317
 31
0.0
  0
LINE
  8
0
 62
     0
 10
113.105
 20
50.8317
 30
0.0
 11
113.906
 21
50.8317
 31
0.0
  0
LINE
  8
0
 62
     0
 10
113.906
 20
50.8317
 30
0.0
 11
113.906
 21
47.7312
 31
0.0
  0
LINE
  8
0
 62
     0
 10
113.906
 20
47.7312
 30
0.0
 11
113.105
 21
47.7312
 31
0.0
  0
LINE
  8
0
 62
     0
 10
117.869
 20
104.881
 30
0.0
 11
117.869
 21
103.881
 31
0.0
  0
LINE
  8
0
 62
     0
 10
117.869
 20
103.881
 30
0.0
 11
103.868
 21
103.881
 31
0.0
  0
LINE
  8
0
 62
     0
 10
103.868
 20
103.881
 30
0.0
 11
103.868
 21
104.881
 31
0.0
  0
LINE
  8
0
 62
     0
 10
103.868
 20
104.881
 30
0.0
 11
103.069
 21
104.881
 31
0.0
  0
LINE
  8
0
 62
     0
 10
103.069
 20
104.881
 30
0.0
 11
103.069
 21
107.982
 31
0.0
  0
LINE
  8
0
 62
     0
 10
103.069
 20
107.982
 30
0.0
 11
103.868
 21
107.982
 31
0.0
  0
LINE
  8
0
 62
     0
 10
103.868
 20
107.982
 30
0.0
 11
103.868
 21
113.78
 31
0.0
  0
LINE
  8
0
 62
     0
 10
103.868
 20
113.78
 30
0.0
 11
103.069
 21
113.78
 31
0.0
  0
LINE
  8
0
 62
     0
 10
103.069
 20
113.78
 30
0.0
 11
103.069
 21
116.881
 31
0.0
  0
LINE
  8
0
 62
     0
 10
103.069
 20
116.881
 30
0.0
 11
103.868
 21
116.881
 31
0.0
  0
LINE
  8
0
 62
     0
 10
103.868
 20
116.881
 30
0.0
 11
103.868
 21
117.881
 31
0.0
  0
LINE
  8
0
 62
     0
 10
103.868
 20
117.881
 30
0.0
 11
117.869
 21
117.881
 31
0.0
  0
LINE
  8
0
 62
     0
 10
117.869
 20
117.881
 30
0.0
 11
117.869
 21
116.881
 31
0.0
  0
LINE
  8
0
 62
     0
 10
117.869
 20
116.881
 30
0.0
 11
118.668
 21
116.881
 31
0.0
  0
LINE
  8
0
 62
     0
 10
118.668
 20
116.881
 30
0.0
 11
118.668
 21
113.78
 31
0.0
  0
LINE
  8
0
 62
     0
 10
118.668
 20
113.78
 30
0.0
 11
117.869
 21
113.78
 31
0.0
  0
LINE
  8
0
 62
     0
 10
117.869
 20
113.78
 30
0.0
 11
117.869
 21
107.982
 31
0.0
  0
LINE
  8
0
 62
     0
 10
117.869
 20
107.982
 30
0.0
 11
118.668
 21
107.982
 31
0.0
  0
LINE
  8
0
 62
     0
 10
118.668
 20
107.982
 30
0.0
 11
118.668
 21
104.881
 31
0.0
  0
LINE
  8
0
 62
     0
 10
118.668
 20
104.881
 30
0.0
 11
117.869
 21
104.881
 31
0.0
  0
LINE
  8
0
 62
     0
 10
117.869
 20
85.8312
 30
0.0
 11
117.869
 21
84.8307
 31
0.0
  0
LINE
  8
0
 62
     0
 10
117.869
 20
84.8307
 30
0.0
 11
103.868
 21
84.8307
 31
0.0
  0
LINE
  8
0
 62
     0
 10
103.868
 20
84.8307
 30
0.0
 11
103.868
 21
85.8312
 31
0.0
  0
LINE
  8
0
 62
     0
 10
103.868
 20
85.8312
 30
0.0
 11
103.069
 21
85.8312
 31
0.0
  0
LINE
  8
0
 62
     0
 10
103.069
 20
85.8312
 30
0.0
 11
103.069
 21
88.9317
 31
0.0
  0
LINE
  8
0
 62
     0
 10
103.069
 20
88.9317
 30
0.0
 11
103.868
 21
88.9317
 31
0.0
  0
LINE
  8
0
 62
     0
 10
103.868
 20
88.9317
 30
0.0
 11
103.868
 21
94.7304
 31
0.0
  0
LINE
  8
0
 62
     0
 10
103.868
 20
94.7304
 30
0.0
 11
103.069
 21
94.7304
 31
0.0
  0
LINE
  8
0
 62
     0
 10
103.069
 20
94.7304
 30
0.0
 11
103.069
 21
97.8309
 31
0.0
  0
LINE
  8
0
 62
     0
 10
103.069
 20
97.8309
 30
0.0
 11
103.868
 21
97.8309
 31
0.0
  0
LINE
  8
0
 62
     0
 10
103.868
 20
97.8309
 30
0.0
 11
103.868
 21
98.8314
 31
0.0
  0
LINE
  8
0
 62
     0
 10
103.868
 20
98.8314
 30
0.0
 11
117.869
 21
98.8314
 31
0.0
  0
LINE
  8
0
 62
     0
 10
117.869
 20
98.8314
 30
0.0
 11
117.869
 21
97.8309
 31
0.0
  0
LINE
  8
0
 62
     0
 10
117.869
 20
97.8309
 30
0.0
 11
118.668
 21
97.8309
 31
0.0
  0
LINE
  8
0
 62
     0
 10
118.668
 20
97.8309
 30
0.0
 11
118.668
 21
94.7304
 31
0.0
  0
LINE
  8
0
 62
     0
 10
118.668
 20
94.7304
 30
0.0
 11
117.869
 21
94.7304
 31
0.0
  0
LINE
  8
0
 62
     0
 10
117.869
 20
94.7304
 30
0.0
 11
117.869
 21
88.9317
 31
0.0
  0
LINE
  8
0
 62
     0
 10
117.869
 20
88.9317
 30
0.0
 11
118.668
 21
88.9317
 31
0.0
  0
LINE
  8
0
 62
     0
 10
118.668
 20
88.9317
 30
0.0
 11
118.668
 21
85.8312
 31
0.0
  0
LINE
  8
0
 62
     0
 10
118.668
 20
85.8312
 30
0.0
 11
117.869
 21
85.8312
 31
0.0
  0
LINE
  8
0
 62
     0
 10
122.632
 20
28.6811
 30
0.0
 11
122.632
 21
27.6806
 31
0.0
  0
LINE
  8
0
 62
     0
 10
122.632
 20
27.6806
 30
0.0
 11
108.632
 21
27.6806
 31
0.0
  0
LINE
  8
0
 62
     0
 10
108.632
 20
27.6806
 30
0.0
 11
108.632
 21
28.6811
 31
0.0
  0
LINE
  8
0
 62
     0
 10
108.632
 20
28.6811
 30
0.0
 11
107.831
 21
28.6811
 31
0.0
  0
LINE
  8
0
 62
     0
 10
107.831
 20
28.6811
 30
0.0
 11
107.831
 21
31.7817
 31
0.0
  0
LINE
  8
0
 62
     0
 10
107.831
 20
31.7817
 30
0.0
 11
108.632
 21
31.7817
 31
0.0
  0
LINE
  8
0
 62
     0
 10
108.632
 20
31.7817
 30
0.0
 11
108.632
 21
37.5804
 31
0.0
  0
LINE
  8
0
 62
     0
 10
108.632
 20
37.5804
 30
0.0
 11
107.831
 21
37.5804
 31
0.0
  0
LINE
  8
0
 62
     0
 10
107.831
 20
37.5804
 30
0.0
 11
107.831
 21
40.6809
 31
0.0
  0
LINE
  8
0
 62
     0
 10
107.831
 20
40.6809
 30
0.0
 11
108.632
 21
40.6809
 31
0.0
  0
LINE
  8
0
 62
     0
 10
108.632
 20
40.6809
 30
0.0
 11
108.632
 21
41.6814
 31
0.0
  0
LINE
  8
0
 62
     0
 10
108.632
 20
41.6814
 30
0.0
 11
122.632
 21
41.6814
 31
0.0
  0
LINE
  8
0
 62
     0
 10
122.632
 20
41.6814
 30
0.0
 11
122.632
 21
40.6809
 31
0.0
  0
LINE
  8
0
 62
     0
 10
122.632
 20
40.6809
 30
0.0
 11
123.432
 21
40.6809
 31
0.0
  0
LINE
  8
0
 62
     0
 10
123.432
 20
40.6809
 30
0.0
 11
123.432
 21
37.5804
 31
0.0
  0
LINE
  8
0
 62
     0
 10
123.432
 20
37.5804
 30
0.0
 11
122.632
 21
37.5804
 31
0.0
  0
LINE
  8
0
 62
     0
 10
122.632
 20
37.5804
 30
0.0
 11
122.632
 21
31.7817
 31
0.0
  0
LINE
  8
0
 62
     0
 10
122.632
 20
31.7817
 30
0.0
 11
123.432
 21
31.7817
 31
0.0
  0
LINE
  8
0
 62
     0
 10
123.432
 20
31.7817
 30
0.0
 11
123.432
 21
28.6811
 31
0.0
  0
LINE
  8
0
 62
     0
 10
123.432
 20
28.6811
 30
0.0
 11
122.632
 21
28.6811
 31
0.0
  0
LINE
  8
0
 62
     0
 10
127.394
 20
66.7812
 30
0.0
 11
127.394
 21
65.7807
 31
0.0
  0
LINE
  8
0
 62
     0
 10
127.394
 20
65.7807
 30
0.0
 11
113.393
 21
65.7807
 31
0.0
  0
LINE
  8
0
 62
     0
 10
113.393
 20
65.7807
 30
0.0
 11
113.393
 21
66.7812
 31
0.0
  0
LINE
  8
0
 62
     0
 10
113.393
 20
66.7812
 30
0.0
 11
112.594
 21
66.7812
 31
0.0
  0
LINE
  8
0
 62
     0
 10
112.594
 20
66.7812
 30
0.0
 11
112.594
 21
69.8817
 31
0.0
  0
LINE
  8
0
 62
     0
 10
112.594
 20
69.8817
 30
0.0
 11
113.393
 21
69.8817
 31
0.0
  0
LINE
  8
0
 62
     0
 10
113.393
 20
69.8817
 30
0.0
 11
113.393
 21
75.6804
 31
0.0
  0
LINE
  8
0
 62
     0
 10
113.393
 20
75.6804
 30
0.0
 11
112.594
 21
75.6804
 31
0.0
  0
LINE
  8
0
 62
     0
 10
112.594
 20
75.6804
 30
0.0
 11
112.594
 21
78.7809
 31
0.0
  0
LINE
  8
0
 62
     0
 10
112.594
 20
78.7809
 30
0.0
 11
113.393
 21
78.7809
 31
0.0
  0
LINE
  8
0
 62
     0
 10
113.393
 20
78.7809
 30
0.0
 11
113.393
 21
79.7814
 31
0.0
  0
LINE
  8
0
 62
     0
 10
113.393
 20
79.7814
 30
0.0
 11
127.394
 21
79.7814
 31
0.0
  0
LINE
  8
0
 62
     0
 10
127.394
 20
79.7814
 30
0.0
 11
127.394
 21
78.7809
 31
0.0
  0
LINE
  8
0
 62
     0
 10
127.394
 20
78.7809
 30
0.0
 11
128.193
 21
78.7809
 31
0.0
  0
LINE
  8
0
 62
     0
 10
128.193
 20
78.7809
 30
0.0
 11
128.193
 21
75.6804
 31
0.0
  0
LINE
  8
0
 62
     0
 10
128.193
 20
75.6804
 30
0.0
 11
127.394
 21
75.6804
 31
0.0
  0
LINE
  8
0
 62
     0
 10
127.394
 20
75.6804
 30
0.0
 11
127.394
 21
69.8817
 31
0.0
  0
LINE
  8
0
 62
     0
 10
127.394
 20
69.8817
 30
0.0
 11
128.193
 21
69.8817
 31
0.0
  0
LINE
  8
0
 62
     0
 10
128.193
 20
69.8817
 30
0.0
 11
128.193
 21
66.7812
 31
0.0
  0
LINE
  8
0
 62
     0
 10
128.193
 20
66.7812
 30
0.0
 11
127.394
 21
66.7812
 31
0.0
  0
LINE
  8
0
 62
     0
 10
132.155
 20
47.7312
 30
0.0
 11
132.155
 21
46.7307
 31
0.0
  0
LINE
  8
0
 62
     0
 10
132.155
 20
46.7307
 30
0.0
 11
118.156
 21
46.7307
 31
0.0
  0
LINE
  8
0
 62
     0
 10
118.156
 20
46.7307
 30
0.0
 11
118.156
 21
47.7312
 31
0.0
  0
LINE
  8
0
 62
     0
 10
118.156
 20
47.7312
 30
0.0
 11
117.356
 21
47.7312
 31
0.0
  0
LINE
  8
0
 62
     0
 10
117.356
 20
47.7312
 30
0.0
 11
117.356
 21
50.8317
 31
0.0
  0
LINE
  8
0
 62
     0
 10
117.356
 20
50.8317
 30
0.0
 11
118.156
 21
50.8317
 31
0.0
  0
LINE
  8
0
 62
     0
 10
118.156
 20
50.8317
 30
0.0
 11
118.156
 21
56.6304
 31
0.0
  0
LINE
  8
0
 62
     0
 10
118.156
 20
56.6304
 30
0.0
 11
117.356
 21
56.6304
 31
0.0
  0
LINE
  8
0
 62
     0
 10
117.356
 20
56.6304
 30
0.0
 11
117.356
 21
59.7309
 31
0.0
  0
LINE
  8
0
 62
     0
 10
117.356
 20
59.7309
 30
0.0
 11
118.156
 21
59.7309
 31
0.0
  0
LINE
  8
0
 62
     0
 10
118.156
 20
59.7309
 30
0.0
 11
118.156
 21
60.7314
 31
0.0
  0
LINE
  8
0
 62
     0
 10
118.156
 20
60.7314
 30
0.0
 11
132.155
 21
60.7314
 31
0.0
  0
LINE
  8
0
 62
     0
 10
132.155
 20
60.7314
 30
0.0
 11
132.155
 21
59.7309
 31
0.0
  0
LINE
  8
0
 62
     0
 10
132.155
 20
59.7309
 30
0.0
 11
132.957
 21
59.7309
 31
0.0
  0
LINE
  8
0
 62
     0
 10
132.957
 20
59.7309
 30
0.0
 11
132.957
 21
56.6304
 31
0.0
  0
LINE
  8
0
 62
     0
 10
132.957
 20
56.6304
 30
0.0
 11
132.155
 21
56.6304
 31
0.0
  0
LINE
  8
0
 62
     0
 10
132.155
 20
56.6304
 30
0.0
 11
132.155
 21
50.8317
 31
0.0
  0
LINE
  8
0
 62
     0
 10
132.155
 20
50.8317
 30
0.0
 11
132.957
 21
50.8317
 31
0.0
  0
LINE
  8
0
 62
     0
 10
132.957
 20
50.8317
 30
0.0
 11
132.957
 21
47.7312
 31
0.0
  0
LINE
  8
0
 62
     0
 10
132.957
 20
47.7312
 30
0.0
 11
132.155
 21
47.7312
 31
0.0
  0
LINE
  8
0
 62
     0
 10
136.919
 20
104.881
 30
0.0
 11
136.919
 21
103.881
 31
0.0
  0
LINE
  8
0
 62
     0
 10
136.919
 20
103.881
 30
0.0
 11
122.918
 21
103.881
 31
0.0
  0
LINE
  8
0
 62
     0
 10
122.918
 20
103.881
 30
0.0
 11
122.918
 21
104.881
 31
0.0
  0
LINE
  8
0
 62
     0
 10
122.918
 20
104.881
 30
0.0
 11
122.119
 21
104.881
 31
0.0
  0
LINE
  8
0
 62
     0
 10
122.119
 20
104.881
 30
0.0
 11
122.119
 21
107.982
 31
0.0
  0
LINE
  8
0
 62
     0
 10
122.119
 20
107.982
 30
0.0
 11
122.918
 21
107.982
 31
0.0
  0
LINE
  8
0
 62
     0
 10
122.918
 20
107.982
 30
0.0
 11
122.918
 21
113.78
 31
0.0
  0
LINE
  8
0
 62
     0
 10
122.918
 20
113.78
 30
0.0
 11
122.119
 21
113.78
 31
0.0
  0
LINE
  8
0
 62
     0
 10
122.119
 20
113.78
 30
0.0
 11
122.119
 21
116.881
 31
0.0
  0
LINE
  8
0
 62
     0
 10
122.119
 20
116.881
 30
0.0
 11
122.918
 21
116.881
 31
0.0
  0
LINE
  8
0
 62
     0
 10
122.918
 20
116.881
 30
0.0
 11
122.918
 21
117.881
 31
0.0
  0
LINE
  8
0
 62
     0
 10
122.918
 20
117.881
 30
0.0
 11
136.919
 21
117.881
 31
0.0
  0
LINE
  8
0
 62
     0
 10
136.919
 20
117.881
 30
0.0
 11
136.919
 21
116.881
 31
0.0
  0
LINE
  8
0
 62
     0
 10
136.919
 20
116.881
 30
0.0
 11
137.718
 21
116.881
 31
0.0
  0
LINE
  8
0
 62
     0
 10
137.718
 20
116.881
 30
0.0
 11
137.718
 21
113.78
 31
0.0
  0
LINE
  8
0
 62
     0
 10
137.718
 20
113.78
 30
0.0
 11
136.919
 21
113.78
 31
0.0
  0
LINE
  8
0
 62
     0
 10
136.919
 20
113.78
 30
0.0
 11
136.919
 21
107.982
 31
0.0
  0
LINE
  8
0
 62
     0
 10
136.919
 20
107.982
 30
0.0
 11
137.718
 21
107.982
 31
0.0
  0
LINE
  8
0
 62
     0
 10
137.718
 20
107.982
 30
0.0
 11
137.718
 21
104.881
 31
0.0
  0
LINE
  8
0
 62
     0
 10
137.718
 20
104.881
 30
0.0
 11
136.919
 21
104.881
 31
0.0
  0
LINE
  8
0
 62
     0
 10
136.919
 20
85.8312
 30
0.0
 11
136.919
 21
84.8307
 31
0.0
  0
LINE
  8
0
 62
     0
 10
136.919
 20
84.8307
 30
0.0
 11
122.918
 21
84.8307
 31
0.0
  0
LINE
  8
0
 62
     0
 10
122.918
 20
84.8307
 30
0.0
 11
122.918
 21
85.8312
 31
0.0
  0
LINE
  8
0
 62
     0
 10
122.918
 20
85.8312
 30
0.0
 11
122.119
 21
85.8312
 31
0.0
  0
LINE
  8
0
 62
     0
 10
122.119
 20
85.8312
 30
0.0
 11
122.119
 21
88.9317
 31
0.0
  0
LINE
  8
0
 62
     0
 10
122.119
 20
88.9317
 30
0.0
 11
122.918
 21
88.9317
 31
0.0
  0
LINE
  8
0
 62
     0
 10
122.918
 20
88.9317
 30
0.0
 11
122.918
 21
94.7304
 31
0.0
  0
LINE
  8
0
 62
     0
 10
122.918
 20
94.7304
 30
0.0
 11
122.119
 21
94.7304
 31
0.0
  0
LINE
  8
0
 62
     0
 10
122.119
 20
94.7304
 30
0.0
 11
122.119
 21
97.8309
 31
0.0
  0
LINE
  8
0
 62
     0
 10
122.119
 20
97.8309
 30
0.0
 11
122.918
 21
97.8309
 31
0.0
  0
LINE
  8
0
 62
     0
 10
122.918
 20
97.8309
 30
0.0
 11
122.918
 21
98.8314
 31
0.0
  0
LINE
  8
0
 62
     0
 10
122.918
 20
98.8314
 30
0.0
 11
136.919
 21
98.8314
 31
0.0
  0
LINE
  8
0
 62
     0
 10
136.919
 20
98.8314
 30
0.0
 11
136.919
 21
97.8309
 31
0.0
  0
LINE
  8
0
 62
     0
 10
136.919
 20
97.8309
 30
0.0
 11
137.718
 21
97.8309
 31
0.0
  0
LINE
  8
0
 62
     0
 10
137.718
 20
97.8309
 30
0.0
 11
137.718
 21
94.7304
 31
0.0
  0
LINE
  8
0
 62
     0
 10
137.718
 20
94.7304
 30
0.0
 11
136.919
 21
94.7304
 31
0.0
  0
LINE
  8
0
 62
     0
 10
136.919
 20
94.7304
 30
0.0
 11
136.919
 21
88.9317
 31
0.0
  0
LINE
  8
0
 62
     0
 10
136.919
 20
88.9317
 30
0.0
 11
137.718
 21
88.9317
 31
0.0
  0
LINE
  8
0
 62
     0
 10
137.718
 20
88.9317
 30
0.0
 11
137.718
 21
85.8312
 31
0.0
  0
LINE
  8
0
 62
     0
 10
137.718
 20
85.8312
 30
0.0
 11
136.919
 21
85.8312
 31
0.0
  0
LINE
  8
0
 62
     0
 10
141.682
 20
28.6811
 30
0.0
 11
141.682
 21
27.6806
 31
0.0
  0
LINE
  8
0
 62
     0
 10
141.682
 20
27.6806
 30
0.0
 11
127.682
 21
27.6806
 31
0.0
  0
LINE
  8
0
 62
     0
 10
127.682
 20
27.6806
 30
0.0
 11
127.682
 21
28.6811
 31
0.0
  0
LINE
  8
0
 62
     0
 10
127.682
 20
28.6811
 30
0.0
 11
126.88
 21
28.6811
 31
0.0
  0
LINE
  8
0
 62
     0
 10
126.88
 20
28.6811
 30
0.0
 11
126.88
 21
31.7817
 31
0.0
  0
LINE
  8
0
 62
     0
 10
126.88
 20
31.7817
 30
0.0
 11
127.682
 21
31.7817
 31
0.0
  0
LINE
  8
0
 62
     0
 10
127.682
 20
31.7817
 30
0.0
 11
127.682
 21
37.5804
 31
0.0
  0
LINE
  8
0
 62
     0
 10
127.682
 20
37.5804
 30
0.0
 11
126.88
 21
37.5804
 31
0.0
  0
LINE
  8
0
 62
     0
 10
126.88
 20
37.5804
 30
0.0
 11
126.88
 21
40.6809
 31
0.0
  0
LINE
  8
0
 62
     0
 10
126.88
 20
40.6809
 30
0.0
 11
127.682
 21
40.6809
 31
0.0
  0
LINE
  8
0
 62
     0
 10
127.682
 20
40.6809
 30
0.0
 11
127.682
 21
41.6814
 31
0.0
  0
LINE
  8
0
 62
     0
 10
127.682
 20
41.6814
 30
0.0
 11
141.682
 21
41.6814
 31
0.0
  0
LINE
  8
0
 62
     0
 10
141.682
 20
41.6814
 30
0.0
 11
141.682
 21
40.6809
 31
0.0
  0
LINE
  8
0
 62
     0
 10
141.682
 20
40.6809
 30
0.0
 11
142.482
 21
40.6809
 31
0.0
  0
LINE
  8
0
 62
     0
 10
142.482
 20
40.6809
 30
0.0
 11
142.482
 21
37.5804
 31
0.0
  0
LINE
  8
0
 62
     0
 10
142.482
 20
37.5804
 30
0.0
 11
141.682
 21
37.5804
 31
0.0
  0
LINE
  8
0
 62
     0
 10
141.682
 20
37.5804
 30
0.0
 11
141.682
 21
31.7817
 31
0.0
  0
LINE
  8
0
 62
     0
 10
141.682
 20
31.7817
 30
0.0
 11
142.482
 21
31.7817
 31
0.0
  0
LINE
  8
0
 62
     0
 10
142.482
 20
31.7817
 30
0.0
 11
142.482
 21
28.6811
 31
0.0
  0
LINE
  8
0
 62
     0
 10
142.482
 20
28.6811
 30
0.0
 11
141.682
 21
28.6811
 31
0.0
  0
LINE
  8
0
 62
     0
 10
146.444
 20
66.7812
 30
0.0
 11
146.444
 21
65.7807
 31
0.0
  0
LINE
  8
0
 62
     0
 10
146.444
 20
65.7807
 30
0.0
 11
132.443
 21
65.7807
 31
0.0
  0
LINE
  8
0
 62
     0
 10
132.443
 20
65.7807
 30
0.0
 11
132.443
 21
66.7812
 31
0.0
  0
LINE
  8
0
 62
     0
 10
132.443
 20
66.7812
 30
0.0
 11
131.644
 21
66.7812
 31
0.0
  0
LINE
  8
0
 62
     0
 10
131.644
 20
66.7812
 30
0.0
 11
131.644
 21
69.8817
 31
0.0
  0
LINE
  8
0
 62
     0
 10
131.644
 20
69.8817
 30
0.0
 11
132.443
 21
69.8817
 31
0.0
  0
LINE
  8
0
 62
     0
 10
132.443
 20
69.8817
 30
0.0
 11
132.443
 21
75.6804
 31
0.0
  0
LINE
  8
0
 62
     0
 10
132.443
 20
75.6804
 30
0.0
 11
131.644
 21
75.6804
 31
0.0
  0
LINE
  8
0
 62
     0
 10
131.644
 20
75.6804
 30
0.0
 11
131.644
 21
78.7809
 31
0.0
  0
LINE
  8
0
 62
     0
 10
131.644
 20
78.7809
 30
0.0
 11
132.443
 21
78.7809
 31
0.0
  0
LINE
  8
0
 62
     0
 10
132.443
 20
78.7809
 30
0.0
 11
132.443
 21
79.7814
 31
0.0
  0
LINE
  8
0
 62
     0
 10
132.443
 20
79.7814
 30
0.0
 11
146.444
 21
79.7814
 31
0.0
  0
LINE
  8
0
 62
     0
 10
146.444
 20
79.7814
 30
0.0
 11
146.444
 21
78.7809
 31
0.0
  0
LINE
  8
0
 62
     0
 10
146.444
 20
78.7809
 30
0.0
 11
147.243
 21
78.7809
 31
0.0
  0
LINE
  8
0
 62
     0
 10
147.243
 20
78.7809
 30
0.0
 11
147.243
 21
75.6804
 31
0.0
  0
LINE
  8
0
 62
     0
 10
147.243
 20
75.6804
 30
0.0
 11
146.444
 21
75.6804
 31
0.0
  0
LINE
  8
0
 62
     0
 10
146.444
 20
75.6804
 30
0.0
 11
146.444
 21
69.8817
 31
0.0
  0
LINE
  8
0
 62
     0
 10
146.444
 20
69.8817
 30
0.0
 11
147.243
 21
69.8817
 31
0.0
  0
LINE
  8
0
 62
     0
 10
147.243
 20
69.8817
 30
0.0
 11
147.243
 21
66.7812
 31
0.0
  0
LINE
  8
0
 62
     0
 10
147.243
 20
66.7812
 30
0.0
 11
146.444
 21
66.7812
 31
0.0
  0
LINE
  8
0
 62
     0
 10
151.207
 20
47.7312
 30
0.0
 11
151.207
 21
46.7307
 31
0.0
  0
LINE
  8
0
 62
     0
 10
151.207
 20
46.7307
 30
0.0
 11
137.207
 21
46.7307
 31
0.0
  0
LINE
  8
0
 62
     0
 10
137.207
 20
46.7307
 30
0.0
 11
137.207
 21
47.7312
 31
0.0
  0
LINE
  8
0
 62
     0
 10
137.207
 20
47.7312
 30
0.0
 11
136.405
 21
47.7312
 31
0.0
  0
LINE
  8
0
 62
     0
 10
136.405
 20
47.7312
 30
0.0
 11
136.405
 21
50.8317
 31
0.0
  0
LINE
  8
0
 62
     0
 10
136.405
 20
50.8317
 30
0.0
 11
137.207
 21
50.8317
 31
0.0
  0
LINE
  8
0
 62
     0
 10
137.207
 20
50.8317
 30
0.0
 11
137.207
 21
56.6304
 31
0.0
  0
LINE
  8
0
 62
     0
 10
137.207
 20
56.6304
 30
0.0
 11
136.405
 21
56.6304
 31
0.0
  0
LINE
  8
0
 62
     0
 10
136.405
 20
56.6304
 30
0.0
 11
136.405
 21
59.7309
 31
0.0
  0
LINE
  8
0
 62
     0
 10
136.405
 20
59.7309
 30
0.0
 11
137.207
 21
59.7309
 31
0.0
  0
LINE
  8
0
 62
     0
 10
137.207
 20
59.7309
 30
0.0
 11
137.207
 21
60.7314
 31
0.0
  0
LINE
  8
0
 62
     0
 10
137.207
 20
60.7314
 30
0.0
 11
151.207
 21
60.7314
 31
0.0
  0
LINE
  8
0
 62
     0
 10
151.207
 20
60.7314
 30
0.0
 11
151.207
 21
59.7309
 31
0.0
  0
LINE
  8
0
 62
     0
 10
151.207
 20
59.7309
 30
0.0
 11
152.007
 21
59.7309
 31
0.0
  0
LINE
  8
0
 62
     0
 10
152.007
 20
59.7309
 30
0.0
 11
152.007
 21
56.6304
 31
0.0
  0
LINE
  8
0
 62
     0
 10
152.007
 20
56.6304
 30
0.0
 11
151.207
 21
56.6304
 31
0.0
  0
LINE
  8
0
 62
     0
 10
151.207
 20
56.6304
 30
0.0
 11
151.207
 21
50.8317
 31
0.0
  0
LINE
  8
0
 62
     0
 10
151.207
 20
50.8317
 30
0.0
 11
152.007
 21
50.8317
 31
0.0
  0
LINE
  8
0
 62
     0
 10
152.007
 20
50.8317
 30
0.0
 11
152.007
 21
47.7312
 31
0.0
  0
LINE
  8
0
 62
     0
 10
152.007
 20
47.7312
 30
0.0
 11
151.207
 21
47.7312
 31
0.0
  0
LINE
  8
0
 62
     0
 10
155.969
 20
104.881
 30
0.0
 11
155.969
 21
103.881
 31
0.0
  0
LINE
  8
0
 62
     0
 10
155.969
 20
103.881
 30
0.0
 11
141.968
 21
103.881
 31
0.0
  0
LINE
  8
0
 62
     0
 10
141.968
 20
103.881
 30
0.0
 11
141.968
 21
104.881
 31
0.0
  0
LINE
  8
0
 62
     0
 10
141.968
 20
104.881
 30
0.0
 11
141.169
 21
104.881
 31
0.0
  0
LINE
  8
0
 62
     0
 10
141.169
 20
104.881
 30
0.0
 11
141.169
 21
107.982
 31
0.0
  0
LINE
  8
0
 62
     0
 10
141.169
 20
107.982
 30
0.0
 11
141.968
 21
107.982
 31
0.0
  0
LINE
  8
0
 62
     0
 10
141.968
 20
107.982
 30
0.0
 11
141.968
 21
113.78
 31
0.0
  0
LINE
  8
0
 62
     0
 10
141.968
 20
113.78
 30
0.0
 11
141.169
 21
113.78
 31
0.0
  0
LINE
  8
0
 62
     0
 10
141.169
 20
113.78
 30
0.0
 11
141.169
 21
116.881
 31
0.0
  0
LINE
  8
0
 62
     0
 10
141.169
 20
116.881
 30
0.0
 11
141.968
 21
116.881
 31
0.0
  0
LINE
  8
0
 62
     0
 10
141.968
 20
116.881
 30
0.0
 11
141.968
 21
117.881
 31
0.0
  0
LINE
  8
0
 62
     0
 10
141.968
 20
117.881
 30
0.0
 11
155.969
 21
117.881
 31
0.0
  0
LINE
  8
0
 62
     0
 10
155.969
 20
117.881
 30
0.0
 11
155.969
 21
116.881
 31
0.0
  0
LINE
  8
0
 62
     0
 10
155.969
 20
116.881
 30
0.0
 11
156.768
 21
116.881
 31
0.0
  0
LINE
  8
0
 62
     0
 10
156.768
 20
116.881
 30
0.0
 11
156.768
 21
113.78
 31
0.0
  0
LINE
  8
0
 62
     0
 10
156.768
 20
113.78
 30
0.0
 11
155.969
 21
113.78
 31
0.0
  0
LINE
  8
0
 62
     0
 10
155.969
 20
113.78
 30
0.0
 11
155.969
 21
107.982
 31
0.0
  0
LINE
  8
0
 62
     0
 10
155.969
 20
107.982
 30
0.0
 11
156.768
 21
107.982
 31
0.0
  0
LINE
  8
0
 62
     0
 10
156.768
 20
107.982
 30
0.0
 11
156.768
 21
104.881
 31
0.0
  0
LINE
  8
0
 62
     0
 10
156.768
 20
104.881
 30
0.0
 11
155.969
 21
104.881
 31
0.0
  0
LINE
  8
0
 62
     0
 10
155.969
 20
85.8312
 30
0.0
 11
155.969
 21
84.8307
 31
0.0
  0
LINE
  8
0
 62
     0
 10
155.969
 20
84.8307
 30
0.0
 11
141.968
 21
84.8307
 31
0.0
  0
LINE
  8
0
 62
     0
 10
141.968
 20
84.8307
 30
0.0
 11
141.968
 21
85.8312
 31
0.0
  0
LINE
  8
0
 62
     0
 10
141.968
 20
85.8312
 30
0.0
 11
141.169
 21
85.8312
 31
0.0
  0
LINE
  8
0
 62
     0
 10
141.169
 20
85.8312
 30
0.0
 11
141.169
 21
88.9317
 31
0.0
  0
LINE
  8
0
 62
     0
 10
141.169
 20
88.9317
 30
0.0
 11
141.968
 21
88.9317
 31
0.0
  0
LINE
  8
0
 62
     0
 10
141.968
 20
88.9317
 30
0.0
 11
141.968
 21
94.7304
 31
0.0
  0
LINE
  8
0
 62
     0
 10
141.968
 20
94.7304
 30
0.0
 11
141.169
 21
94.7304
 31
0.0
  0
LINE
  8
0
 62
     0
 10
141.169
 20
94.7304
 30
0.0
 11
141.169
 21
97.8309
 31
0.0
  0
LINE
  8
0
 62
     0
 10
141.169
 20
97.8309
 30
0.0
 11
141.968
 21
97.8309
 31
0.0
  0
LINE
  8
0
 62
     0
 10
141.968
 20
97.8309
 30
0.0
 11
141.968
 21
98.8314
 31
0.0
  0
LINE
  8
0
 62
     0
 10
141.968
 20
98.8314
 30
0.0
 11
155.969
 21
98.8314
 31
0.0
  0
LINE
  8
0
 62
     0
 10
155.969
 20
98.8314
 30
0.0
 11
155.969
 21
97.8309
 31
0.0
  0
LINE
  8
0
 62
     0
 10
155.969
 20
97.8309
 30
0.0
 11
156.768
 21
97.8309
 31
0.0
  0
LINE
  8
0
 62
     0
 10
156.768
 20
97.8309
 30
0.0
 11
156.768
 21
94.7304
 31
0.0
  0
LINE
  8
0
 62
     0
 10
156.768
 20
94.7304
 30
0.0
 11
155.969
 21
94.7304
 31
0.0
  0
LINE
  8
0
 62
     0
 10
155.969
 20
94.7304
 30
0.0
 11
155.969
 21
88.9317
 31
0.0
  0
LINE
  8
0
 62
     0
 10
155.969
 20
88.9317
 30
0.0
 11
156.768
 21
88.9317
 31
0.0
  0
LINE
  8
0
 62
     0
 10
156.768
 20
88.9317
 30
0.0
 11
156.768
 21
85.8312
 31
0.0
  0
LINE
  8
0
 62
     0
 10
156.768
 20
85.8312
 30
0.0
 11
155.969
 21
85.8312
 31
0.0
  0
LINE
  8
0
 62
     0
 10
160.732
 20
28.6811
 30
0.0
 11
160.732
 21
27.6806
 31
0.0
  0
LINE
  8
0
 62
     0
 10
160.732
 20
27.6806
 30
0.0
 11
146.732
 21
27.6806
 31
0.0
  0
LINE
  8
0
 62
     0
 10
146.732
 20
27.6806
 30
0.0
 11
146.732
 21
28.6811
 31
0.0
  0
LINE
  8
0
 62
     0
 10
146.732
 20
28.6811
 30
0.0
 11
145.931
 21
28.6811
 31
0.0
  0
LINE
  8
0
 62
     0
 10
145.931
 20
28.6811
 30
0.0
 11
145.931
 21
31.7817
 31
0.0
  0
LINE
  8
0
 62
     0
 10
145.931
 20
31.7817
 30
0.0
 11
146.732
 21
31.7817
 31
0.0
  0
LINE
  8
0
 62
     0
 10
146.732
 20
31.7817
 30
0.0
 11
146.732
 21
37.5804
 31
0.0
  0
LINE
  8
0
 62
     0
 10
146.732
 20
37.5804
 30
0.0
 11
145.931
 21
37.5804
 31
0.0
  0
LINE
  8
0
 62
     0
 10
145.931
 20
37.5804
 30
0.0
 11
145.931
 21
40.6809
 31
0.0
  0
LINE
  8
0
 62
     0
 10
145.931
 20
40.6809
 30
0.0
 11
146.732
 21
40.6809
 31
0.0
  0
LINE
  8
0
 62
     0
 10
146.732
 20
40.6809
 30
0.0
 11
146.732
 21
41.6814
 31
0.0
  0
LINE
  8
0
 62
     0
 10
146.732
 20
41.6814
 30
0.0
 11
160.732
 21
41.6814
 31
0.0
  0
LINE
  8
0
 62
     0
 10
160.732
 20
41.6814
 30
0.0
 11
160.732
 21
40.6809
 31
0.0
  0
LINE
  8
0
 62
     0
 10
160.732
 20
40.6809
 30
0.0
 11
161.532
 21
40.6809
 31
0.0
  0
LINE
  8
0
 62
     0
 10
161.532
 20
40.6809
 30
0.0
 11
161.532
 21
37.5804
 31
0.0
  0
LINE
  8
0
 62
     0
 10
161.532
 20
37.5804
 30
0.0
 11
160.732
 21
37.5804
 31
0.0
  0
LINE
  8
0
 62
     0
 10
160.732
 20
37.5804
 30
0.0
 11
160.732
 21
31.7817
 31
0.0
  0
LINE
  8
0
 62
     0
 10
160.732
 20
31.7817
 30
0.0
 11
161.532
 21
31.7817
 31
0.0
  0
LINE
  8
0
 62
     0
 10
161.532
 20
31.7817
 30
0.0
 11
161.532
 21
28.6811
 31
0.0
  0
LINE
  8
0
 62
     0
 10
161.532
 20
28.6811
 30
0.0
 11
160.732
 21
28.6811
 31
0.0
  0
LINE
  8
0
 62
     0
 10
165.494
 20
66.7812
 30
0.0
 11
165.494
 21
65.7807
 31
0.0
  0
LINE
  8
0
 62
     0
 10
165.494
 20
65.7807
 30
0.0
 11
151.493
 21
65.7807
 31
0.0
  0
LINE
  8
0
 62
     0
 10
151.493
 20
65.7807
 30
0.0
 11
151.493
 21
66.7812
 31
0.0
  0
LINE
  8
0
 62
     0
 10
151.493
 20
66.7812
 30
0.0
 11
150.694
 21
66.7812
 31
0.0
  0
LINE
  8
0
 62
     0
 10
150.694
 20
66.7812
 30
0.0
 11
150.694
 21
69.8817
 31
0.0
  0
LINE
  8
0
 62
     0
 10
150.694
 20
69.8817
 30
0.0
 11
151.493
 21
69.8817
 31
0.0
  0
LINE
  8
0
 62
     0
 10
151.493
 20
69.8817
 30
0.0
 11
151.493
 21
75.6804
 31
0.0
  0
LINE
  8
0
 62
     0
 10
151.493
 20
75.6804
 30
0.0
 11
150.694
 21
75.6804
 31
0.0
  0
LINE
  8
0
 62
     0
 10
150.694
 20
75.6804
 30
0.0
 11
150.694
 21
78.7809
 31
0.0
  0
LINE
  8
0
 62
     0
 10
150.694
 20
78.7809
 30
0.0
 11
151.493
 21
78.7809
 31
0.0
  0
LINE
  8
0
 62
     0
 10
151.493
 20
78.7809
 30
0.0
 11
151.493
 21
79.7814
 31
0.0
  0
LINE
  8
0
 62
     0
 10
151.493
 20
79.7814
 30
0.0
 11
165.494
 21
79.7814
 31
0.0
  0
LINE
  8
0
 62
     0
 10
165.494
 20
79.7814
 30
0.0
 11
165.494
 21
78.7809
 31
0.0
  0
LINE
  8
0
 62
     0
 10
165.494
 20
78.7809
 30
0.0
 11
166.293
 21
78.7809
 31
0.0
  0
LINE
  8
0
 62
     0
 10
166.293
 20
78.7809
 30
0.0
 11
166.293
 21
75.6804
 31
0.0
  0
LINE
  8
0
 62
     0
 10
166.293
 20
75.6804
 30
0.0
 11
165.494
 21
75.6804
 31
0.0
  0
LINE
  8
0
 62
     0
 10
165.494
 20
75.6804
 30
0.0
 11
165.494
 21
69.8817
 31
0.0
  0
LINE
  8
0
 62
     0
 10
165.494
 20
69.8817
 30
0.0
 11
166.293
 21
69.8817
 31
0.0
  0
LINE
  8
0
 62
     0
 10
166.293
 20
69.8817
 30
0.0
 11
166.293
 21
66.7812
 31
0.0
  0
LINE
  8
0
 62
     0
 10
166.293
 20
66.7812
 30
0.0
 11
165.494
 21
66.7812
 31
0.0
  0
LINE
  8
0
 62
     0
 10
170.257
 20
47.7312
 30
0.0
 11
170.257
 21
46.7307
 31
0.0
  0
LINE
  8
0
 62
     0
 10
170.257
 20
46.7307
 30
0.0
 11
156.257
 21
46.7307
 31
0.0
  0
LINE
  8
0
 62
     0
 10
156.257
 20
46.7307
 30
0.0
 11
156.257
 21
47.7312
 31
0.0
  0
LINE
  8
0
 62
     0
 10
156.257
 20
47.7312
 30
0.0
 11
155.456
 21
47.7312
 31
0.0
  0
LINE
  8
0
 62
     0
 10
155.456
 20
47.7312
 30
0.0
 11
155.456
 21
50.8317
 31
0.0
  0
LINE
  8
0
 62
     0
 10
155.456
 20
50.8317
 30
0.0
 11
156.257
 21
50.8317
 31
0.0
  0
LINE
  8
0
 62
     0
 10
156.257
 20
50.8317
 30
0.0
 11
156.257
 21
56.6304
 31
0.0
  0
LINE
  8
0
 62
     0
 10
156.257
 20
56.6304
 30
0.0
 11
155.456
 21
56.6304
 31
0.0
  0
LINE
  8
0
 62
     0
 10
155.456
 20
56.6304
 30
0.0
 11
155.456
 21
59.7309
 31
0.0
  0
LINE
  8
0
 62
     0
 10
155.456
 20
59.7309
 30
0.0
 11
156.257
 21
59.7309
 31
0.0
  0
LINE
  8
0
 62
     0
 10
156.257
 20
59.7309
 30
0.0
 11
156.257
 21
60.7314
 31
0.0
  0
LINE
  8
0
 62
     0
 10
156.257
 20
60.7314
 30
0.0
 11
170.257
 21
60.7314
 31
0.0
  0
LINE
  8
0
 62
     0
 10
170.257
 20
60.7314
 30
0.0
 11
170.257
 21
59.7309
 31
0.0
  0
LINE
  8
0
 62
     0
 10
170.257
 20
59.7309
 30
0.0
 11
171.057
 21
59.7309
 31
0.0
  0
LINE
  8
0
 62
     0
 10
171.057
 20
59.7309
 30
0.0
 11
171.057
 21
56.6304
 31
0.0
  0
LINE
  8
0
 62
     0
 10
171.057
 20
56.6304
 30
0.0
 11
170.257
 21
56.6304
 31
0.0
  0
LINE
  8
0
 62
     0
 10
170.257
 20
56.6304
 30
0.0
 11
170.257
 21
50.8317
 31
0.0
  0
LINE
  8
0
 62
     0
 10
170.257
 20
50.8317
 30
0.0
 11
171.057
 21
50.8317
 31
0.0
  0
LINE
  8
0
 62
     0
 10
171.057
 20
50.8317
 30
0.0
 11
171.057
 21
47.7312
 31
0.0
  0
LINE
  8
0
 62
     0
 10
171.057
 20
47.7312
 30
0.0
 11
170.257
 21
47.7312
 31
0.0
  0
LINE
  8
0
 62
     0
 10
175.019
 20
104.881
 30
0.0
 11
175.019
 21
103.881
 31
0.0
  0
LINE
  8
0
 62
     0
 10
175.019
 20
103.881
 30
0.0
 11
161.018
 21
103.881
 31
0.0
  0
LINE
  8
0
 62
     0
 10
161.018
 20
103.881
 30
0.0
 11
161.018
 21
104.881
 31
0.0
  0
LINE
  8
0
 62
     0
 10
161.018
 20
104.881
 30
0.0
 11
160.219
 21
104.881
 31
0.0
  0
LINE
  8
0
 62
     0
 10
160.219
 20
104.881
 30
0.0
 11
160.219
 21
107.982
 31
0.0
  0
LINE
  8
0
 62
     0
 10
160.219
 20
107.982
 30
0.0
 11
161.018
 21
107.982
 31
0.0
  0
LINE
  8
0
 62
     0
 10
161.018
 20
107.982
 30
0.0
 11
161.018
 21
113.78
 31
0.0
  0
LINE
  8
0
 62
     0
 10
161.018
 20
113.78
 30
0.0
 11
160.219
 21
113.78
 31
0.0
  0
LINE
  8
0
 62
     0
 10
160.219
 20
113.78
 30
0.0
 11
160.219
 21
116.881
 31
0.0
  0
LINE
  8
0
 62
     0
 10
160.219
 20
116.881
 30
0.0
 11
161.018
 21
116.881
 31
0.0
  0
LINE
  8
0
 62
     0
 10
161.018
 20
116.881
 30
0.0
 11
161.018
 21
117.881
 31
0.0
  0
LINE
  8
0
 62
     0
 10
161.018
 20
117.881
 30
0.0
 11
175.019
 21
117.881
 31
0.0
  0
LINE
  8
0
 62
     0
 10
175.019
 20
117.881
 30
0.0
 11
175.019
 21
116.881
 31
0.0
  0
LINE
  8
0
 62
     0
 10
175.019
 20
116.881
 30
0.0
 11
175.818
 21
116.881
 31
0.0
  0
LINE
  8
0
 62
     0
 10
175.818
 20
116.881
 30
0.0
 11
175.818
 21
113.78
 31
0.0
  0
LINE
  8
0
 62
     0
 10
175.818
 20
113.78
 30
0.0
 11
175.019
 21
113.78
 31
0.0
  0
LINE
  8
0
 62
     0
 10
175.019
 20
113.78
 30
0.0
 11
175.019
 21
107.982
 31
0.0
  0
LINE
  8
0
 62
     0
 10
175.019
 20
107.982
 30
0.0
 11
175.818
 21
107.982
 31
0.0
  0
LINE
  8
0
 62
     0
 10
175.818
 20
107.982
 30
0.0
 11
175.818
 21
104.881
 31
0.0
  0
LINE
  8
0
 62
     0
 10
175.818
 20
104.881
 30
0.0
 11
175.019
 21
104.881
 31
0.0
  0
LINE
  8
0
 62
     0
 10
175.019
 20
85.8312
 30
0.0
 11
175.019
 21
84.8307
 31
0.0
  0
LINE
  8
0
 62
     0
 10
175.019
 20
84.8307
 30
0.0
 11
161.018
 21
84.8307
 31
0.0
  0
LINE
  8
0
 62
     0
 10
161.018
 20
84.8307
 30
0.0
 11
161.018
 21
85.8312
 31
0.0
  0
LINE
  8
0
 62
     0
 10
161.018
 20
85.8312
 30
0.0
 11
160.219
 21
85.8312
 31
0.0
  0
LINE
  8
0
 62
     0
 10
160.219
 20
85.8312
 30
0.0
 11
160.219
 21
88.9317
 31
0.0
  0
LINE
  8
0
 62
     0
 10
160.219
 20
88.9317
 30
0.0
 11
161.018
 21
88.9317
 31
0.0
  0
LINE
  8
0
 62
     0
 10
161.018
 20
88.9317
 30
0.0
 11
161.018
 21
94.7304
 31
0.0
  0
LINE
  8
0
 62
     0
 10
161.018
 20
94.7304
 30
0.0
 11
160.219
 21
94.7304
 31
0.0
  0
LINE
  8
0
 62
     0
 10
160.219
 20
94.7304
 30
0.0
 11
160.219
 21
97.8309
 31
0.0
  0
LINE
  8
0
 62
     0
 10
160.219
 20
97.8309
 30
0.0
 11
161.018
 21
97.8309
 31
0.0
  0
LINE
  8
0
 62
     0
 10
161.018
 20
97.8309
 30
0.0
 11
161.018
 21
98.8314
 31
0.0
  0
LINE
  8
0
 62
     0
 10
161.018
 20
98.8314
 30
0.0
 11
175.019
 21
98.8314
 31
0.0
  0
LINE
  8
0
 62
     0
 10
175.019
 20
98.8314
 30
0.0
 11
175.019
 21
97.8309
 31
0.0
  0
LINE
  8
0
 62
     0
 10
175.019
 20
97.8309
 30
0.0
 11
175.818
 21
97.8309
 31
0.0
  0
LINE
  8
0
 62
     0
 10
175.818
 20
97.8309
 30
0.0
 11
175.818
 21
94.7304
 31
0.0
  0
LINE
  8
0
 62
     0
 10
175.818
 20
94.7304
 30
0.0
 11
175.019
 21
94.7304
 31
0.0
  0
LINE
  8
0
 62
     0
 10
175.019
 20
94.7304
 30
0.0
 11
175.019
 21
88.9317
 31
0.0
  0
LINE
  8
0
 62
     0
 10
175.019
 20
88.9317
 30
0.0
 11
175.818
 21
88.9317
 31
0.0
  0
LINE
  8
0
 62
     0
 10
175.818
 20
88.9317
 30
0.0
 11
175.818
 21
85.8312
 31
0.0
  0
LINE
  8
0
 62
     0
 10
175.818
 20
85.8312
 30
0.0
 11
175.019
 21
85.8312
 31
0.0
  0
LINE
  8
0
 62
     0
 10
179.782
 20
28.6811
 30
0.0
 11
179.782
 21
27.6806
 31
0.0
  0
LINE
  8
0
 62
     0
 10
179.782
 20
27.6806
 30
0.0
 11
165.782
 21
27.6806
 31
0.0
  0
LINE
  8
0
 62
     0
 10
165.782
 20
27.6806
 30
0.0
 11
165.782
 21
28.6811
 31
0.0
  0
LINE
  8
0
 62
     0
 10
165.782
 20
28.6811
 30
0.0
 11
164.981
 21
28.6811
 31
0.0
  0
LINE
  8
0
 62
     0
 10
164.981
 20
28.6811
 30
0.0
 11
164.981
 21
31.7817
 31
0.0
  0
LINE
  8
0
 62
     0
 10
164.981
 20
31.7817
 30
0.0
 11
165.782
 21
31.7817
 31
0.0
  0
LINE
  8
0
 62
     0
 10
165.782
 20
31.7817
 30
0.0
 11
165.782
 21
37.5804
 31
0.0
  0
LINE
  8
0
 62
     0
 10
165.782
 20
37.5804
 30
0.0
 11
164.981
 21
37.5804
 31
0.0
  0
LINE
  8
0
 62
     0
 10
164.981
 20
37.5804
 30
0.0
 11
164.981
 21
40.6809
 31
0.0
  0
LINE
  8
0
 62
     0
 10
164.981
 20
40.6809
 30
0.0
 11
165.782
 21
40.6809
 31
0.0
  0
LINE
  8
0
 62
     0
 10
165.782
 20
40.6809
 30
0.0
 11
165.782
 21
41.6814
 31
0.0
  0
LINE
  8
0
 62
     0
 10
165.782
 20
41.6814
 30
0.0
 11
179.782
 21
41.6814
 31
0.0
  0
LINE
  8
0
 62
     0
 10
179.782
 20
41.6814
 30
0.0
 11
179.782
 21
40.6809
 31
0.0
  0
LINE
  8
0
 62
     0
 10
179.782
 20
40.6809
 30
0.0
 11
180.582
 21
40.6809
 31
0.0
  0
LINE
  8
0
 62
     0
 10
180.582
 20
40.6809
 30
0.0
 11
180.582
 21
37.5804
 31
0.0
  0
LINE
  8
0
 62
     0
 10
180.582
 20
37.5804
 30
0.0
 11
179.782
 21
37.5804
 31
0.0
  0
LINE
  8
0
 62
     0
 10
179.782
 20
37.5804
 30
0.0
 11
179.782
 21
31.7817
 31
0.0
  0
LINE
  8
0
 62
     0
 10
179.782
 20
31.7817
 30
0.0
 11
180.582
 21
31.7817
 31
0.0
  0
LINE
  8
0
 62
     0
 10
180.582
 20
31.7817
 30
0.0
 11
180.582
 21
28.6811
 31
0.0
  0
LINE
  8
0
 62
     0
 10
180.582
 20
28.6811
 30
0.0
 11
179.782
 21
28.6811
 31
0.0
  0
LINE
  8
0
 62
     0
 10
184.544
 20
66.7812
 30
0.0
 11
184.544
 21
65.7807
 31
0.0
  0
LINE
  8
0
 62
     0
 10
184.544
 20
65.7807
 30
0.0
 11
170.543
 21
65.7807
 31
0.0
  0
LINE
  8
0
 62
     0
 10
170.543
 20
65.7807
 30
0.0
 11
170.543
 21
66.7812
 31
0.0
  0
LINE
  8
0
 62
     0
 10
170.543
 20
66.7812
 30
0.0
 11
169.744
 21
66.7812
 31
0.0
  0
LINE
  8
0
 62
     0
 10
169.744
 20
66.7812
 30
0.0
 11
169.744
 21
69.8817
 31
0.0
  0
LINE
  8
0
 62
     0
 10
169.744
 20
69.8817
 30
0.0
 11
170.543
 21
69.8817
 31
0.0
  0
LINE
  8
0
 62
     0
 10
170.543
 20
69.8817
 30
0.0
 11
170.543
 21
75.6804
 31
0.0
  0
LINE
  8
0
 62
     0
 10
170.543
 20
75.6804
 30
0.0
 11
169.744
 21
75.6804
 31
0.0
  0
LINE
  8
0
 62
     0
 10
169.744
 20
75.6804
 30
0.0
 11
169.744
 21
78.7809
 31
0.0
  0
LINE
  8
0
 62
     0
 10
169.744
 20
78.7809
 30
0.0
 11
170.543
 21
78.7809
 31
0.0
  0
LINE
  8
0
 62
     0
 10
170.543
 20
78.7809
 30
0.0
 11
170.543
 21
79.7814
 31
0.0
  0
LINE
  8
0
 62
     0
 10
170.543
 20
79.7814
 30
0.0
 11
184.544
 21
79.7814
 31
0.0
  0
LINE
  8
0
 62
     0
 10
184.544
 20
79.7814
 30
0.0
 11
184.544
 21
78.7809
 31
0.0
  0
LINE
  8
0
 62
     0
 10
184.544
 20
78.7809
 30
0.0
 11
185.343
 21
78.7809
 31
0.0
  0
LINE
  8
0
 62
     0
 10
185.343
 20
78.7809
 30
0.0
 11
185.343
 21
75.6804
 31
0.0
  0
LINE
  8
0
 62
     0
 10
185.343
 20
75.6804
 30
0.0
 11
184.544
 21
75.6804
 31
0.0
  0
LINE
  8
0
 62
     0
 10
184.544
 20
75.6804
 30
0.0
 11
184.544
 21
69.8817
 31
0.0
  0
LINE
  8
0
 62
     0
 10
184.544
 20
69.8817
 30
0.0
 11
185.343
 21
69.8817
 31
0.0
  0
LINE
  8
0
 62
     0
 10
185.343
 20
69.8817
 30
0.0
 11
185.343
 21
66.7812
 31
0.0
  0
LINE
  8
0
 62
     0
 10
185.343
 20
66.7812
 30
0.0
 11
184.544
 21
66.7812
 31
0.0
  0
LINE
  8
0
 62
     0
 10
189.307
 20
47.7312
 30
0.0
 11
189.307
 21
46.7307
 31
0.0
  0
LINE
  8
0
 62
     0
 10
189.307
 20
46.7307
 30
0.0
 11
175.307
 21
46.7307
 31
0.0
  0
LINE
  8
0
 62
     0
 10
175.307
 20
46.7307
 30
0.0
 11
175.307
 21
47.7312
 31
0.0
  0
LINE
  8
0
 62
     0
 10
175.307
 20
47.7312
 30
0.0
 11
174.506
 21
47.7312
 31
0.0
  0
LINE
  8
0
 62
     0
 10
174.506
 20
47.7312
 30
0.0
 11
174.506
 21
50.8317
 31
0.0
  0
LINE
  8
0
 62
     0
 10
174.506
 20
50.8317
 30
0.0
 11
175.307
 21
50.8317
 31
0.0
  0
LINE
  8
0
 62
     0
 10
175.307
 20
50.8317
 30
0.0
 11
175.307
 21
56.6304
 31
0.0
  0
LINE
  8
0
 62
     0
 10
175.307
 20
56.6304
 30
0.0
 11
174.506
 21
56.6304
 31
0.0
  0
LINE
  8
0
 62
     0
 10
174.506
 20
56.6304
 30
0.0
 11
174.506
 21
59.7309
 31
0.0
  0
LINE
  8
0
 62
     0
 10
174.506
 20
59.7309
 30
0.0
 11
175.307
 21
59.7309
 31
0.0
  0
LINE
  8
0
 62
     0
 10
175.307
 20
59.7309
 30
0.0
 11
175.307
 21
60.7314
 31
0.0
  0
LINE
  8
0
 62
     0
 10
175.307
 20
60.7314
 30
0.0
 11
189.307
 21
60.7314
 31
0.0
  0
LINE
  8
0
 62
     0
 10
189.307
 20
60.7314
 30
0.0
 11
189.307
 21
59.7309
 31
0.0
  0
LINE
  8
0
 62
     0
 10
189.307
 20
59.7309
 30
0.0
 11
190.107
 21
59.7309
 31
0.0
  0
LINE
  8
0
 62
     0
 10
190.107
 20
59.7309
 30
0.0
 11
190.107
 21
56.6304
 31
0.0
  0
LINE
  8
0
 62
     0
 10
190.107
 20
56.6304
 30
0.0
 11
189.307
 21
56.6304
 31
0.0
  0
LINE
  8
0
 62
     0
 10
189.307
 20
56.6304
 30
0.0
 11
189.307
 21
50.8317
 31
0.0
  0
LINE
  8
0
 62
     0
 10
189.307
 20
50.8317
 30
0.0
 11
190.107
 21
50.8317
 31
0.0
  0
LINE
  8
0
 62
     0
 10
190.107
 20
50.8317
 30
0.0
 11
190.107
 21
47.7312
 31
0.0
  0
LINE
  8
0
 62
     0
 10
190.107
 20
47.7312
 30
0.0
 11
189.307
 21
47.7312
 31
0.0
  0
LINE
  8
0
 62
     0
 10
190.389
 20
15.1309
 30
0.0
 11
190.389
 21
8.86079
 31
0.0
  0
LINE
  8
0
 62
     0
 10
190.389
 20
8.86079
 30
0.0
 11
188.713
 21
8.86079
 31
0.0
  0
LINE
  8
0
 62
     0
 10
188.713
 20
8.86079
 30
0.0
 11
188.713
 21
7.88098
 31
0.0
  0
LINE
  8
0
 62
     0
 10
188.713
 20
7.88098
 30
0.0
 11
185.412
 21
7.88098
 31
0.0
  0
LINE
  8
0
 62
     0
 10
185.412
 20
7.88098
 30
0.0
 11
185.412
 21
8.86079
 31
0.0
  0
LINE
  8
0
 62
     0
 10
185.412
 20
8.86079
 30
0.0
 11
183.738
 21
8.86079
 31
0.0
  0
LINE
  8
0
 62
     0
 10
183.738
 20
8.86079
 30
0.0
 11
183.738
 21
13.3312
 31
0.0
  0
LINE
  8
0
 62
     0
 10
183.738
 20
13.3312
 30
0.0
 11
144.063
 21
13.3312
 31
0.0
  0
LINE
  8
0
 62
     0
 10
144.063
 20
13.3312
 30
0.0
 11
144.063
 21
12.7317
 31
0.0
  0
LINE
  8
0
 62
     0
 10
144.063
 20
12.7317
 30
0.0
 11
144.862
 21
12.7317
 31
0.0
  0
LINE
  8
0
 62
     0
 10
144.862
 20
12.7317
 30
0.0
 11
144.862
 21
9.63112
 31
0.0
  0
LINE
  8
0
 62
     0
 10
144.862
 20
9.63112
 30
0.0
 11
144.063
 21
9.63112
 31
0.0
  0
LINE
  8
0
 62
     0
 10
144.063
 20
9.63112
 30
0.0
 11
144.063
 21
8.63064
 31
0.0
  0
LINE
  8
0
 62
     0
 10
144.063
 20
8.63064
 30
0.0
 11
130.064
 21
8.63064
 31
0.0
  0
LINE
  8
0
 62
     0
 10
130.064
 20
8.63064
 30
0.0
 11
130.064
 21
9.63112
 31
0.0
  0
LINE
  8
0
 62
     0
 10
130.064
 20
9.63112
 30
0.0
 11
129.263
 21
9.63112
 31
0.0
  0
LINE
  8
0
 62
     0
 10
129.263
 20
9.63112
 30
0.0
 11
129.263
 21
12.7317
 31
0.0
  0
LINE
  8
0
 62
     0
 10
129.263
 20
12.7317
 30
0.0
 11
130.064
 21
12.7317
 31
0.0
  0
LINE
  8
0
 62
     0
 10
130.064
 20
12.7317
 30
0.0
 11
130.064
 21
13.3312
 31
0.0
  0
LINE
  8
0
 62
     0
 10
130.064
 20
13.3312
 30
0.0
 11
90.3884
 21
13.3312
 31
0.0
  0
LINE
  8
0
 62
     0
 10
90.3884
 20
13.3312
 30
0.0
 11
90.3884
 21
8.86079
 31
0.0
  0
LINE
  8
0
 62
     0
 10
90.3884
 20
8.86079
 30
0.0
 11
88.7127
 21
8.86079
 31
0.0
  0
LINE
  8
0
 62
     0
 10
88.7127
 20
8.86079
 30
0.0
 11
88.7127
 21
7.88098
 31
0.0
  0
LINE
  8
0
 62
     0
 10
88.7127
 20
7.88098
 30
0.0
 11
85.4121
 21
7.88098
 31
0.0
  0
LINE
  8
0
 62
     0
 10
85.4121
 20
7.88098
 30
0.0
 11
85.4121
 21
8.86079
 31
0.0
  0
LINE
  8
0
 62
     0
 10
85.4121
 20
8.86079
 30
0.0
 11
83.7378
 21
8.86079
 31
0.0
  0
LINE
  8
0
 62
     0
 10
83.7378
 20
8.86079
 30
0.0
 11
83.7378
 21
15.1309
 31
0.0
  0
LINE
  8
0
 62
     0
 10
83.7378
 20
15.1309
 30
0.0
 11
82.8629
 21
15.1309
 31
0.0
  0
LINE
  8
0
 62
     0
 10
82.8629
 20
15.1309
 30
0.0
 11
82.8629
 21
17.931
 31
0.0
  0
LINE
  8
0
 62
     0
 10
82.8629
 20
17.931
 30
0.0
 11
83.7378
 21
17.931
 31
0.0
  0
LINE
  8
0
 62
     0
 10
83.7378
 20
17.931
 30
0.0
 11
83.7378
 21
21.1612
 31
0.0
  0
LINE
  8
0
 62
     0
 10
83.7378
 20
21.1612
 30
0.0
 11
85.4121
 21
21.1612
 31
0.0
  0
LINE
  8
0
 62
     0
 10
85.4121
 20
21.1612
 30
0.0
 11
85.4121
 21
22.0817
 31
0.0
  0
LINE
  8
0
 62
     0
 10
85.4121
 20
22.0817
 30
0.0
 11
88.7127
 21
22.0817
 31
0.0
  0
LINE
  8
0
 62
     0
 10
88.7127
 20
22.0817
 30
0.0
 11
88.7127
 21
21.1612
 31
0.0
  0
LINE
  8
0
 62
     0
 10
88.7127
 20
21.1612
 30
0.0
 11
90.3884
 21
21.1612
 31
0.0
  0
LINE
  8
0
 62
     0
 10
90.3884
 20
21.1612
 30
0.0
 11
90.3884
 21
17.931
 31
0.0
  0
LINE
  8
0
 62
     0
 10
90.3884
 20
17.931
 30
0.0
 11
130.064
 21
17.931
 31
0.0
  0
LINE
  8
0
 62
     0
 10
130.064
 20
17.931
 30
0.0
 11
130.064
 21
18.5305
 31
0.0
  0
LINE
  8
0
 62
     0
 10
130.064
 20
18.5305
 30
0.0
 11
129.263
 21
18.5305
 31
0.0
  0
LINE
  8
0
 62
     0
 10
129.263
 20
18.5305
 30
0.0
 11
129.263
 21
21.6311
 31
0.0
  0
LINE
  8
0
 62
     0
 10
129.263
 20
21.6311
 30
0.0
 11
130.064
 21
21.6311
 31
0.0
  0
LINE
  8
0
 62
     0
 10
130.064
 20
21.6311
 30
0.0
 11
130.064
 21
22.6315
 31
0.0
  0
LINE
  8
0
 62
     0
 10
130.064
 20
22.6315
 30
0.0
 11
144.063
 21
22.6315
 31
0.0
  0
LINE
  8
0
 62
     0
 10
144.063
 20
22.6315
 30
0.0
 11
144.063
 21
21.6311
 31
0.0
  0
LINE
  8
0
 62
     0
 10
144.063
 20
21.6311
 30
0.0
 11
144.862
 21
21.6311
 31
0.0
  0
LINE
  8
0
 62
     0
 10
144.862
 20
21.6311
 30
0.0
 11
144.862
 21
18.5305
 31
0.0
  0
LINE
  8
0
 62
     0
 10
144.862
 20
18.5305
 30
0.0
 11
144.063
 21
18.5305
 31
0.0
  0
LINE
  8
0
 62
     0
 10
144.063
 20
18.5305
 30
0.0
 11
144.063
 21
17.931
 31
0.0
  0
LINE
  8
0
 62
     0
 10
144.063
 20
17.931
 30
0.0
 11
183.738
 21
17.931
 31
0.0
  0
LINE
  8
0
 62
     0
 10
183.738
 20
17.931
 30
0.0
 11
183.738
 21
21.1612
 31
0.0
  0
LINE
  8
0
 62
     0
 10
183.738
 20
21.1612
 30
0.0
 11
185.412
 21
21.1612
 31
0.0
  0
LINE
  8
0
 62
     0
 10
185.412
 20
21.1612
 30
0.0
 11
185.412
 21
22.0817
 31
0.0
  0
LINE
  8
0
 62
     0
 10
185.412
 20
22.0817
 30
0.0
 11
188.713
 21
22.0817
 31
0.0
  0
LINE
  8
0
 62
     0
 10
188.713
 20
22.0817
 30
0.0
 11
188.713
 21
21.1612
 31
0.0
  0
LINE
  8
0
 62
     0
 10
188.713
 20
21.1612
 30
0.0
 11
190.389
 21
21.1612
 31
0.0
  0
LINE
  8
0
 62
     0
 10
190.389
 20
21.1612
 30
0.0
 11
190.389
 21
17.931
 31
0.0
  0
LINE
  8
0
 62
     0
 10
190.389
 20
17.931
 30
0.0
 11
191.263
 21
17.931
 31
0.0
  0
LINE
  8
0
 62
     0
 10
191.263
 20
17.931
 30
0.0
 11
191.263
 21
15.1309
 31
0.0
  0
LINE
  8
0
 62
     0
 10
191.263
 20
15.1309
 30
0.0
 11
190.389
 21
15.1309
 31
0.0
  0
LINE
  8
0
 62
     0
 10
194.069
 20
104.881
 30
0.0
 11
194.069
 21
103.881
 31
0.0
  0
LINE
  8
0
 62
     0
 10
194.069
 20
103.881
 30
0.0
 11
180.068
 21
103.881
 31
0.0
  0
LINE
  8
0
 62
     0
 10
180.068
 20
103.881
 30
0.0
 11
180.068
 21
104.881
 31
0.0
  0
LINE
  8
0
 62
     0
 10
180.068
 20
104.881
 30
0.0
 11
179.269
 21
104.881
 31
0.0
  0
LINE
  8
0
 62
     0
 10
179.269
 20
104.881
 30
0.0
 11
179.269
 21
107.982
 31
0.0
  0
LINE
  8
0
 62
     0
 10
179.269
 20
107.982
 30
0.0
 11
180.068
 21
107.982
 31
0.0
  0
LINE
  8
0
 62
     0
 10
180.068
 20
107.982
 30
0.0
 11
180.068
 21
113.78
 31
0.0
  0
LINE
  8
0
 62
     0
 10
180.068
 20
113.78
 30
0.0
 11
179.269
 21
113.78
 31
0.0
  0
LINE
  8
0
 62
     0
 10
179.269
 20
113.78
 30
0.0
 11
179.269
 21
116.881
 31
0.0
  0
LINE
  8
0
 62
     0
 10
179.269
 20
116.881
 30
0.0
 11
180.068
 21
116.881
 31
0.0
  0
LINE
  8
0
 62
     0
 10
180.068
 20
116.881
 30
0.0
 11
180.068
 21
117.881
 31
0.0
  0
LINE
  8
0
 62
     0
 10
180.068
 20
117.881
 30
0.0
 11
194.069
 21
117.881
 31
0.0
  0
LINE
  8
0
 62
     0
 10
194.069
 20
117.881
 30
0.0
 11
194.069
 21
116.881
 31
0.0
  0
LINE
  8
0
 62
     0
 10
194.069
 20
116.881
 30
0.0
 11
194.868
 21
116.881
 31
0.0
  0
LINE
  8
0
 62
     0
 10
194.868
 20
116.881
 30
0.0
 11
194.868
 21
113.78
 31
0.0
  0
LINE
  8
0
 62
     0
 10
194.868
 20
113.78
 30
0.0
 11
194.069
 21
113.78
 31
0.0
  0
LINE
  8
0
 62
     0
 10
194.069
 20
113.78
 30
0.0
 11
194.069
 21
107.982
 31
0.0
  0
LINE
  8
0
 62
     0
 10
194.069
 20
107.982
 30
0.0
 11
194.868
 21
107.982
 31
0.0
  0
LINE
  8
0
 62
     0
 10
194.868
 20
107.982
 30
0.0
 11
194.868
 21
104.881
 31
0.0
  0
LINE
  8
0
 62
     0
 10
194.868
 20
104.881
 30
0.0
 11
194.069
 21
104.881
 31
0.0
  0
LINE
  8
0
 62
     0
 10
194.069
 20
85.8312
 30
0.0
 11
194.069
 21
84.8307
 31
0.0
  0
LINE
  8
0
 62
     0
 10
194.069
 20
84.8307
 30
0.0
 11
180.068
 21
84.8307
 31
0.0
  0
LINE
  8
0
 62
     0
 10
180.068
 20
84.8307
 30
0.0
 11
180.068
 21
85.8312
 31
0.0
  0
LINE
  8
0
 62
     0
 10
180.068
 20
85.8312
 30
0.0
 11
179.269
 21
85.8312
 31
0.0
  0
LINE
  8
0
 62
     0
 10
179.269
 20
85.8312
 30
0.0
 11
179.269
 21
88.9317
 31
0.0
  0
LINE
  8
0
 62
     0
 10
179.269
 20
88.9317
 30
0.0
 11
180.068
 21
88.9317
 31
0.0
  0
LINE
  8
0
 62
     0
 10
180.068
 20
88.9317
 30
0.0
 11
180.068
 21
94.7304
 31
0.0
  0
LINE
  8
0
 62
     0
 10
180.068
 20
94.7304
 30
0.0
 11
179.269
 21
94.7304
 31
0.0
  0
LINE
  8
0
 62
     0
 10
179.269
 20
94.7304
 30
0.0
 11
179.269
 21
97.8309
 31
0.0
  0
LINE
  8
0
 62
     0
 10
179.269
 20
97.8309
 30
0.0
 11
180.068
 21
97.8309
 31
0.0
  0
LINE
  8
0
 62
     0
 10
180.068
 20
97.8309
 30
0.0
 11
180.068
 21
98.8314
 31
0.0
  0
LINE
  8
0
 62
     0
 10
180.068
 20
98.8314
 30
0.0
 11
194.069
 21
98.8314
 31
0.0
  0
LINE
  8
0
 62
     0
 10
194.069
 20
98.8314
 30
0.0
 11
194.069
 21
97.8309
 31
0.0
  0
LINE
  8
0
 62
     0
 10
194.069
 20
97.8309
 30
0.0
 11
194.868
 21
97.8309
 31
0.0
  0
LINE
  8
0
 62
     0
 10
194.868
 20
97.8309
 30
0.0
 11
194.868
 21
94.7304
 31
0.0
  0
LINE
  8
0
 62
     0
 10
194.868
 20
94.7304
 30
0.0
 11
194.069
 21
94.7304
 31
0.0
  0
LINE
  8
0
 62
     0
 10
194.069
 20
94.7304
 30
0.0
 11
194.069
 21
88.9317
 31
0.0
  0
LINE
  8
0
 62
     0
 10
194.069
 20
88.9317
 30
0.0
 11
194.868
 21
88.9317
 31
0.0
  0
LINE
  8
0
 62
     0
 10
194.868
 20
88.9317
 30
0.0
 11
194.868
 21
85.8312
 31
0.0
  0
LINE
  8
0
 62
     0
 10
194.868
 20
85.8312
 30
0.0
 11
194.069
 21
85.8312
 31
0.0
  0
LINE
  8
0
 62
     0
 10
198.832
 20
28.6811
 30
0.0
 11
198.832
 21
27.6806
 31
0.0
  0
LINE
  8
0
 62
     0
 10
198.832
 20
27.6806
 30
0.0
 11
184.832
 21
27.6806
 31
0.0
  0
LINE
  8
0
 62
     0
 10
184.832
 20
27.6806
 30
0.0
 11
184.832
 21
28.6811
 31
0.0
  0
LINE
  8
0
 62
     0
 10
184.832
 20
28.6811
 30
0.0
 11
184.031
 21
28.6811
 31
0.0
  0
LINE
  8
0
 62
     0
 10
184.031
 20
28.6811
 30
0.0
 11
184.031
 21
31.7817
 31
0.0
  0
LINE
  8
0
 62
     0
 10
184.031
 20
31.7817
 30
0.0
 11
184.832
 21
31.7817
 31
0.0
  0
LINE
  8
0
 62
     0
 10
184.832
 20
31.7817
 30
0.0
 11
184.832
 21
37.5804
 31
0.0
  0
LINE
  8
0
 62
     0
 10
184.832
 20
37.5804
 30
0.0
 11
184.031
 21
37.5804
 31
0.0
  0
LINE
  8
0
 62
     0
 10
184.031
 20
37.5804
 30
0.0
 11
184.031
 21
40.6809
 31
0.0
  0
LINE
  8
0
 62
     0
 10
184.031
 20
40.6809
 30
0.0
 11
184.832
 21
40.6809
 31
0.0
  0
LINE
  8
0
 62
     0
 10
184.832
 20
40.6809
 30
0.0
 11
184.832
 21
41.6814
 31
0.0
  0
LINE
  8
0
 62
     0
 10
184.832
 20
41.6814
 30
0.0
 11
198.832
 21
41.6814
 31
0.0
  0
LINE
  8
0
 62
     0
 10
198.832
 20
41.6814
 30
0.0
 11
198.832
 21
40.6809
 31
0.0
  0
LINE
  8
0
 62
     0
 10
198.832
 20
40.6809
 30
0.0
 11
199.632
 21
40.6809
 31
0.0
  0
LINE
  8
0
 62
     0
 10
199.632
 20
40.6809
 30
0.0
 11
199.632
 21
37.5804
 31
0.0
  0
LINE
  8
0
 62
     0
 10
199.632
 20
37.5804
 30
0.0
 11
198.832
 21
37.5804
 31
0.0
  0
LINE
  8
0
 62
     0
 10
198.832
 20
37.5804
 30
0.0
 11
198.832
 21
31.7817
 31
0.0
  0
LINE
  8
0
 62
     0
 10
198.832
 20
31.7817
 30
0.0
 11
199.632
 21
31.7817
 31
0.0
  0
LINE
  8
0
 62
     0
 10
199.632
 20
31.7817
 30
0.0
 11
199.632
 21
28.6811
 31
0.0
  0
LINE
  8
0
 62
     0
 10
199.632
 20
28.6811
 30
0.0
 11
198.832
 21
28.6811
 31
0.0
  0
LINE
  8
0
 62
     0
 10
203.594
 20
66.7812
 30
0.0
 11
203.594
 21
65.7807
 31
0.0
  0
LINE
  8
0
 62
     0
 10
203.594
 20
65.7807
 30
0.0
 11
189.593
 21
65.7807
 31
0.0
  0
LINE
  8
0
 62
     0
 10
189.593
 20
65.7807
 30
0.0
 11
189.593
 21
66.7812
 31
0.0
  0
LINE
  8
0
 62
     0
 10
189.593
 20
66.7812
 30
0.0
 11
188.794
 21
66.7812
 31
0.0
  0
LINE
  8
0
 62
     0
 10
188.794
 20
66.7812
 30
0.0
 11
188.794
 21
69.8817
 31
0.0
  0
LINE
  8
0
 62
     0
 10
188.794
 20
69.8817
 30
0.0
 11
189.593
 21
69.8817
 31
0.0
  0
LINE
  8
0
 62
     0
 10
189.593
 20
69.8817
 30
0.0
 11
189.593
 21
75.6804
 31
0.0
  0
LINE
  8
0
 62
     0
 10
189.593
 20
75.6804
 30
0.0
 11
188.794
 21
75.6804
 31
0.0
  0
LINE
  8
0
 62
     0
 10
188.794
 20
75.6804
 30
0.0
 11
188.794
 21
78.7809
 31
0.0
  0
LINE
  8
0
 62
     0
 10
188.794
 20
78.7809
 30
0.0
 11
189.593
 21
78.7809
 31
0.0
  0
LINE
  8
0
 62
     0
 10
189.593
 20
78.7809
 30
0.0
 11
189.593
 21
79.7814
 31
0.0
  0
LINE
  8
0
 62
     0
 10
189.593
 20
79.7814
 30
0.0
 11
203.594
 21
79.7814
 31
0.0
  0
LINE
  8
0
 62
     0
 10
203.594
 20
79.7814
 30
0.0
 11
203.594
 21
78.7809
 31
0.0
  0
LINE
  8
0
 62
     0
 10
203.594
 20
78.7809
 30
0.0
 11
204.393
 21
78.7809
 31
0.0
  0
LINE
  8
0
 62
     0
 10
204.393
 20
78.7809
 30
0.0
 11
204.393
 21
75.6804
 31
0.0
  0
LINE
  8
0
 62
     0
 10
204.393
 20
75.6804
 30
0.0
 11
203.594
 21
75.6804
 31
0.0
  0
LINE
  8
0
 62
     0
 10
203.594
 20
75.6804
 30
0.0
 11
203.594
 21
69.8817
 31
0.0
  0
LINE
  8
0
 62
     0
 10
203.594
 20
69.8817
 30
0.0
 11
204.393
 21
69.8817
 31
0.0
  0
LINE
  8
0
 62
     0
 10
204.393
 20
69.8817
 30
0.0
 11
204.393
 21
66.7812
 31
0.0
  0
LINE
  8
0
 62
     0
 10
204.393
 20
66.7812
 30
0.0
 11
203.594
 21
66.7812
 31
0.0
  0
LINE
  8
0
 62
     0
 10
208.357
 20
47.7312
 30
0.0
 11
208.357
 21
46.7307
 31
0.0
  0
LINE
  8
0
 62
     0
 10
208.357
 20
46.7307
 30
0.0
 11
194.357
 21
46.7307
 31
0.0
  0
LINE
  8
0
 62
     0
 10
194.357
 20
46.7307
 30
0.0
 11
194.357
 21
47.7312
 31
0.0
  0
LINE
  8
0
 62
     0
 10
194.357
 20
47.7312
 30
0.0
 11
193.556
 21
47.7312
 31
0.0
  0
LINE
  8
0
 62
     0
 10
193.556
 20
47.7312
 30
0.0
 11
193.556
 21
50.8317
 31
0.0
  0
LINE
  8
0
 62
     0
 10
193.556
 20
50.8317
 30
0.0
 11
194.357
 21
50.8317
 31
0.0
  0
LINE
  8
0
 62
     0
 10
194.357
 20
50.8317
 30
0.0
 11
194.357
 21
56.6304
 31
0.0
  0
LINE
  8
0
 62
     0
 10
194.357
 20
56.6304
 30
0.0
 11
193.556
 21
56.6304
 31
0.0
  0
LINE
  8
0
 62
     0
 10
193.556
 20
56.6304
 30
0.0
 11
193.556
 21
59.7309
 31
0.0
  0
LINE
  8
0
 62
     0
 10
193.556
 20
59.7309
 30
0.0
 11
194.357
 21
59.7309
 31
0.0
  0
LINE
  8
0
 62
     0
 10
194.357
 20
59.7309
 30
0.0
 11
194.357
 21
60.7314
 31
0.0
  0
LINE
  8
0
 62
     0
 10
194.357
 20
60.7314
 30
0.0
 11
208.357
 21
60.7314
 31
0.0
  0
LINE
  8
0
 62
     0
 10
208.357
 20
60.7314
 30
0.0
 11
208.357
 21
59.7309
 31
0.0
  0
LINE
  8
0
 62
     0
 10
208.357
 20
59.7309
 30
0.0
 11
209.157
 21
59.7309
 31
0.0
  0
LINE
  8
0
 62
     0
 10
209.157
 20
59.7309
 30
0.0
 11
209.157
 21
56.6304
 31
0.0
  0
LINE
  8
0
 62
     0
 10
209.157
 20
56.6304
 30
0.0
 11
208.357
 21
56.6304
 31
0.0
  0
LINE
  8
0
 62
     0
 10
208.357
 20
56.6304
 30
0.0
 11
208.357
 21
50.8317
 31
0.0
  0
LINE
  8
0
 62
     0
 10
208.357
 20
50.8317
 30
0.0
 11
209.157
 21
50.8317
 31
0.0
  0
LINE
  8
0
 62
     0
 10
209.157
 20
50.8317
 30
0.0
 11
209.157
 21
47.7312
 31
0.0
  0
LINE
  8
0
 62
     0
 10
209.157
 20
47.7312
 30
0.0
 11
208.357
 21
47.7312
 31
0.0
  0
LINE
  8
0
 62
     0
 10
213.119
 20
9.63112
 30
0.0
 11
213.119
 21
8.63064
 31
0.0
  0
LINE
  8
0
 62
     0
 10
213.119
 20
8.63064
 30
0.0
 11
199.118
 21
8.63064
 31
0.0
  0
LINE
  8
0
 62
     0
 10
199.118
 20
8.63064
 30
0.0
 11
199.118
 21
9.63112
 31
0.0
  0
LINE
  8
0
 62
     0
 10
199.118
 20
9.63112
 30
0.0
 11
198.319
 21
9.63112
 31
0.0
  0
LINE
  8
0
 62
     0
 10
198.319
 20
9.63112
 30
0.0
 11
198.319
 21
12.7317
 31
0.0
  0
LINE
  8
0
 62
     0
 10
198.319
 20
12.7317
 30
0.0
 11
199.118
 21
12.7317
 31
0.0
  0
LINE
  8
0
 62
     0
 10
199.118
 20
12.7317
 30
0.0
 11
199.118
 21
18.5305
 31
0.0
  0
LINE
  8
0
 62
     0
 10
199.118
 20
18.5305
 30
0.0
 11
198.319
 21
18.5305
 31
0.0
  0
LINE
  8
0
 62
     0
 10
198.319
 20
18.5305
 30
0.0
 11
198.319
 21
21.6311
 31
0.0
  0
LINE
  8
0
 62
     0
 10
198.319
 20
21.6311
 30
0.0
 11
199.118
 21
21.6311
 31
0.0
  0
LINE
  8
0
 62
     0
 10
199.118
 20
21.6311
 30
0.0
 11
199.118
 21
22.6315
 31
0.0
  0
LINE
  8
0
 62
     0
 10
199.118
 20
22.6315
 30
0.0
 11
213.119
 21
22.6315
 31
0.0
  0
LINE
  8
0
 62
     0
 10
213.119
 20
22.6315
 30
0.0
 11
213.119
 21
21.6311
 31
0.0
  0
LINE
  8
0
 62
     0
 10
213.119
 20
21.6311
 30
0.0
 11
213.918
 21
21.6311
 31
0.0
  0
LINE
  8
0
 62
     0
 10
213.918
 20
21.6311
 30
0.0
 11
213.918
 21
18.5305
 31
0.0
  0
LINE
  8
0
 62
     0
 10
213.918
 20
18.5305
 30
0.0
 11
213.119
 21
18.5305
 31
0.0
  0
LINE
  8
0
 62
     0
 10
213.119
 20
18.5305
 30
0.0
 11
213.119
 21
12.7317
 31
0.0
  0
LINE
  8
0
 62
     0
 10
213.119
 20
12.7317
 30
0.0
 11
213.918
 21
12.7317
 31
0.0
  0
LINE
  8
0
 62
     0
 10
213.918
 20
12.7317
 30
0.0
 11
213.918
 21
9.63112
 31
0.0
  0
LINE
  8
0
 62
     0
 10
213.918
 20
9.63112
 30
0.0
 11
213.119
 21
9.63112
 31
0.0
  0
LINE
  8
0
 62
     0
 10
213.119
 20
104.881
 30
0.0
 11
213.119
 21
103.881
 31
0.0
  0
LINE
  8
0
 62
     0
 10
213.119
 20
103.881
 30
0.0
 11
199.118
 21
103.881
 31
0.0
  0
LINE
  8
0
 62
     0
 10
199.118
 20
103.881
 30
0.0
 11
199.118
 21
104.881
 31
0.0
  0
LINE
  8
0
 62
     0
 10
199.118
 20
104.881
 30
0.0
 11
198.319
 21
104.881
 31
0.0
  0
LINE
  8
0
 62
     0
 10
198.319
 20
104.881
 30
0.0
 11
198.319
 21
107.982
 31
0.0
  0
LINE
  8
0
 62
     0
 10
198.319
 20
107.982
 30
0.0
 11
199.118
 21
107.982
 31
0.0
  0
LINE
  8
0
 62
     0
 10
199.118
 20
107.982
 30
0.0
 11
199.118
 21
113.78
 31
0.0
  0
LINE
  8
0
 62
     0
 10
199.118
 20
113.78
 30
0.0
 11
198.319
 21
113.78
 31
0.0
  0
LINE
  8
0
 62
     0
 10
198.319
 20
113.78
 30
0.0
 11
198.319
 21
116.881
 31
0.0
  0
LINE
  8
0
 62
     0
 10
198.319
 20
116.881
 30
0.0
 11
199.118
 21
116.881
 31
0.0
  0
LINE
  8
0
 62
     0
 10
199.118
 20
116.881
 30
0.0
 11
199.118
 21
117.881
 31
0.0
  0
LINE
  8
0
 62
     0
 10
199.118
 20
117.881
 30
0.0
 11
213.119
 21
117.881
 31
0.0
  0
LINE
  8
0
 62
     0
 10
213.119
 20
117.881
 30
0.0
 11
213.119
 21
116.881
 31
0.0
  0
LINE
  8
0
 62
     0
 10
213.119
 20
116.881
 30
0.0
 11
213.918
 21
116.881
 31
0.0
  0
LINE
  8
0
 62
     0
 10
213.918
 20
116.881
 30
0.0
 11
213.918
 21
113.78
 31
0.0
  0
LINE
  8
0
 62
     0
 10
213.918
 20
113.78
 30
0.0
 11
213.119
 21
113.78
 31
0.0
  0
LINE
  8
0
 62
     0
 10
213.119
 20
113.78
 30
0.0
 11
213.119
 21
107.982
 31
0.0
  0
LINE
  8
0
 62
     0
 10
213.119
 20
107.982
 30
0.0
 11
213.918
 21
107.982
 31
0.0
  0
LINE
  8
0
 62
     0
 10
213.918
 20
107.982
 30
0.0
 11
213.918
 21
104.881
 31
0.0
  0
LINE
  8
0
 62
     0
 10
213.918
 20
104.881
 30
0.0
 11
213.119
 21
104.881
 31
0.0
  0
LINE
  8
0
 62
     0
 10
213.119
 20
85.8312
 30
0.0
 11
213.119
 21
84.8307
 31
0.0
  0
LINE
  8
0
 62
     0
 10
213.119
 20
84.8307
 30
0.0
 11
199.118
 21
84.8307
 31
0.0
  0
LINE
  8
0
 62
     0
 10
199.118
 20
84.8307
 30
0.0
 11
199.118
 21
85.8312
 31
0.0
  0
LINE
  8
0
 62
     0
 10
199.118
 20
85.8312
 30
0.0
 11
198.319
 21
85.8312
 31
0.0
  0
LINE
  8
0
 62
     0
 10
198.319
 20
85.8312
 30
0.0
 11
198.319
 21
88.9317
 31
0.0
  0
LINE
  8
0
 62
     0
 10
198.319
 20
88.9317
 30
0.0
 11
199.118
 21
88.9317
 31
0.0
  0
LINE
  8
0
 62
     0
 10
199.118
 20
88.9317
 30
0.0
 11
199.118
 21
94.7304
 31
0.0
  0
LINE
  8
0
 62
     0
 10
199.118
 20
94.7304
 30
0.0
 11
198.319
 21
94.7304
 31
0.0
  0
LINE
  8
0
 62
     0
 10
198.319
 20
94.7304
 30
0.0
 11
198.319
 21
97.8309
 31
0.0
  0
LINE
  8
0
 62
     0
 10
198.319
 20
97.8309
 30
0.0
 11
199.118
 21
97.8309
 31
0.0
  0
LINE
  8
0
 62
     0
 10
199.118
 20
97.8309
 30
0.0
 11
199.118
 21
98.8314
 31
0.0
  0
LINE
  8
0
 62
     0
 10
199.118
 20
98.8314
 30
0.0
 11
213.119
 21
98.8314
 31
0.0
  0
LINE
  8
0
 62
     0
 10
213.119
 20
98.8314
 30
0.0
 11
213.119
 21
97.8309
 31
0.0
  0
LINE
  8
0
 62
     0
 10
213.119
 20
97.8309
 30
0.0
 11
213.918
 21
97.8309
 31
0.0
  0
LINE
  8
0
 62
     0
 10
213.918
 20
97.8309
 30
0.0
 11
213.918
 21
94.7304
 31
0.0
  0
LINE
  8
0
 62
     0
 10
213.918
 20
94.7304
 30
0.0
 11
213.119
 21
94.7304
 31
0.0
  0
LINE
  8
0
 62
     0
 10
213.119
 20
94.7304
 30
0.0
 11
213.119
 21
88.9317
 31
0.0
  0
LINE
  8
0
 62
     0
 10
213.119
 20
88.9317
 30
0.0
 11
213.918
 21
88.9317
 31
0.0
  0
LINE
  8
0
 62
     0
 10
213.918
 20
88.9317
 30
0.0
 11
213.918
 21
85.8312
 31
0.0
  0
LINE
  8
0
 62
     0
 10
213.918
 20
85.8312
 30
0.0
 11
213.119
 21
85.8312
 31
0.0
  0
LINE
  8
0
 62
     0
 10
217.882
 20
28.6811
 30
0.0
 11
217.882
 21
27.6806
 31
0.0
  0
LINE
  8
0
 62
     0
 10
217.882
 20
27.6806
 30
0.0
 11
203.882
 21
27.6806
 31
0.0
  0
LINE
  8
0
 62
     0
 10
203.882
 20
27.6806
 30
0.0
 11
203.882
 21
28.6811
 31
0.0
  0
LINE
  8
0
 62
     0
 10
203.882
 20
28.6811
 30
0.0
 11
203.081
 21
28.6811
 31
0.0
  0
LINE
  8
0
 62
     0
 10
203.081
 20
28.6811
 30
0.0
 11
203.081
 21
31.7817
 31
0.0
  0
LINE
  8
0
 62
     0
 10
203.081
 20
31.7817
 30
0.0
 11
203.882
 21
31.7817
 31
0.0
  0
LINE
  8
0
 62
     0
 10
203.882
 20
31.7817
 30
0.0
 11
203.882
 21
37.5804
 31
0.0
  0
LINE
  8
0
 62
     0
 10
203.882
 20
37.5804
 30
0.0
 11
203.081
 21
37.5804
 31
0.0
  0
LINE
  8
0
 62
     0
 10
203.081
 20
37.5804
 30
0.0
 11
203.081
 21
40.6809
 31
0.0
  0
LINE
  8
0
 62
     0
 10
203.081
 20
40.6809
 30
0.0
 11
203.882
 21
40.6809
 31
0.0
  0
LINE
  8
0
 62
     0
 10
203.882
 20
40.6809
 30
0.0
 11
203.882
 21
41.6814
 31
0.0
  0
LINE
  8
0
 62
     0
 10
203.882
 20
41.6814
 30
0.0
 11
217.882
 21
41.6814
 31
0.0
  0
LINE
  8
0
 62
     0
 10
217.882
 20
41.6814
 30
0.0
 11
217.882
 21
40.6809
 31
0.0
  0
LINE
  8
0
 62
     0
 10
217.882
 20
40.6809
 30
0.0
 11
218.682
 21
40.6809
 31
0.0
  0
LINE
  8
0
 62
     0
 10
218.682
 20
40.6809
 30
0.0
 11
218.682
 21
37.5804
 31
0.0
  0
LINE
  8
0
 62
     0
 10
218.682
 20
37.5804
 30
0.0
 11
217.882
 21
37.5804
 31
0.0
  0
LINE
  8
0
 62
     0
 10
217.882
 20
37.5804
 30
0.0
 11
217.882
 21
31.7817
 31
0.0
  0
LINE
  8
0
 62
     0
 10
217.882
 20
31.7817
 30
0.0
 11
218.682
 21
31.7817
 31
0.0
  0
LINE
  8
0
 62
     0
 10
218.682
 20
31.7817
 30
0.0
 11
218.682
 21
28.6811
 31
0.0
  0
LINE
  8
0
 62
     0
 10
218.682
 20
28.6811
 30
0.0
 11
217.882
 21
28.6811
 31
0.0
  0
LINE
  8
0
 62
     0
 10
222.644
 20
66.7812
 30
0.0
 11
222.644
 21
65.7807
 31
0.0
  0
LINE
  8
0
 62
     0
 10
222.644
 20
65.7807
 30
0.0
 11
208.643
 21
65.7807
 31
0.0
  0
LINE
  8
0
 62
     0
 10
208.643
 20
65.7807
 30
0.0
 11
208.643
 21
66.7812
 31
0.0
  0
LINE
  8
0
 62
     0
 10
208.643
 20
66.7812
 30
0.0
 11
207.844
 21
66.7812
 31
0.0
  0
LINE
  8
0
 62
     0
 10
207.844
 20
66.7812
 30
0.0
 11
207.844
 21
69.8817
 31
0.0
  0
LINE
  8
0
 62
     0
 10
207.844
 20
69.8817
 30
0.0
 11
208.643
 21
69.8817
 31
0.0
  0
LINE
  8
0
 62
     0
 10
208.643
 20
69.8817
 30
0.0
 11
208.643
 21
75.6804
 31
0.0
  0
LINE
  8
0
 62
     0
 10
208.643
 20
75.6804
 30
0.0
 11
207.844
 21
75.6804
 31
0.0
  0
LINE
  8
0
 62
     0
 10
207.844
 20
75.6804
 30
0.0
 11
207.844
 21
78.7809
 31
0.0
  0
LINE
  8
0
 62
     0
 10
207.844
 20
78.7809
 30
0.0
 11
208.643
 21
78.7809
 31
0.0
  0
LINE
  8
0
 62
     0
 10
208.643
 20
78.7809
 30
0.0
 11
208.643
 21
79.7814
 31
0.0
  0
LINE
  8
0
 62
     0
 10
208.643
 20
79.7814
 30
0.0
 11
222.644
 21
79.7814
 31
0.0
  0
LINE
  8
0
 62
     0
 10
222.644
 20
79.7814
 30
0.0
 11
222.644
 21
78.7809
 31
0.0
  0
LINE
  8
0
 62
     0
 10
222.644
 20
78.7809
 30
0.0
 11
223.443
 21
78.7809
 31
0.0
  0
LINE
  8
0
 62
     0
 10
223.443
 20
78.7809
 30
0.0
 11
223.443
 21
75.6804
 31
0.0
  0
LINE
  8
0
 62
     0
 10
223.443
 20
75.6804
 30
0.0
 11
222.644
 21
75.6804
 31
0.0
  0
LINE
  8
0
 62
     0
 10
222.644
 20
75.6804
 30
0.0
 11
222.644
 21
69.8817
 31
0.0
  0
LINE
  8
0
 62
     0
 10
222.644
 20
69.8817
 30
0.0
 11
223.443
 21
69.8817
 31
0.0
  0
LINE
  8
0
 62
     0
 10
223.443
 20
69.8817
 30
0.0
 11
223.443
 21
66.7812
 31
0.0
  0
LINE
  8
0
 62
     0
 10
223.443
 20
66.7812
 30
0.0
 11
222.644
 21
66.7812
 31
0.0
  0
LINE
  8
0
 62
     0
 10
227.407
 20
47.7312
 30
0.0
 11
227.407
 21
46.7307
 31
0.0
  0
LINE
  8
0
 62
     0
 10
227.407
 20
46.7307
 30
0.0
 11
213.407
 21
46.7307
 31
0.0
  0
LINE
  8
0
 62
     0
 10
213.407
 20
46.7307
 30
0.0
 11
213.407
 21
47.7312
 31
0.0
  0
LINE
  8
0
 62
     0
 10
213.407
 20
47.7312
 30
0.0
 11
212.606
 21
47.7312
 31
0.0
  0
LINE
  8
0
 62
     0
 10
212.606
 20
47.7312
 30
0.0
 11
212.606
 21
50.8317
 31
0.0
  0
LINE
  8
0
 62
     0
 10
212.606
 20
50.8317
 30
0.0
 11
213.407
 21
50.8317
 31
0.0
  0
LINE
  8
0
 62
     0
 10
213.407
 20
50.8317
 30
0.0
 11
213.407
 21
56.6304
 31
0.0
  0
LINE
  8
0
 62
     0
 10
213.407
 20
56.6304
 30
0.0
 11
212.606
 21
56.6304
 31
0.0
  0
LINE
  8
0
 62
     0
 10
212.606
 20
56.6304
 30
0.0
 11
212.606
 21
59.7309
 31
0.0
  0
LINE
  8
0
 62
     0
 10
212.606
 20
59.7309
 30
0.0
 11
213.407
 21
59.7309
 31
0.0
  0
LINE
  8
0
 62
     0
 10
213.407
 20
59.7309
 30
0.0
 11
213.407
 21
60.7314
 31
0.0
  0
LINE
  8
0
 62
     0
 10
213.407
 20
60.7314
 30
0.0
 11
227.407
 21
60.7314
 31
0.0
  0
LINE
  8
0
 62
     0
 10
227.407
 20
60.7314
 30
0.0
 11
227.407
 21
59.7309
 31
0.0
  0
LINE
  8
0
 62
     0
 10
227.407
 20
59.7309
 30
0.0
 11
228.207
 21
59.7309
 31
0.0
  0
LINE
  8
0
 62
     0
 10
228.207
 20
59.7309
 30
0.0
 11
228.207
 21
56.6304
 31
0.0
  0
LINE
  8
0
 62
     0
 10
228.207
 20
56.6304
 30
0.0
 11
227.407
 21
56.6304
 31
0.0
  0
LINE
  8
0
 62
     0
 10
227.407
 20
56.6304
 30
0.0
 11
227.407
 21
50.8317
 31
0.0
  0
LINE
  8
0
 62
     0
 10
227.407
 20
50.8317
 30
0.0
 11
228.207
 21
50.8317
 31
0.0
  0
LINE
  8
0
 62
     0
 10
228.207
 20
50.8317
 30
0.0
 11
228.207
 21
47.7312
 31
0.0
  0
LINE
  8
0
 62
     0
 10
228.207
 20
47.7312
 30
0.0
 11
227.407
 21
47.7312
 31
0.0
  0
LINE
  8
0
 62
     0
 10
232.169
 20
9.63112
 30
0.0
 11
232.169
 21
8.63064
 31
0.0
  0
LINE
  8
0
 62
     0
 10
232.169
 20
8.63064
 30
0.0
 11
218.168
 21
8.63064
 31
0.0
  0
LINE
  8
0
 62
     0
 10
218.168
 20
8.63064
 30
0.0
 11
218.168
 21
9.63112
 31
0.0
  0
LINE
  8
0
 62
     0
 10
218.168
 20
9.63112
 30
0.0
 11
217.369
 21
9.63112
 31
0.0
  0
LINE
  8
0
 62
     0
 10
217.369
 20
9.63112
 30
0.0
 11
217.369
 21
12.7317
 31
0.0
  0
LINE
  8
0
 62
     0
 10
217.369
 20
12.7317
 30
0.0
 11
218.168
 21
12.7317
 31
0.0
  0
LINE
  8
0
 62
     0
 10
218.168
 20
12.7317
 30
0.0
 11
218.168
 21
18.5305
 31
0.0
  0
LINE
  8
0
 62
     0
 10
218.168
 20
18.5305
 30
0.0
 11
217.369
 21
18.5305
 31
0.0
  0
LINE
  8
0
 62
     0
 10
217.369
 20
18.5305
 30
0.0
 11
217.369
 21
21.6311
 31
0.0
  0
LINE
  8
0
 62
     0
 10
217.369
 20
21.6311
 30
0.0
 11
218.168
 21
21.6311
 31
0.0
  0
LINE
  8
0
 62
     0
 10
218.168
 20
21.6311
 30
0.0
 11
218.168
 21
22.6315
 31
0.0
  0
LINE
  8
0
 62
     0
 10
218.168
 20
22.6315
 30
0.0
 11
232.169
 21
22.6315
 31
0.0
  0
LINE
  8
0
 62
     0
 10
232.169
 20
22.6315
 30
0.0
 11
232.169
 21
21.6311
 31
0.0
  0
LINE
  8
0
 62
     0
 10
232.169
 20
21.6311
 30
0.0
 11
232.968
 21
21.6311
 31
0.0
  0
LINE
  8
0
 62
     0
 10
232.968
 20
21.6311
 30
0.0
 11
232.968
 21
18.5305
 31
0.0
  0
LINE
  8
0
 62
     0
 10
232.968
 20
18.5305
 30
0.0
 11
232.169
 21
18.5305
 31
0.0
  0
LINE
  8
0
 62
     0
 10
232.169
 20
18.5305
 30
0.0
 11
232.169
 21
12.7317
 31
0.0
  0
LINE
  8
0
 62
     0
 10
232.169
 20
12.7317
 30
0.0
 11
232.968
 21
12.7317
 31
0.0
  0
LINE
  8
0
 62
     0
 10
232.968
 20
12.7317
 30
0.0
 11
232.968
 21
9.63112
 31
0.0
  0
LINE
  8
0
 62
     0
 10
232.968
 20
9.63112
 30
0.0
 11
232.169
 21
9.63112
 31
0.0
  0
LINE
  8
0
 62
     0
 10
232.169
 20
104.881
 30
0.0
 11
232.169
 21
103.881
 31
0.0
  0
LINE
  8
0
 62
     0
 10
232.169
 20
103.881
 30
0.0
 11
218.168
 21
103.881
 31
0.0
  0
LINE
  8
0
 62
     0
 10
218.168
 20
103.881
 30
0.0
 11
218.168
 21
104.881
 31
0.0
  0
LINE
  8
0
 62
     0
 10
218.168
 20
104.881
 30
0.0
 11
217.369
 21
104.881
 31
0.0
  0
LINE
  8
0
 62
     0
 10
217.369
 20
104.881
 30
0.0
 11
217.369
 21
107.982
 31
0.0
  0
LINE
  8
0
 62
     0
 10
217.369
 20
107.982
 30
0.0
 11
218.168
 21
107.982
 31
0.0
  0
LINE
  8
0
 62
     0
 10
218.168
 20
107.982
 30
0.0
 11
218.168
 21
113.78
 31
0.0
  0
LINE
  8
0
 62
     0
 10
218.168
 20
113.78
 30
0.0
 11
217.369
 21
113.78
 31
0.0
  0
LINE
  8
0
 62
     0
 10
217.369
 20
113.78
 30
0.0
 11
217.369
 21
116.881
 31
0.0
  0
LINE
  8
0
 62
     0
 10
217.369
 20
116.881
 30
0.0
 11
218.168
 21
116.881
 31
0.0
  0
LINE
  8
0
 62
     0
 10
218.168
 20
116.881
 30
0.0
 11
218.168
 21
117.881
 31
0.0
  0
LINE
  8
0
 62
     0
 10
218.168
 20
117.881
 30
0.0
 11
232.169
 21
117.881
 31
0.0
  0
LINE
  8
0
 62
     0
 10
232.169
 20
117.881
 30
0.0
 11
232.169
 21
116.881
 31
0.0
  0
LINE
  8
0
 62
     0
 10
232.169
 20
116.881
 30
0.0
 11
232.968
 21
116.881
 31
0.0
  0
LINE
  8
0
 62
     0
 10
232.968
 20
116.881
 30
0.0
 11
232.968
 21
113.78
 31
0.0
  0
LINE
  8
0
 62
     0
 10
232.968
 20
113.78
 30
0.0
 11
232.169
 21
113.78
 31
0.0
  0
LINE
  8
0
 62
     0
 10
232.169
 20
113.78
 30
0.0
 11
232.169
 21
107.982
 31
0.0
  0
LINE
  8
0
 62
     0
 10
232.169
 20
107.982
 30
0.0
 11
232.968
 21
107.982
 31
0.0
  0
LINE
  8
0
 62
     0
 10
232.968
 20
107.982
 30
0.0
 11
232.968
 21
104.881
 31
0.0
  0
LINE
  8
0
 62
     0
 10
232.968
 20
104.881
 30
0.0
 11
232.169
 21
104.881
 31
0.0
  0
LINE
  8
0
 62
     0
 10
232.169
 20
85.8312
 30
0.0
 11
232.169
 21
84.8307
 31
0.0
  0
LINE
  8
0
 62
     0
 10
232.169
 20
84.8307
 30
0.0
 11
218.168
 21
84.8307
 31
0.0
  0
LINE
  8
0
 62
     0
 10
218.168
 20
84.8307
 30
0.0
 11
218.168
 21
85.8312
 31
0.0
  0
LINE
  8
0
 62
     0
 10
218.168
 20
85.8312
 30
0.0
 11
217.369
 21
85.8312
 31
0.0
  0
LINE
  8
0
 62
     0
 10
217.369
 20
85.8312
 30
0.0
 11
217.369
 21
88.9317
 31
0.0
  0
LINE
  8
0
 62
     0
 10
217.369
 20
88.9317
 30
0.0
 11
218.168
 21
88.9317
 31
0.0
  0
LINE
  8
0
 62
     0
 10
218.168
 20
88.9317
 30
0.0
 11
218.168
 21
94.7304
 31
0.0
  0
LINE
  8
0
 62
     0
 10
218.168
 20
94.7304
 30
0.0
 11
217.369
 21
94.7304
 31
0.0
  0
LINE
  8
0
 62
     0
 10
217.369
 20
94.7304
 30
0.0
 11
217.369
 21
97.8309
 31
0.0
  0
LINE
  8
0
 62
     0
 10
217.369
 20
97.8309
 30
0.0
 11
218.168
 21
97.8309
 31
0.0
  0
LINE
  8
0
 62
     0
 10
218.168
 20
97.8309
 30
0.0
 11
218.168
 21
98.8314
 31
0.0
  0
LINE
  8
0
 62
     0
 10
218.168
 20
98.8314
 30
0.0
 11
232.169
 21
98.8314
 31
0.0
  0
LINE
  8
0
 62
     0
 10
232.169
 20
98.8314
 30
0.0
 11
232.169
 21
97.8309
 31
0.0
  0
LINE
  8
0
 62
     0
 10
232.169
 20
97.8309
 30
0.0
 11
232.968
 21
97.8309
 31
0.0
  0
LINE
  8
0
 62
     0
 10
232.968
 20
97.8309
 30
0.0
 11
232.968
 21
94.7304
 31
0.0
  0
LINE
  8
0
 62
     0
 10
232.968
 20
94.7304
 30
0.0
 11
232.169
 21
94.7304
 31
0.0
  0
LINE
  8
0
 62
     0
 10
232.169
 20
94.7304
 30
0.0
 11
232.169
 21
88.9317
 31
0.0
  0
LINE
  8
0
 62
     0
 10
232.169
 20
88.9317
 30
0.0
 11
232.968
 21
88.9317
 31
0.0
  0
LINE
  8
0
 62
     0
 10
232.968
 20
88.9317
 30
0.0
 11
232.968
 21
85.8312
 31
0.0
  0
LINE
  8
0
 62
     0
 10
232.968
 20
85.8312
 30
0.0
 11
232.169
 21
85.8312
 31
0.0
  0
LINE
  8
0
 62
     0
 10
236.932
 20
28.6811
 30
0.0
 11
236.932
 21
27.6806
 31
0.0
  0
LINE
  8
0
 62
     0
 10
236.932
 20
27.6806
 30
0.0
 11
222.932
 21
27.6806
 31
0.0
  0
LINE
  8
0
 62
     0
 10
222.932
 20
27.6806
 30
0.0
 11
222.932
 21
28.6811
 31
0.0
  0
LINE
  8
0
 62
     0
 10
222.932
 20
28.6811
 30
0.0
 11
222.131
 21
28.6811
 31
0.0
  0
LINE
  8
0
 62
     0
 10
222.131
 20
28.6811
 30
0.0
 11
222.131
 21
31.7817
 31
0.0
  0
LINE
  8
0
 62
     0
 10
222.131
 20
31.7817
 30
0.0
 11
222.932
 21
31.7817
 31
0.0
  0
LINE
  8
0
 62
     0
 10
222.932
 20
31.7817
 30
0.0
 11
222.932
 21
37.5804
 31
0.0
  0
LINE
  8
0
 62
     0
 10
222.932
 20
37.5804
 30
0.0
 11
222.131
 21
37.5804
 31
0.0
  0
LINE
  8
0
 62
     0
 10
222.131
 20
37.5804
 30
0.0
 11
222.131
 21
40.6809
 31
0.0
  0
LINE
  8
0
 62
     0
 10
222.131
 20
40.6809
 30
0.0
 11
222.932
 21
40.6809
 31
0.0
  0
LINE
  8
0
 62
     0
 10
222.932
 20
40.6809
 30
0.0
 11
222.932
 21
41.6814
 31
0.0
  0
LINE
  8
0
 62
     0
 10
222.932
 20
41.6814
 30
0.0
 11
236.932
 21
41.6814
 31
0.0
  0
LINE
  8
0
 62
     0
 10
236.932
 20
41.6814
 30
0.0
 11
236.932
 21
40.6809
 31
0.0
  0
LINE
  8
0
 62
     0
 10
236.932
 20
40.6809
 30
0.0
 11
237.732
 21
40.6809
 31
0.0
  0
LINE
  8
0
 62
     0
 10
237.732
 20
40.6809
 30
0.0
 11
237.732
 21
37.5804
 31
0.0
  0
LINE
  8
0
 62
     0
 10
237.732
 20
37.5804
 30
0.0
 11
236.932
 21
37.5804
 31
0.0
  0
LINE
  8
0
 62
     0
 10
236.932
 20
37.5804
 30
0.0
 11
236.932
 21
31.7817
 31
0.0
  0
LINE
  8
0
 62
     0
 10
236.932
 20
31.7817
 30
0.0
 11
237.732
 21
31.7817
 31
0.0
  0
LINE
  8
0
 62
     0
 10
237.732
 20
31.7817
 30
0.0
 11
237.732
 21
28.6811
 31
0.0
  0
LINE
  8
0
 62
     0
 10
237.732
 20
28.6811
 30
0.0
 11
236.932
 21
28.6811
 31
0.0
  0
LINE
  8
0
 62
     0
 10
241.694
 20
66.7812
 30
0.0
 11
241.694
 21
65.7807
 31
0.0
  0
LINE
  8
0
 62
     0
 10
241.694
 20
65.7807
 30
0.0
 11
227.693
 21
65.7807
 31
0.0
  0
LINE
  8
0
 62
     0
 10
227.693
 20
65.7807
 30
0.0
 11
227.693
 21
66.7812
 31
0.0
  0
LINE
  8
0
 62
     0
 10
227.693
 20
66.7812
 30
0.0
 11
226.894
 21
66.7812
 31
0.0
  0
LINE
  8
0
 62
     0
 10
226.894
 20
66.7812
 30
0.0
 11
226.894
 21
69.8817
 31
0.0
  0
LINE
  8
0
 62
     0
 10
226.894
 20
69.8817
 30
0.0
 11
227.693
 21
69.8817
 31
0.0
  0
LINE
  8
0
 62
     0
 10
227.693
 20
69.8817
 30
0.0
 11
227.693
 21
75.6804
 31
0.0
  0
LINE
  8
0
 62
     0
 10
227.693
 20
75.6804
 30
0.0
 11
226.894
 21
75.6804
 31
0.0
  0
LINE
  8
0
 62
     0
 10
226.894
 20
75.6804
 30
0.0
 11
226.894
 21
78.7809
 31
0.0
  0
LINE
  8
0
 62
     0
 10
226.894
 20
78.7809
 30
0.0
 11
227.693
 21
78.7809
 31
0.0
  0
LINE
  8
0
 62
     0
 10
227.693
 20
78.7809
 30
0.0
 11
227.693
 21
79.7814
 31
0.0
  0
LINE
  8
0
 62
     0
 10
227.693
 20
79.7814
 30
0.0
 11
241.694
 21
79.7814
 31
0.0
  0
LINE
  8
0
 62
     0
 10
241.694
 20
79.7814
 30
0.0
 11
241.694
 21
78.7809
 31
0.0
  0
LINE
  8
0
 62
     0
 10
241.694
 20
78.7809
 30
0.0
 11
242.493
 21
78.7809
 31
0.0
  0
LINE
  8
0
 62
     0
 10
242.493
 20
78.7809
 30
0.0
 11
242.493
 21
75.6804
 31
0.0
  0
LINE
  8
0
 62
     0
 10
242.493
 20
75.6804
 30
0.0
 11
241.694
 21
75.6804
 31
0.0
  0
LINE
  8
0
 62
     0
 10
241.694
 20
75.6804
 30
0.0
 11
241.694
 21
69.8817
 31
0.0
  0
LINE
  8
0
 62
     0
 10
241.694
 20
69.8817
 30
0.0
 11
242.493
 21
69.8817
 31
0.0
  0
LINE
  8
0
 62
     0
 10
242.493
 20
69.8817
 30
0.0
 11
242.493
 21
66.7812
 31
0.0
  0
LINE
  8
0
 62
     0
 10
242.493
 20
66.7812
 30
0.0
 11
241.694
 21
66.7812
 31
0.0
  0
LINE
  8
0
 62
     0
 10
246.457
 20
47.7312
 30
0.0
 11
246.457
 21
46.7307
 31
0.0
  0
LINE
  8
0
 62
     0
 10
246.457
 20
46.7307
 30
0.0
 11
232.457
 21
46.7307
 31
0.0
  0
LINE
  8
0
 62
     0
 10
232.457
 20
46.7307
 30
0.0
 11
232.457
 21
47.7312
 31
0.0
  0
LINE
  8
0
 62
     0
 10
232.457
 20
47.7312
 30
0.0
 11
231.656
 21
47.7312
 31
0.0
  0
LINE
  8
0
 62
     0
 10
231.656
 20
47.7312
 30
0.0
 11
231.656
 21
50.8317
 31
0.0
  0
LINE
  8
0
 62
     0
 10
231.656
 20
50.8317
 30
0.0
 11
232.457
 21
50.8317
 31
0.0
  0
LINE
  8
0
 62
     0
 10
232.457
 20
50.8317
 30
0.0
 11
232.457
 21
56.6304
 31
0.0
  0
LINE
  8
0
 62
     0
 10
232.457
 20
56.6304
 30
0.0
 11
231.656
 21
56.6304
 31
0.0
  0
LINE
  8
0
 62
     0
 10
231.656
 20
56.6304
 30
0.0
 11
231.656
 21
59.7309
 31
0.0
  0
LINE
  8
0
 62
     0
 10
231.656
 20
59.7309
 30
0.0
 11
232.457
 21
59.7309
 31
0.0
  0
LINE
  8
0
 62
     0
 10
232.457
 20
59.7309
 30
0.0
 11
232.457
 21
60.7314
 31
0.0
  0
LINE
  8
0
 62
     0
 10
232.457
 20
60.7314
 30
0.0
 11
246.457
 21
60.7314
 31
0.0
  0
LINE
  8
0
 62
     0
 10
246.457
 20
60.7314
 30
0.0
 11
246.457
 21
59.7309
 31
0.0
  0
LINE
  8
0
 62
     0
 10
246.457
 20
59.7309
 30
0.0
 11
247.257
 21
59.7309
 31
0.0
  0
LINE
  8
0
 62
     0
 10
247.257
 20
59.7309
 30
0.0
 11
247.257
 21
56.6304
 31
0.0
  0
LINE
  8
0
 62
     0
 10
247.257
 20
56.6304
 30
0.0
 11
246.457
 21
56.6304
 31
0.0
  0
LINE
  8
0
 62
     0
 10
246.457
 20
56.6304
 30
0.0
 11
246.457
 21
50.8317
 31
0.0
  0
LINE
  8
0
 62
     0
 10
246.457
 20
50.8317
 30
0.0
 11
247.257
 21
50.8317
 31
0.0
  0
LINE
  8
0
 62
     0
 10
247.257
 20
50.8317
 30
0.0
 11
247.257
 21
47.7312
 31
0.0
  0
LINE
  8
0
 62
     0
 10
247.257
 20
47.7312
 30
0.0
 11
246.457
 21
47.7312
 31
0.0
  0
LINE
  8
0
 62
     0
 10
251.219
 20
9.63112
 30
0.0
 11
251.219
 21
8.63064
 31
0.0
  0
LINE
  8
0
 62
     0
 10
251.219
 20
8.63064
 30
0.0
 11
237.218
 21
8.63064
 31
0.0
  0
LINE
  8
0
 62
     0
 10
237.218
 20
8.63064
 30
0.0
 11
237.218
 21
9.63112
 31
0.0
  0
LINE
  8
0
 62
     0
 10
237.218
 20
9.63112
 30
0.0
 11
236.419
 21
9.63112
 31
0.0
  0
LINE
  8
0
 62
     0
 10
236.419
 20
9.63112
 30
0.0
 11
236.419
 21
12.7317
 31
0.0
  0
LINE
  8
0
 62
     0
 10
236.419
 20
12.7317
 30
0.0
 11
237.218
 21
12.7317
 31
0.0
  0
LINE
  8
0
 62
     0
 10
237.218
 20
12.7317
 30
0.0
 11
237.218
 21
18.5305
 31
0.0
  0
LINE
  8
0
 62
     0
 10
237.218
 20
18.5305
 30
0.0
 11
236.419
 21
18.5305
 31
0.0
  0
LINE
  8
0
 62
     0
 10
236.419
 20
18.5305
 30
0.0
 11
236.419
 21
21.6311
 31
0.0
  0
LINE
  8
0
 62
     0
 10
236.419
 20
21.6311
 30
0.0
 11
237.218
 21
21.6311
 31
0.0
  0
LINE
  8
0
 62
     0
 10
237.218
 20
21.6311
 30
0.0
 11
237.218
 21
22.6315
 31
0.0
  0
LINE
  8
0
 62
     0
 10
237.218
 20
22.6315
 30
0.0
 11
251.219
 21
22.6315
 31
0.0
  0
LINE
  8
0
 62
     0
 10
251.219
 20
22.6315
 30
0.0
 11
251.219
 21
21.6311
 31
0.0
  0
LINE
  8
0
 62
     0
 10
251.219
 20
21.6311
 30
0.0
 11
252.018
 21
21.6311
 31
0.0
  0
LINE
  8
0
 62
     0
 10
252.018
 20
21.6311
 30
0.0
 11
252.018
 21
18.5305
 31
0.0
  0
LINE
  8
0
 62
     0
 10
252.018
 20
18.5305
 30
0.0
 11
251.219
 21
18.5305
 31
0.0
  0
LINE
  8
0
 62
     0
 10
251.219
 20
18.5305
 30
0.0
 11
251.219
 21
12.7317
 31
0.0
  0
LINE
  8
0
 62
     0
 10
251.219
 20
12.7317
 30
0.0
 11
252.018
 21
12.7317
 31
0.0
  0
LINE
  8
0
 62
     0
 10
252.018
 20
12.7317
 30
0.0
 11
252.018
 21
9.63112
 31
0.0
  0
LINE
  8
0
 62
     0
 10
252.018
 20
9.63112
 30
0.0
 11
251.219
 21
9.63112
 31
0.0
  0
LINE
  8
0
 62
     0
 10
251.219
 20
104.881
 30
0.0
 11
251.219
 21
103.881
 31
0.0
  0
LINE
  8
0
 62
     0
 10
251.219
 20
103.881
 30
0.0
 11
237.218
 21
103.881
 31
0.0
  0
LINE
  8
0
 62
     0
 10
237.218
 20
103.881
 30
0.0
 11
237.218
 21
104.881
 31
0.0
  0
LINE
  8
0
 62
     0
 10
237.218
 20
104.881
 30
0.0
 11
236.419
 21
104.881
 31
0.0
  0
LINE
  8
0
 62
     0
 10
236.419
 20
104.881
 30
0.0
 11
236.419
 21
107.982
 31
0.0
  0
LINE
  8
0
 62
     0
 10
236.419
 20
107.982
 30
0.0
 11
237.218
 21
107.982
 31
0.0
  0
LINE
  8
0
 62
     0
 10
237.218
 20
107.982
 30
0.0
 11
237.218
 21
113.78
 31
0.0
  0
LINE
  8
0
 62
     0
 10
237.218
 20
113.78
 30
0.0
 11
236.419
 21
113.78
 31
0.0
  0
LINE
  8
0
 62
     0
 10
236.419
 20
113.78
 30
0.0
 11
236.419
 21
116.881
 31
0.0
  0
LINE
  8
0
 62
     0
 10
236.419
 20
116.881
 30
0.0
 11
237.218
 21
116.881
 31
0.0
  0
LINE
  8
0
 62
     0
 10
237.218
 20
116.881
 30
0.0
 11
237.218
 21
117.881
 31
0.0
  0
LINE
  8
0
 62
     0
 10
237.218
 20
117.881
 30
0.0
 11
251.219
 21
117.881
 31
0.0
  0
LINE
  8
0
 62
     0
 10
251.219
 20
117.881
 30
0.0
 11
251.219
 21
116.881
 31
0.0
  0
LINE
  8
0
 62
     0
 10
251.219
 20
116.881
 30
0.0
 11
252.018
 21
116.881
 31
0.0
  0
LINE
  8
0
 62
     0
 10
252.018
 20
116.881
 30
0.0
 11
252.018
 21
113.78
 31
0.0
  0
LINE
  8
0
 62
     0
 10
252.018
 20
113.78
 30
0.0
 11
251.219
 21
113.78
 31
0.0
  0
LINE
  8
0
 62
     0
 10
251.219
 20
113.78
 30
0.0
 11
251.219
 21
107.982
 31
0.0
  0
LINE
  8
0
 62
     0
 10
251.219
 20
107.982
 30
0.0
 11
252.018
 21
107.982
 31
0.0
  0
LINE
  8
0
 62
     0
 10
252.018
 20
107.982
 30
0.0
 11
252.018
 21
104.881
 31
0.0
  0
LINE
  8
0
 62
     0
 10
252.018
 20
104.881
 30
0.0
 11
251.219
 21
104.881
 31
0.0
  0
LINE
  8
0
 62
     0
 10
251.219
 20
85.8312
 30
0.0
 11
251.219
 21
84.8307
 31
0.0
  0
LINE
  8
0
 62
     0
 10
251.219
 20
84.8307
 30
0.0
 11
237.218
 21
84.8307
 31
0.0
  0
LINE
  8
0
 62
     0
 10
237.218
 20
84.8307
 30
0.0
 11
237.218
 21
85.8312
 31
0.0
  0
LINE
  8
0
 62
     0
 10
237.218
 20
85.8312
 30
0.0
 11
236.419
 21
85.8312
 31
0.0
  0
LINE
  8
0
 62
     0
 10
236.419
 20
85.8312
 30
0.0
 11
236.419
 21
88.9317
 31
0.0
  0
LINE
  8
0
 62
     0
 10
236.419
 20
88.9317
 30
0.0
 11
237.218
 21
88.9317
 31
0.0
  0
LINE
  8
0
 62
     0
 10
237.218
 20
88.9317
 30
0.0
 11
237.218
 21
94.7304
 31
0.0
  0
LINE
  8
0
 62
     0
 10
237.218
 20
94.7304
 30
0.0
 11
236.419
 21
94.7304
 31
0.0
  0
LINE
  8
0
 62
     0
 10
236.419
 20
94.7304
 30
0.0
 11
236.419
 21
97.8309
 31
0.0
  0
LINE
  8
0
 62
     0
 10
236.419
 20
97.8309
 30
0.0
 11
237.218
 21
97.8309
 31
0.0
  0
LINE
  8
0
 62
     0
 10
237.218
 20
97.8309
 30
0.0
 11
237.218
 21
98.8314
 31
0.0
  0
LINE
  8
0
 62
     0
 10
237.218
 20
98.8314
 30
0.0
 11
251.219
 21
98.8314
 31
0.0
  0
LINE
  8
0
 62
     0
 10
251.219
 20
98.8314
 30
0.0
 11
251.219
 21
97.8309
 31
0.0
  0
LINE
  8
0
 62
     0
 10
251.219
 20
97.8309
 30
0.0
 11
252.018
 21
97.8309
 31
0.0
  0
LINE
  8
0
 62
     0
 10
252.018
 20
97.8309
 30
0.0
 11
252.018
 21
94.7304
 31
0.0
  0
LINE
  8
0
 62
     0
 10
252.018
 20
94.7304
 30
0.0
 11
251.219
 21
94.7304
 31
0.0
  0
LINE
  8
0
 62
     0
 10
251.219
 20
94.7304
 30
0.0
 11
251.219
 21
88.9317
 31
0.0
  0
LINE
  8
0
 62
     0
 10
251.219
 20
88.9317
 30
0.0
 11
252.018
 21
88.9317
 31
0.0
  0
LINE
  8
0
 62
     0
 10
252.018
 20
88.9317
 30
0.0
 11
252.018
 21
85.8312
 31
0.0
  0
LINE
  8
0
 62
     0
 10
252.018
 20
85.8312
 30
0.0
 11
251.219
 21
85.8312
 31
0.0
  0
LINE
  8
0
 62
     0
 10
260.744
 20
66.7812
 30
0.0
 11
260.744
 21
65.7807
 31
0.0
  0
LINE
  8
0
 62
     0
 10
260.744
 20
65.7807
 30
0.0
 11
246.743
 21
65.7807
 31
0.0
  0
LINE
  8
0
 62
     0
 10
246.743
 20
65.7807
 30
0.0
 11
246.743
 21
66.7812
 31
0.0
  0
LINE
  8
0
 62
     0
 10
246.743
 20
66.7812
 30
0.0
 11
245.944
 21
66.7812
 31
0.0
  0
LINE
  8
0
 62
     0
 10
245.944
 20
66.7812
 30
0.0
 11
245.944
 21
69.8817
 31
0.0
  0
LINE
  8
0
 62
     0
 10
245.944
 20
69.8817
 30
0.0
 11
246.743
 21
69.8817
 31
0.0
  0
LINE
  8
0
 62
     0
 10
246.743
 20
69.8817
 30
0.0
 11
246.743
 21
75.6804
 31
0.0
  0
LINE
  8
0
 62
     0
 10
246.743
 20
75.6804
 30
0.0
 11
245.944
 21
75.6804
 31
0.0
  0
LINE
  8
0
 62
     0
 10
245.944
 20
75.6804
 30
0.0
 11
245.944
 21
78.7809
 31
0.0
  0
LINE
  8
0
 62
     0
 10
245.944
 20
78.7809
 30
0.0
 11
246.743
 21
78.7809
 31
0.0
  0
LINE
  8
0
 62
     0
 10
246.743
 20
78.7809
 30
0.0
 11
246.743
 21
79.7814
 31
0.0
  0
LINE
  8
0
 62
     0
 10
246.743
 20
79.7814
 30
0.0
 11
260.744
 21
79.7814
 31
0.0
  0
LINE
  8
0
 62
     0
 10
260.744
 20
79.7814
 30
0.0
 11
260.744
 21
78.7809
 31
0.0
  0
LINE
  8
0
 62
     0
 10
260.744
 20
78.7809
 30
0.0
 11
261.543
 21
78.7809
 31
0.0
  0
LINE
  8
0
 62
     0
 10
261.543
 20
78.7809
 30
0.0
 11
261.543
 21
75.6804
 31
0.0
  0
LINE
  8
0
 62
     0
 10
261.543
 20
75.6804
 30
0.0
 11
260.744
 21
75.6804
 31
0.0
  0
LINE
  8
0
 62
     0
 10
260.744
 20
75.6804
 30
0.0
 11
260.744
 21
69.8817
 31
0.0
  0
LINE
  8
0
 62
     0
 10
260.744
 20
69.8817
 30
0.0
 11
261.543
 21
69.8817
 31
0.0
  0
LINE
  8
0
 62
     0
 10
261.543
 20
69.8817
 30
0.0
 11
261.543
 21
66.7812
 31
0.0
  0
LINE
  8
0
 62
     0
 10
261.543
 20
66.7812
 30
0.0
 11
260.744
 21
66.7812
 31
0.0
  0
LINE
  8
0
 62
     0
 10
263.125
 20
28.6811
 30
0.0
 11
263.125
 21
27.6806
 31
0.0
  0
LINE
  8
0
 62
     0
 10
263.125
 20
27.6806
 30
0.0
 11
249.125
 21
27.6806
 31
0.0
  0
LINE
  8
0
 62
     0
 10
249.125
 20
27.6806
 30
0.0
 11
249.125
 21
28.6811
 31
0.0
  0
LINE
  8
0
 62
     0
 10
249.125
 20
28.6811
 30
0.0
 11
248.325
 21
28.6811
 31
0.0
  0
LINE
  8
0
 62
     0
 10
248.325
 20
28.6811
 30
0.0
 11
248.325
 21
31.7817
 31
0.0
  0
LINE
  8
0
 62
     0
 10
248.325
 20
31.7817
 30
0.0
 11
249.125
 21
31.7817
 31
0.0
  0
LINE
  8
0
 62
     0
 10
249.125
 20
31.7817
 30
0.0
 11
249.125
 21
37.5804
 31
0.0
  0
LINE
  8
0
 62
     0
 10
249.125
 20
37.5804
 30
0.0
 11
248.325
 21
37.5804
 31
0.0
  0
LINE
  8
0
 62
     0
 10
248.325
 20
37.5804
 30
0.0
 11
248.325
 21
40.6809
 31
0.0
  0
LINE
  8
0
 62
     0
 10
248.325
 20
40.6809
 30
0.0
 11
249.125
 21
40.6809
 31
0.0
  0
LINE
  8
0
 62
     0
 10
249.125
 20
40.6809
 30
0.0
 11
249.125
 21
41.6814
 31
0.0
  0
LINE
  8
0
 62
     0
 10
249.125
 20
41.6814
 30
0.0
 11
263.125
 21
41.6814
 31
0.0
  0
LINE
  8
0
 62
     0
 10
263.125
 20
41.6814
 30
0.0
 11
263.125
 21
40.6809
 31
0.0
  0
LINE
  8
0
 62
     0
 10
263.125
 20
40.6809
 30
0.0
 11
263.925
 21
40.6809
 31
0.0
  0
LINE
  8
0
 62
     0
 10
263.925
 20
40.6809
 30
0.0
 11
263.925
 21
37.5804
 31
0.0
  0
LINE
  8
0
 62
     0
 10
263.925
 20
37.5804
 30
0.0
 11
263.125
 21
37.5804
 31
0.0
  0
LINE
  8
0
 62
     0
 10
263.125
 20
37.5804
 30
0.0
 11
263.125
 21
31.7817
 31
0.0
  0
LINE
  8
0
 62
     0
 10
263.125
 20
31.7817
 30
0.0
 11
263.925
 21
31.7817
 31
0.0
  0
LINE
  8
0
 62
     0
 10
263.925
 20
31.7817
 30
0.0
 11
263.925
 21
28.6811
 31
0.0
  0
LINE
  8
0
 62
     0
 10
263.925
 20
28.6811
 30
0.0
 11
263.125
 21
28.6811
 31
0.0
  0
LINE
  8
0
 62
     0
 10
270.269
 20
9.63112
 30
0.0
 11
270.269
 21
8.63064
 31
0.0
  0
LINE
  8
0
 62
     0
 10
270.269
 20
8.63064
 30
0.0
 11
256.268
 21
8.63064
 31
0.0
  0
LINE
  8
0
 62
     0
 10
256.268
 20
8.63064
 30
0.0
 11
256.268
 21
9.63112
 31
0.0
  0
LINE
  8
0
 62
     0
 10
256.268
 20
9.63112
 30
0.0
 11
255.469
 21
9.63112
 31
0.0
  0
LINE
  8
0
 62
     0
 10
255.469
 20
9.63112
 30
0.0
 11
255.469
 21
12.7317
 31
0.0
  0
LINE
  8
0
 62
     0
 10
255.469
 20
12.7317
 30
0.0
 11
256.268
 21
12.7317
 31
0.0
  0
LINE
  8
0
 62
     0
 10
256.268
 20
12.7317
 30
0.0
 11
256.268
 21
18.5305
 31
0.0
  0
LINE
  8
0
 62
     0
 10
256.268
 20
18.5305
 30
0.0
 11
255.469
 21
18.5305
 31
0.0
  0
LINE
  8
0
 62
     0
 10
255.469
 20
18.5305
 30
0.0
 11
255.469
 21
21.6311
 31
0.0
  0
LINE
  8
0
 62
     0
 10
255.469
 20
21.6311
 30
0.0
 11
256.268
 21
21.6311
 31
0.0
  0
LINE
  8
0
 62
     0
 10
256.268
 20
21.6311
 30
0.0
 11
256.268
 21
22.6315
 31
0.0
  0
LINE
  8
0
 62
     0
 10
256.268
 20
22.6315
 30
0.0
 11
270.269
 21
22.6315
 31
0.0
  0
LINE
  8
0
 62
     0
 10
270.269
 20
22.6315
 30
0.0
 11
270.269
 21
21.6311
 31
0.0
  0
LINE
  8
0
 62
     0
 10
270.269
 20
21.6311
 30
0.0
 11
271.068
 21
21.6311
 31
0.0
  0
LINE
  8
0
 62
     0
 10
271.068
 20
21.6311
 30
0.0
 11
271.068
 21
18.5305
 31
0.0
  0
LINE
  8
0
 62
     0
 10
271.068
 20
18.5305
 30
0.0
 11
270.269
 21
18.5305
 31
0.0
  0
LINE
  8
0
 62
     0
 10
270.269
 20
18.5305
 30
0.0
 11
270.269
 21
12.7317
 31
0.0
  0
LINE
  8
0
 62
     0
 10
270.269
 20
12.7317
 30
0.0
 11
271.068
 21
12.7317
 31
0.0
  0
LINE
  8
0
 62
     0
 10
271.068
 20
12.7317
 30
0.0
 11
271.068
 21
9.63112
 31
0.0
  0
LINE
  8
0
 62
     0
 10
271.068
 20
9.63112
 30
0.0
 11
270.269
 21
9.63112
 31
0.0
  0
LINE
  8
0
 62
     0
 10
270.269
 20
104.881
 30
0.0
 11
270.269
 21
103.881
 31
0.0
  0
LINE
  8
0
 62
     0
 10
270.269
 20
103.881
 30
0.0
 11
256.268
 21
103.881
 31
0.0
  0
LINE
  8
0
 62
     0
 10
256.268
 20
103.881
 30
0.0
 11
256.268
 21
104.881
 31
0.0
  0
LINE
  8
0
 62
     0
 10
256.268
 20
104.881
 30
0.0
 11
255.469
 21
104.881
 31
0.0
  0
LINE
  8
0
 62
     0
 10
255.469
 20
104.881
 30
0.0
 11
255.469
 21
107.982
 31
0.0
  0
LINE
  8
0
 62
     0
 10
255.469
 20
107.982
 30
0.0
 11
256.268
 21
107.982
 31
0.0
  0
LINE
  8
0
 62
     0
 10
256.268
 20
107.982
 30
0.0
 11
256.268
 21
113.78
 31
0.0
  0
LINE
  8
0
 62
     0
 10
256.268
 20
113.78
 30
0.0
 11
255.469
 21
113.78
 31
0.0
  0
LINE
  8
0
 62
     0
 10
255.469
 20
113.78
 30
0.0
 11
255.469
 21
116.881
 31
0.0
  0
LINE
  8
0
 62
     0
 10
255.469
 20
116.881
 30
0.0
 11
256.268
 21
116.881
 31
0.0
  0
LINE
  8
0
 62
     0
 10
256.268
 20
116.881
 30
0.0
 11
256.268
 21
117.881
 31
0.0
  0
LINE
  8
0
 62
     0
 10
256.268
 20
117.881
 30
0.0
 11
270.269
 21
117.881
 31
0.0
  0
LINE
  8
0
 62
     0
 10
270.269
 20
117.881
 30
0.0
 11
270.269
 21
116.881
 31
0.0
  0
LINE
  8
0
 62
     0
 10
270.269
 20
116.881
 30
0.0
 11
271.068
 21
116.881
 31
0.0
  0
LINE
  8
0
 62
     0
 10
271.068
 20
116.881
 30
0.0
 11
271.068
 21
113.78
 31
0.0
  0
LINE
  8
0
 62
     0
 10
271.068
 20
113.78
 30
0.0
 11
270.269
 21
113.78
 31
0.0
  0
LINE
  8
0
 62
     0
 10
270.269
 20
113.78
 30
0.0
 11
270.269
 21
107.982
 31
0.0
  0
LINE
  8
0
 62
     0
 10
270.269
 20
107.982
 30
0.0
 11
271.068
 21
107.982
 31
0.0
  0
LINE
  8
0
 62
     0
 10
271.068
 20
107.982
 30
0.0
 11
271.068
 21
104.881
 31
0.0
  0
LINE
  8
0
 62
     0
 10
271.068
 20
104.881
 30
0.0
 11
270.269
 21
104.881
 31
0.0
  0
LINE
  8
0
 62
     0
 10
270.269
 20
85.8312
 30
0.0
 11
270.269
 21
84.8307
 31
0.0
  0
LINE
  8
0
 62
     0
 10
270.269
 20
84.8307
 30
0.0
 11
256.268
 21
84.8307
 31
0.0
  0
LINE
  8
0
 62
     0
 10
256.268
 20
84.8307
 30
0.0
 11
256.268
 21
85.8312
 31
0.0
  0
LINE
  8
0
 62
     0
 10
256.268
 20
85.8312
 30
0.0
 11
255.469
 21
85.8312
 31
0.0
  0
LINE
  8
0
 62
     0
 10
255.469
 20
85.8312
 30
0.0
 11
255.469
 21
88.9317
 31
0.0
  0
LINE
  8
0
 62
     0
 10
255.469
 20
88.9317
 30
0.0
 11
256.268
 21
88.9317
 31
0.0
  0
LINE
  8
0
 62
     0
 10
256.268
 20
88.9317
 30
0.0
 11
256.268
 21
94.7304
 31
0.0
  0
LINE
  8
0
 62
     0
 10
256.268
 20
94.7304
 30
0.0
 11
255.469
 21
94.7304
 31
0.0
  0
LINE
  8
0
 62
     0
 10
255.469
 20
94.7304
 30
0.0
 11
255.469
 21
97.8309
 31
0.0
  0
LINE
  8
0
 62
     0
 10
255.469
 20
97.8309
 30
0.0
 11
256.268
 21
97.8309
 31
0.0
  0
LINE
  8
0
 62
     0
 10
256.268
 20
97.8309
 30
0.0
 11
256.268
 21
98.8314
 31
0.0
  0
LINE
  8
0
 62
     0
 10
256.268
 20
98.8314
 30
0.0
 11
270.269
 21
98.8314
 31
0.0
  0
LINE
  8
0
 62
     0
 10
270.269
 20
98.8314
 30
0.0
 11
270.269
 21
97.8309
 31
0.0
  0
LINE
  8
0
 62
     0
 10
270.269
 20
97.8309
 30
0.0
 11
271.068
 21
97.8309
 31
0.0
  0
LINE
  8
0
 62
     0
 10
271.068
 20
97.8309
 30
0.0
 11
271.068
 21
94.7304
 31
0.0
  0
LINE
  8
0
 62
     0
 10
271.068
 20
94.7304
 30
0.0
 11
270.269
 21
94.7304
 31
0.0
  0
LINE
  8
0
 62
     0
 10
270.269
 20
94.7304
 30
0.0
 11
270.269
 21
88.9317
 31
0.0
  0
LINE
  8
0
 62
     0
 10
270.269
 20
88.9317
 30
0.0
 11
271.068
 21
88.9317
 31
0.0
  0
LINE
  8
0
 62
     0
 10
271.068
 20
88.9317
 30
0.0
 11
271.068
 21
85.8312
 31
0.0
  0
LINE
  8
0
 62
     0
 10
271.068
 20
85.8312
 30
0.0
 11
270.269
 21
85.8312
 31
0.0
  0
LINE
  8
0
 62
     0
 10
284.557
 20
66.7812
 30
0.0
 11
284.557
 21
65.7807
 31
0.0
  0
LINE
  8
0
 62
     0
 10
284.557
 20
65.7807
 30
0.0
 11
270.557
 21
65.7807
 31
0.0
  0
LINE
  8
0
 62
     0
 10
270.557
 20
65.7807
 30
0.0
 11
270.557
 21
66.7812
 31
0.0
  0
LINE
  8
0
 62
     0
 10
270.557
 20
66.7812
 30
0.0
 11
269.756
 21
66.7812
 31
0.0
  0
LINE
  8
0
 62
     0
 10
269.756
 20
66.7812
 30
0.0
 11
269.756
 21
69.8817
 31
0.0
  0
LINE
  8
0
 62
     0
 10
269.756
 20
69.8817
 30
0.0
 11
270.557
 21
69.8817
 31
0.0
  0
LINE
  8
0
 62
     0
 10
270.557
 20
69.8817
 30
0.0
 11
270.557
 21
75.6804
 31
0.0
  0
LINE
  8
0
 62
     0
 10
270.557
 20
75.6804
 30
0.0
 11
269.756
 21
75.6804
 31
0.0
  0
LINE
  8
0
 62
     0
 10
269.756
 20
75.6804
 30
0.0
 11
269.756
 21
78.7809
 31
0.0
  0
LINE
  8
0
 62
     0
 10
269.756
 20
78.7809
 30
0.0
 11
270.557
 21
78.7809
 31
0.0
  0
LINE
  8
0
 62
     0
 10
270.557
 20
78.7809
 30
0.0
 11
270.557
 21
79.7814
 31
0.0
  0
LINE
  8
0
 62
     0
 10
270.557
 20
79.7814
 30
0.0
 11
284.557
 21
79.7814
 31
0.0
  0
LINE
  8
0
 62
     0
 10
284.557
 20
79.7814
 30
0.0
 11
284.557
 21
78.7809
 31
0.0
  0
LINE
  8
0
 62
     0
 10
284.557
 20
78.7809
 30
0.0
 11
285.357
 21
78.7809
 31
0.0
  0
LINE
  8
0
 62
     0
 10
285.357
 20
78.7809
 30
0.0
 11
285.357
 21
75.6804
 31
0.0
  0
LINE
  8
0
 62
     0
 10
285.357
 20
75.6804
 30
0.0
 11
284.557
 21
75.6804
 31
0.0
  0
LINE
  8
0
 62
     0
 10
284.557
 20
75.6804
 30
0.0
 11
284.557
 21
69.8817
 31
0.0
  0
LINE
  8
0
 62
     0
 10
284.557
 20
69.8817
 30
0.0
 11
285.357
 21
69.8817
 31
0.0
  0
LINE
  8
0
 62
     0
 10
285.357
 20
69.8817
 30
0.0
 11
285.357
 21
66.7812
 31
0.0
  0
LINE
  8
0
 62
     0
 10
285.357
 20
66.7812
 30
0.0
 11
284.557
 21
66.7812
 31
0.0
  0
LINE
  8
0
 62
     0
 10
285.639
 20
53.231
 30
0.0
 11
285.639
 21
46.9607
 31
0.0
  0
LINE
  8
0
 62
     0
 10
285.639
 20
46.9607
 30
0.0
 11
284.012
 21
46.9607
 31
0.0
  0
LINE
  8
0
 62
     0
 10
284.012
 20
46.9607
 30
0.0
 11
284.012
 21
45.9811
 31
0.0
  0
LINE
  8
0
 62
     0
 10
284.012
 20
45.9811
 30
0.0
 11
280.713
 21
45.9811
 31
0.0
  0
LINE
  8
0
 62
     0
 10
280.713
 20
45.9811
 30
0.0
 11
280.713
 21
46.9607
 31
0.0
  0
LINE
  8
0
 62
     0
 10
280.713
 20
46.9607
 30
0.0
 11
278.988
 21
46.9607
 31
0.0
  0
LINE
  8
0
 62
     0
 10
278.988
 20
46.9607
 30
0.0
 11
278.988
 21
47.7615
 31
0.0
  0
LINE
  8
0
 62
     0
 10
278.988
 20
47.7615
 30
0.0
 11
278.212
 21
47.7615
 31
0.0
  0
LINE
  8
0
 62
     0
 10
278.212
 20
47.7615
 30
0.0
 11
278.212
 21
47.7312
 31
0.0
  0
LINE
  8
0
 62
     0
 10
278.212
 20
47.7312
 30
0.0
 11
277.413
 21
47.7312
 31
0.0
  0
LINE
  8
0
 62
     0
 10
277.413
 20
47.7312
 30
0.0
 11
277.413
 21
46.7307
 31
0.0
  0
LINE
  8
0
 62
     0
 10
277.413
 20
46.7307
 30
0.0
 11
263.414
 21
46.7307
 31
0.0
  0
LINE
  8
0
 62
     0
 10
263.414
 20
46.7307
 30
0.0
 11
263.414
 21
47.7312
 31
0.0
  0
LINE
  8
0
 62
     0
 10
263.414
 20
47.7312
 30
0.0
 11
262.613
 21
47.7312
 31
0.0
  0
LINE
  8
0
 62
     0
 10
262.613
 20
47.7312
 30
0.0
 11
262.613
 21
47.7615
 31
0.0
  0
LINE
  8
0
 62
     0
 10
262.613
 20
47.7615
 30
0.0
 11
261.838
 21
47.7615
 31
0.0
  0
LINE
  8
0
 62
     0
 10
261.838
 20
47.7615
 30
0.0
 11
261.838
 21
46.9607
 31
0.0
  0
LINE
  8
0
 62
     0
 10
261.838
 20
46.9607
 30
0.0
 11
260.113
 21
46.9607
 31
0.0
  0
LINE
  8
0
 62
     0
 10
260.113
 20
46.9607
 30
0.0
 11
260.113
 21
45.9811
 31
0.0
  0
LINE
  8
0
 62
     0
 10
260.113
 20
45.9811
 30
0.0
 11
256.813
 21
45.9811
 31
0.0
  0
LINE
  8
0
 62
     0
 10
256.813
 20
45.9811
 30
0.0
 11
256.813
 21
46.9607
 31
0.0
  0
LINE
  8
0
 62
     0
 10
256.813
 20
46.9607
 30
0.0
 11
255.188
 21
46.9607
 31
0.0
  0
LINE
  8
0
 62
     0
 10
255.188
 20
46.9607
 30
0.0
 11
255.188
 21
53.231
 31
0.0
  0
LINE
  8
0
 62
     0
 10
255.188
 20
53.231
 30
0.0
 11
254.313
 21
53.231
 31
0.0
  0
LINE
  8
0
 62
     0
 10
254.313
 20
53.231
 30
0.0
 11
254.313
 21
56.031
 31
0.0
  0
LINE
  8
0
 62
     0
 10
254.313
 20
56.031
 30
0.0
 11
255.188
 21
56.031
 31
0.0
  0
LINE
  8
0
 62
     0
 10
255.188
 20
56.031
 30
0.0
 11
255.188
 21
59.261
 31
0.0
  0
LINE
  8
0
 62
     0
 10
255.188
 20
59.261
 30
0.0
 11
256.813
 21
59.261
 31
0.0
  0
LINE
  8
0
 62
     0
 10
256.813
 20
59.261
 30
0.0
 11
256.813
 21
60.1818
 31
0.0
  0
LINE
  8
0
 62
     0
 10
256.813
 20
60.1818
 30
0.0
 11
260.113
 21
60.1818
 31
0.0
  0
LINE
  8
0
 62
     0
 10
260.113
 20
60.1818
 30
0.0
 11
260.113
 21
59.261
 31
0.0
  0
LINE
  8
0
 62
     0
 10
260.113
 20
59.261
 30
0.0
 11
261.838
 21
59.261
 31
0.0
  0
LINE
  8
0
 62
     0
 10
261.838
 20
59.261
 30
0.0
 11
261.838
 21
58.4606
 31
0.0
  0
LINE
  8
0
 62
     0
 10
261.838
 20
58.4606
 30
0.0
 11
262.613
 21
58.4606
 31
0.0
  0
LINE
  8
0
 62
     0
 10
262.613
 20
58.4606
 30
0.0
 11
262.613
 21
59.7309
 31
0.0
  0
LINE
  8
0
 62
     0
 10
262.613
 20
59.7309
 30
0.0
 11
263.414
 21
59.7309
 31
0.0
  0
LINE
  8
0
 62
     0
 10
263.414
 20
59.7309
 30
0.0
 11
263.414
 21
60.7314
 31
0.0
  0
LINE
  8
0
 62
     0
 10
263.414
 20
60.7314
 30
0.0
 11
277.413
 21
60.7314
 31
0.0
  0
LINE
  8
0
 62
     0
 10
277.413
 20
60.7314
 30
0.0
 11
277.413
 21
59.7309
 31
0.0
  0
LINE
  8
0
 62
     0
 10
277.413
 20
59.7309
 30
0.0
 11
278.212
 21
59.7309
 31
0.0
  0
LINE
  8
0
 62
     0
 10
278.212
 20
59.7309
 30
0.0
 11
278.212
 21
58.4606
 31
0.0
  0
LINE
  8
0
 62
     0
 10
278.212
 20
58.4606
 30
0.0
 11
278.988
 21
58.4606
 31
0.0
  0
LINE
  8
0
 62
     0
 10
278.988
 20
58.4606
 30
0.0
 11
278.988
 21
59.261
 31
0.0
  0
LINE
  8
0
 62
     0
 10
278.988
 20
59.261
 30
0.0
 11
280.713
 21
59.261
 31
0.0
  0
LINE
  8
0
 62
     0
 10
280.713
 20
59.261
 30
0.0
 11
280.713
 21
60.1818
 31
0.0
  0
LINE
  8
0
 62
     0
 10
280.713
 20
60.1818
 30
0.0
 11
284.012
 21
60.1818
 31
0.0
  0
LINE
  8
0
 62
     0
 10
284.012
 20
60.1818
 30
0.0
 11
284.012
 21
59.261
 31
0.0
  0
LINE
  8
0
 62
     0
 10
284.012
 20
59.261
 30
0.0
 11
285.639
 21
59.261
 31
0.0
  0
LINE
  8
0
 62
     0
 10
285.639
 20
59.261
 30
0.0
 11
285.639
 21
56.031
 31
0.0
  0
LINE
  8
0
 62
     0
 10
285.639
 20
56.031
 30
0.0
 11
286.513
 21
56.031
 31
0.0
  0
LINE
  8
0
 62
     0
 10
286.513
 20
56.031
 30
0.0
 11
286.513
 21
53.231
 31
0.0
  0
LINE
  8
0
 62
     0
 10
286.513
 20
53.231
 30
0.0
 11
285.639
 21
53.231
 31
0.0
  0
LINE
  8
0
 62
     0
 10
289.319
 20
9.63112
 30
0.0
 11
289.319
 21
8.63064
 31
0.0
  0
LINE
  8
0
 62
     0
 10
289.319
 20
8.63064
 30
0.0
 11
275.318
 21
8.63064
 31
0.0
  0
LINE
  8
0
 62
     0
 10
275.318
 20
8.63064
 30
0.0
 11
275.318
 21
9.63112
 31
0.0
  0
LINE
  8
0
 62
     0
 10
275.318
 20
9.63112
 30
0.0
 11
274.519
 21
9.63112
 31
0.0
  0
LINE
  8
0
 62
     0
 10
274.519
 20
9.63112
 30
0.0
 11
274.519
 21
12.7317
 31
0.0
  0
LINE
  8
0
 62
     0
 10
274.519
 20
12.7317
 30
0.0
 11
275.318
 21
12.7317
 31
0.0
  0
LINE
  8
0
 62
     0
 10
275.318
 20
12.7317
 30
0.0
 11
275.318
 21
18.5305
 31
0.0
  0
LINE
  8
0
 62
     0
 10
275.318
 20
18.5305
 30
0.0
 11
274.519
 21
18.5305
 31
0.0
  0
LINE
  8
0
 62
     0
 10
274.519
 20
18.5305
 30
0.0
 11
274.519
 21
21.6311
 31
0.0
  0
LINE
  8
0
 62
     0
 10
274.519
 20
21.6311
 30
0.0
 11
275.318
 21
21.6311
 31
0.0
  0
LINE
  8
0
 62
     0
 10
275.318
 20
21.6311
 30
0.0
 11
275.318
 21
22.6315
 31
0.0
  0
LINE
  8
0
 62
     0
 10
275.318
 20
22.6315
 30
0.0
 11
289.319
 21
22.6315
 31
0.0
  0
LINE
  8
0
 62
     0
 10
289.319
 20
22.6315
 30
0.0
 11
289.319
 21
21.6311
 31
0.0
  0
LINE
  8
0
 62
     0
 10
289.319
 20
21.6311
 30
0.0
 11
290.118
 21
21.6311
 31
0.0
  0
LINE
  8
0
 62
     0
 10
290.118
 20
21.6311
 30
0.0
 11
290.118
 21
18.5305
 31
0.0
  0
LINE
  8
0
 62
     0
 10
290.118
 20
18.5305
 30
0.0
 11
289.319
 21
18.5305
 31
0.0
  0
LINE
  8
0
 62
     0
 10
289.319
 20
18.5305
 30
0.0
 11
289.319
 21
12.7317
 31
0.0
  0
LINE
  8
0
 62
     0
 10
289.319
 20
12.7317
 30
0.0
 11
290.118
 21
12.7317
 31
0.0
  0
LINE
  8
0
 62
     0
 10
290.118
 20
12.7317
 30
0.0
 11
290.118
 21
9.63112
 31
0.0
  0
LINE
  8
0
 62
     0
 10
290.118
 20
9.63112
 30
0.0
 11
289.319
 21
9.63112
 31
0.0
  0
LINE
  8
0
 62
     0
 10
289.319
 20
104.881
 30
0.0
 11
289.319
 21
103.881
 31
0.0
  0
LINE
  8
0
 62
     0
 10
289.319
 20
103.881
 30
0.0
 11
275.318
 21
103.881
 31
0.0
  0
LINE
  8
0
 62
     0
 10
275.318
 20
103.881
 30
0.0
 11
275.318
 21
104.881
 31
0.0
  0
LINE
  8
0
 62
     0
 10
275.318
 20
104.881
 30
0.0
 11
274.519
 21
104.881
 31
0.0
  0
LINE
  8
0
 62
     0
 10
274.519
 20
104.881
 30
0.0
 11
274.519
 21
107.982
 31
0.0
  0
LINE
  8
0
 62
     0
 10
274.519
 20
107.982
 30
0.0
 11
275.318
 21
107.982
 31
0.0
  0
LINE
  8
0
 62
     0
 10
275.318
 20
107.982
 30
0.0
 11
275.318
 21
113.78
 31
0.0
  0
LINE
  8
0
 62
     0
 10
275.318
 20
113.78
 30
0.0
 11
274.519
 21
113.78
 31
0.0
  0
LINE
  8
0
 62
     0
 10
274.519
 20
113.78
 30
0.0
 11
274.519
 21
116.881
 31
0.0
  0
LINE
  8
0
 62
     0
 10
274.519
 20
116.881
 30
0.0
 11
275.318
 21
116.881
 31
0.0
  0
LINE
  8
0
 62
     0
 10
275.318
 20
116.881
 30
0.0
 11
275.318
 21
117.881
 31
0.0
  0
LINE
  8
0
 62
     0
 10
275.318
 20
117.881
 30
0.0
 11
289.319
 21
117.881
 31
0.0
  0
LINE
  8
0
 62
     0
 10
289.319
 20
117.881
 30
0.0
 11
289.319
 21
116.881
 31
0.0
  0
LINE
  8
0
 62
     0
 10
289.319
 20
116.881
 30
0.0
 11
290.118
 21
116.881
 31
0.0
  0
LINE
  8
0
 62
     0
 10
290.118
 20
116.881
 30
0.0
 11
290.118
 21
113.78
 31
0.0
  0
LINE
  8
0
 62
     0
 10
290.118
 20
113.78
 30
0.0
 11
289.319
 21
113.78
 31
0.0
  0
LINE
  8
0
 62
     0
 10
289.319
 20
113.78
 30
0.0
 11
289.319
 21
107.982
 31
0.0
  0
LINE
  8
0
 62
     0
 10
289.319
 20
107.982
 30
0.0
 11
290.118
 21
107.982
 31
0.0
  0
LINE
  8
0
 62
     0
 10
290.118
 20
107.982
 30
0.0
 11
290.118
 21
104.881
 31
0.0
  0
LINE
  8
0
 62
     0
 10
290.118
 20
104.881
 30
0.0
 11
289.319
 21
104.881
 31
0.0
  0
LINE
  8
0
 62
     0
 10
289.319
 20
85.8312
 30
0.0
 11
289.319
 21
84.8307
 31
0.0
  0
LINE
  8
0
 62
     0
 10
289.319
 20
84.8307
 30
0.0
 11
275.318
 21
84.8307
 31
0.0
  0
LINE
  8
0
 62
     0
 10
275.318
 20
84.8307
 30
0.0
 11
275.318
 21
85.8312
 31
0.0
  0
LINE
  8
0
 62
     0
 10
275.318
 20
85.8312
 30
0.0
 11
274.519
 21
85.8312
 31
0.0
  0
LINE
  8
0
 62
     0
 10
274.519
 20
85.8312
 30
0.0
 11
274.519
 21
88.9317
 31
0.0
  0
LINE
  8
0
 62
     0
 10
274.519
 20
88.9317
 30
0.0
 11
275.318
 21
88.9317
 31
0.0
  0
LINE
  8
0
 62
     0
 10
275.318
 20
88.9317
 30
0.0
 11
275.318
 21
94.7304
 31
0.0
  0
LINE
  8
0
 62
     0
 10
275.318
 20
94.7304
 30
0.0
 11
274.519
 21
94.7304
 31
0.0
  0
LINE
  8
0
 62
     0
 10
274.519
 20
94.7304
 30
0.0
 11
274.519
 21
97.8309
 31
0.0
  0
LINE
  8
0
 62
     0
 10
274.519
 20
97.8309
 30
0.0
 11
275.318
 21
97.8309
 31
0.0
  0
LINE
  8
0
 62
     0
 10
275.318
 20
97.8309
 30
0.0
 11
275.318
 21
98.8314
 31
0.0
  0
LINE
  8
0
 62
     0
 10
275.318
 20
98.8314
 30
0.0
 11
289.319
 21
98.8314
 31
0.0
  0
LINE
  8
0
 62
     0
 10
289.319
 20
98.8314
 30
0.0
 11
289.319
 21
97.8309
 31
0.0
  0
LINE
  8
0
 62
     0
 10
289.319
 20
97.8309
 30
0.0
 11
290.118
 21
97.8309
 31
0.0
  0
LINE
  8
0
 62
     0
 10
290.118
 20
97.8309
 30
0.0
 11
290.118
 21
94.7304
 31
0.0
  0
LINE
  8
0
 62
     0
 10
290.118
 20
94.7304
 30
0.0
 11
289.319
 21
94.7304
 31
0.0
  0
LINE
  8
0
 62
     0
 10
289.319
 20
94.7304
 30
0.0
 11
289.319
 21
88.9317
 31
0.0
  0
LINE
  8
0
 62
     0
 10
289.319
 20
88.9317
 30
0.0
 11
290.118
 21
88.9317
 31
0.0
  0
LINE
  8
0
 62
     0
 10
290.118
 20
88.9317
 30
0.0
 11
290.118
 21
85.8312
 31
0.0
  0
LINE
  8
0
 62
     0
 10
290.118
 20
85.8312
 30
0.0
 11
289.319
 21
85.8312
 31
0.0
  0
LINE
  8
0
 62
     0
 10
289.319
 20
28.6811
 30
0.0
 11
289.319
 21
27.6806
 31
0.0
  0
LINE
  8
0
 62
     0
 10
289.319
 20
27.6806
 30
0.0
 11
275.318
 21
27.6806
 31
0.0
  0
LINE
  8
0
 62
     0
 10
275.318
 20
27.6806
 30
0.0
 11
275.318
 21
28.6811
 31
0.0
  0
LINE
  8
0
 62
     0
 10
275.318
 20
28.6811
 30
0.0
 11
274.519
 21
28.6811
 31
0.0
  0
LINE
  8
0
 62
     0
 10
274.519
 20
28.6811
 30
0.0
 11
274.519
 21
31.7817
 31
0.0
  0
LINE
  8
0
 62
     0
 10
274.519
 20
31.7817
 30
0.0
 11
275.318
 21
31.7817
 31
0.0
  0
LINE
  8
0
 62
     0
 10
275.318
 20
31.7817
 30
0.0
 11
275.318
 21
37.5804
 31
0.0
  0
LINE
  8
0
 62
     0
 10
275.318
 20
37.5804
 30
0.0
 11
274.519
 21
37.5804
 31
0.0
  0
LINE
  8
0
 62
     0
 10
274.519
 20
37.5804
 30
0.0
 11
274.519
 21
40.6809
 31
0.0
  0
LINE
  8
0
 62
     0
 10
274.519
 20
40.6809
 30
0.0
 11
275.318
 21
40.6809
 31
0.0
  0
LINE
  8
0
 62
     0
 10
275.318
 20
40.6809
 30
0.0
 11
275.318
 21
41.6814
 31
0.0
  0
LINE
  8
0
 62
     0
 10
275.318
 20
41.6814
 30
0.0
 11
289.319
 21
41.6814
 31
0.0
  0
LINE
  8
0
 62
     0
 10
289.319
 20
41.6814
 30
0.0
 11
289.319
 21
40.6809
 31
0.0
  0
LINE
  8
0
 62
     0
 10
289.319
 20
40.6809
 30
0.0
 11
290.118
 21
40.6809
 31
0.0
  0
LINE
  8
0
 62
     0
 10
290.118
 20
40.6809
 30
0.0
 11
290.118
 21
37.5804
 31
0.0
  0
LINE
  8
0
 62
     0
 10
290.118
 20
37.5804
 30
0.0
 11
289.319
 21
37.5804
 31
0.0
  0
LINE
  8
0
 62
     0
 10
289.319
 20
37.5804
 30
0.0
 11
289.319
 21
31.7817
 31
0.0
  0
LINE
  8
0
 62
     0
 10
289.319
 20
31.7817
 30
0.0
 11
290.118
 21
31.7817
 31
0.0
  0
LINE
  8
0
 62
     0
 10
290.118
 20
31.7817
 30
0.0
 11
290.118
 21
28.6811
 31
0.0
  0
LINE
  8
0
 62
     0
 10
290.118
 20
28.6811
 30
0.0
 11
289.319
 21
28.6811
 31
0.0
  0
LINE
  8
0
 62
     0
 10
308.369
 20
66.7812
 30
0.0
 11
308.369
 21
65.7807
 31
0.0
  0
LINE
  8
0
 62
     0
 10
308.369
 20
65.7807
 30
0.0
 11
294.368
 21
65.7807
 31
0.0
  0
LINE
  8
0
 62
     0
 10
294.368
 20
65.7807
 30
0.0
 11
294.368
 21
66.7812
 31
0.0
  0
LINE
  8
0
 62
     0
 10
294.368
 20
66.7812
 30
0.0
 11
293.569
 21
66.7812
 31
0.0
  0
LINE
  8
0
 62
     0
 10
293.569
 20
66.7812
 30
0.0
 11
293.569
 21
69.8817
 31
0.0
  0
LINE
  8
0
 62
     0
 10
293.569
 20
69.8817
 30
0.0
 11
294.368
 21
69.8817
 31
0.0
  0
LINE
  8
0
 62
     0
 10
294.368
 20
69.8817
 30
0.0
 11
294.368
 21
75.6804
 31
0.0
  0
LINE
  8
0
 62
     0
 10
294.368
 20
75.6804
 30
0.0
 11
293.569
 21
75.6804
 31
0.0
  0
LINE
  8
0
 62
     0
 10
293.569
 20
75.6804
 30
0.0
 11
293.569
 21
78.7809
 31
0.0
  0
LINE
  8
0
 62
     0
 10
293.569
 20
78.7809
 30
0.0
 11
294.368
 21
78.7809
 31
0.0
  0
LINE
  8
0
 62
     0
 10
294.368
 20
78.7809
 30
0.0
 11
294.368
 21
79.7814
 31
0.0
  0
LINE
  8
0
 62
     0
 10
294.368
 20
79.7814
 30
0.0
 11
308.369
 21
79.7814
 31
0.0
  0
LINE
  8
0
 62
     0
 10
308.369
 20
79.7814
 30
0.0
 11
308.369
 21
78.7809
 31
0.0
  0
LINE
  8
0
 62
     0
 10
308.369
 20
78.7809
 30
0.0
 11
309.168
 21
78.7809
 31
0.0
  0
LINE
  8
0
 62
     0
 10
309.168
 20
78.7809
 30
0.0
 11
309.168
 21
75.6804
 31
0.0
  0
LINE
  8
0
 62
     0
 10
309.168
 20
75.6804
 30
0.0
 11
308.369
 21
75.6804
 31
0.0
  0
LINE
  8
0
 62
     0
 10
308.369
 20
75.6804
 30
0.0
 11
308.369
 21
69.8817
 31
0.0
  0
LINE
  8
0
 62
     0
 10
308.369
 20
69.8817
 30
0.0
 11
309.168
 21
69.8817
 31
0.0
  0
LINE
  8
0
 62
     0
 10
309.168
 20
69.8817
 30
0.0
 11
309.168
 21
66.7812
 31
0.0
  0
LINE
  8
0
 62
     0
 10
309.168
 20
66.7812
 30
0.0
 11
308.369
 21
66.7812
 31
0.0
  0
LINE
  8
0
 62
     0
 10
308.369
 20
9.63112
 30
0.0
 11
308.369
 21
8.63064
 31
0.0
  0
LINE
  8
0
 62
     0
 10
308.369
 20
8.63064
 30
0.0
 11
294.368
 21
8.63064
 31
0.0
  0
LINE
  8
0
 62
     0
 10
294.368
 20
8.63064
 30
0.0
 11
294.368
 21
9.63112
 31
0.0
  0
LINE
  8
0
 62
     0
 10
294.368
 20
9.63112
 30
0.0
 11
293.569
 21
9.63112
 31
0.0
  0
LINE
  8
0
 62
     0
 10
293.569
 20
9.63112
 30
0.0
 11
293.569
 21
12.7317
 31
0.0
  0
LINE
  8
0
 62
     0
 10
293.569
 20
12.7317
 30
0.0
 11
294.368
 21
12.7317
 31
0.0
  0
LINE
  8
0
 62
     0
 10
294.368
 20
12.7317
 30
0.0
 11
294.368
 21
18.5305
 31
0.0
  0
LINE
  8
0
 62
     0
 10
294.368
 20
18.5305
 30
0.0
 11
293.569
 21
18.5305
 31
0.0
  0
LINE
  8
0
 62
     0
 10
293.569
 20
18.5305
 30
0.0
 11
293.569
 21
21.6311
 31
0.0
  0
LINE
  8
0
 62
     0
 10
293.569
 20
21.6311
 30
0.0
 11
294.368
 21
21.6311
 31
0.0
  0
LINE
  8
0
 62
     0
 10
294.368
 20
21.6311
 30
0.0
 11
294.368
 21
22.6315
 31
0.0
  0
LINE
  8
0
 62
     0
 10
294.368
 20
22.6315
 30
0.0
 11
308.369
 21
22.6315
 31
0.0
  0
LINE
  8
0
 62
     0
 10
308.369
 20
22.6315
 30
0.0
 11
308.369
 21
21.6311
 31
0.0
  0
LINE
  8
0
 62
     0
 10
308.369
 20
21.6311
 30
0.0
 11
309.168
 21
21.6311
 31
0.0
  0
LINE
  8
0
 62
     0
 10
309.168
 20
21.6311
 30
0.0
 11
309.168
 21
18.5305
 31
0.0
  0
LINE
  8
0
 62
     0
 10
309.168
 20
18.5305
 30
0.0
 11
308.369
 21
18.5305
 31
0.0
  0
LINE
  8
0
 62
     0
 10
308.369
 20
18.5305
 30
0.0
 11
308.369
 21
12.7317
 31
0.0
  0
LINE
  8
0
 62
     0
 10
308.369
 20
12.7317
 30
0.0
 11
309.168
 21
12.7317
 31
0.0
  0
LINE
  8
0
 62
     0
 10
309.168
 20
12.7317
 30
0.0
 11
309.168
 21
9.63112
 31
0.0
  0
LINE
  8
0
 62
     0
 10
309.168
 20
9.63112
 30
0.0
 11
308.369
 21
9.63112
 31
0.0
  0
LINE
  8
0
 62
     0
 10
308.369
 20
104.881
 30
0.0
 11
308.369
 21
103.881
 31
0.0
  0
LINE
  8
0
 62
     0
 10
308.369
 20
103.881
 30
0.0
 11
294.368
 21
103.881
 31
0.0
  0
LINE
  8
0
 62
     0
 10
294.368
 20
103.881
 30
0.0
 11
294.368
 21
104.881
 31
0.0
  0
LINE
  8
0
 62
     0
 10
294.368
 20
104.881
 30
0.0
 11
293.569
 21
104.881
 31
0.0
  0
LINE
  8
0
 62
     0
 10
293.569
 20
104.881
 30
0.0
 11
293.569
 21
107.982
 31
0.0
  0
LINE
  8
0
 62
     0
 10
293.569
 20
107.982
 30
0.0
 11
294.368
 21
107.982
 31
0.0
  0
LINE
  8
0
 62
     0
 10
294.368
 20
107.982
 30
0.0
 11
294.368
 21
113.78
 31
0.0
  0
LINE
  8
0
 62
     0
 10
294.368
 20
113.78
 30
0.0
 11
293.569
 21
113.78
 31
0.0
  0
LINE
  8
0
 62
     0
 10
293.569
 20
113.78
 30
0.0
 11
293.569
 21
116.881
 31
0.0
  0
LINE
  8
0
 62
     0
 10
293.569
 20
116.881
 30
0.0
 11
294.368
 21
116.881
 31
0.0
  0
LINE
  8
0
 62
     0
 10
294.368
 20
116.881
 30
0.0
 11
294.368
 21
117.881
 31
0.0
  0
LINE
  8
0
 62
     0
 10
294.368
 20
117.881
 30
0.0
 11
308.369
 21
117.881
 31
0.0
  0
LINE
  8
0
 62
     0
 10
308.369
 20
117.881
 30
0.0
 11
308.369
 21
116.881
 31
0.0
  0
LINE
  8
0
 62
     0
 10
308.369
 20
116.881
 30
0.0
 11
309.168
 21
116.881
 31
0.0
  0
LINE
  8
0
 62
     0
 10
309.168
 20
116.881
 30
0.0
 11
309.168
 21
113.78
 31
0.0
  0
LINE
  8
0
 62
     0
 10
309.168
 20
113.78
 30
0.0
 11
308.369
 21
113.78
 31
0.0
  0
LINE
  8
0
 62
     0
 10
308.369
 20
113.78
 30
0.0
 11
308.369
 21
107.982
 31
0.0
  0
LINE
  8
0
 62
     0
 10
308.369
 20
107.982
 30
0.0
 11
309.168
 21
107.982
 31
0.0
  0
LINE
  8
0
 62
     0
 10
309.168
 20
107.982
 30
0.0
 11
309.168
 21
104.881
 31
0.0
  0
LINE
  8
0
 62
     0
 10
309.168
 20
104.881
 30
0.0
 11
308.369
 21
104.881
 31
0.0
  0
LINE
  8
0
 62
     0
 10
308.369
 20
85.8312
 30
0.0
 11
308.369
 21
84.8307
 31
0.0
  0
LINE
  8
0
 62
     0
 10
308.369
 20
84.8307
 30
0.0
 11
294.368
 21
84.8307
 31
0.0
  0
LINE
  8
0
 62
     0
 10
294.368
 20
84.8307
 30
0.0
 11
294.368
 21
85.8312
 31
0.0
  0
LINE
  8
0
 62
     0
 10
294.368
 20
85.8312
 30
0.0
 11
293.569
 21
85.8312
 31
0.0
  0
LINE
  8
0
 62
     0
 10
293.569
 20
85.8312
 30
0.0
 11
293.569
 21
88.9317
 31
0.0
  0
LINE
  8
0
 62
     0
 10
293.569
 20
88.9317
 30
0.0
 11
294.368
 21
88.9317
 31
0.0
  0
LINE
  8
0
 62
     0
 10
294.368
 20
88.9317
 30
0.0
 11
294.368
 21
94.7304
 31
0.0
  0
LINE
  8
0
 62
     0
 10
294.368
 20
94.7304
 30
0.0
 11
293.569
 21
94.7304
 31
0.0
  0
LINE
  8
0
 62
     0
 10
293.569
 20
94.7304
 30
0.0
 11
293.569
 21
97.8309
 31
0.0
  0
LINE
  8
0
 62
     0
 10
293.569
 20
97.8309
 30
0.0
 11
294.368
 21
97.8309
 31
0.0
  0
LINE
  8
0
 62
     0
 10
294.368
 20
97.8309
 30
0.0
 11
294.368
 21
98.8314
 31
0.0
  0
LINE
  8
0
 62
     0
 10
294.368
 20
98.8314
 30
0.0
 11
308.369
 21
98.8314
 31
0.0
  0
LINE
  8
0
 62
     0
 10
308.369
 20
98.8314
 30
0.0
 11
308.369
 21
97.8309
 31
0.0
  0
LINE
  8
0
 62
     0
 10
308.369
 20
97.8309
 30
0.0
 11
309.168
 21
97.8309
 31
0.0
  0
LINE
  8
0
 62
     0
 10
309.168
 20
97.8309
 30
0.0
 11
309.168
 21
94.7304
 31
0.0
  0
LINE
  8
0
 62
     0
 10
309.168
 20
94.7304
 30
0.0
 11
308.369
 21
94.7304
 31
0.0
  0
LINE
  8
0
 62
     0
 10
308.369
 20
94.7304
 30
0.0
 11
308.369
 21
88.9317
 31
0.0
  0
LINE
  8
0
 62
     0
 10
308.369
 20
88.9317
 30
0.0
 11
309.168
 21
88.9317
 31
0.0
  0
LINE
  8
0
 62
     0
 10
309.168
 20
88.9317
 30
0.0
 11
309.168
 21
85.8312
 31
0.0
  0
LINE
  8
0
 62
     0
 10
309.168
 20
85.8312
 30
0.0
 11
308.369
 21
85.8312
 31
0.0
  0
LINE
  8
0
 62
     0
 10
308.369
 20
47.7312
 30
0.0
 11
308.369
 21
46.7307
 31
0.0
  0
LINE
  8
0
 62
     0
 10
308.369
 20
46.7307
 30
0.0
 11
294.368
 21
46.7307
 31
0.0
  0
LINE
  8
0
 62
     0
 10
294.368
 20
46.7307
 30
0.0
 11
294.368
 21
47.7312
 31
0.0
  0
LINE
  8
0
 62
     0
 10
294.368
 20
47.7312
 30
0.0
 11
293.569
 21
47.7312
 31
0.0
  0
LINE
  8
0
 62
     0
 10
293.569
 20
47.7312
 30
0.0
 11
293.569
 21
50.8317
 31
0.0
  0
LINE
  8
0
 62
     0
 10
293.569
 20
50.8317
 30
0.0
 11
294.368
 21
50.8317
 31
0.0
  0
LINE
  8
0
 62
     0
 10
294.368
 20
50.8317
 30
0.0
 11
294.368
 21
56.6304
 31
0.0
  0
LINE
  8
0
 62
     0
 10
294.368
 20
56.6304
 30
0.0
 11
293.569
 21
56.6304
 31
0.0
  0
LINE
  8
0
 62
     0
 10
293.569
 20
56.6304
 30
0.0
 11
293.569
 21
59.7309
 31
0.0
  0
LINE
  8
0
 62
     0
 10
293.569
 20
59.7309
 30
0.0
 11
294.368
 21
59.7309
 31
0.0
  0
LINE
  8
0
 62
     0
 10
294.368
 20
59.7309
 30
0.0
 11
294.368
 21
60.7314
 31
0.0
  0
LINE
  8
0
 62
     0
 10
294.368
 20
60.7314
 30
0.0
 11
308.369
 21
60.7314
 31
0.0
  0
LINE
  8
0
 62
     0
 10
308.369
 20
60.7314
 30
0.0
 11
308.369
 21
59.7309
 31
0.0
  0
LINE
  8
0
 62
     0
 10
308.369
 20
59.7309
 30
0.0
 11
309.168
 21
59.7309
 31
0.0
  0
LINE
  8
0
 62
     0
 10
309.168
 20
59.7309
 30
0.0
 11
309.168
 21
56.6304
 31
0.0
  0
LINE
  8
0
 62
     0
 10
309.168
 20
56.6304
 30
0.0
 11
308.369
 21
56.6304
 31
0.0
  0
LINE
  8
0
 62
     0
 10
308.369
 20
56.6304
 30
0.0
 11
308.369
 21
50.8317
 31
0.0
  0
LINE
  8
0
 62
     0
 10
308.369
 20
50.8317
 30
0.0
 11
309.168
 21
50.8317
 31
0.0
  0
LINE
  8
0
 62
     0
 10
309.168
 20
50.8317
 30
0.0
 11
309.168
 21
47.7312
 31
0.0
  0
LINE
  8
0
 62
     0
 10
309.168
 20
47.7312
 30
0.0
 11
308.369
 21
47.7312
 31
0.0
  0
LINE
  8
0
 62
     0
 10
308.369
 20
28.6811
 30
0.0
 11
308.369
 21
27.6806
 31
0.0
  0
LINE
  8
0
 62
     0
 10
308.369
 20
27.6806
 30
0.0
 11
294.368
 21
27.6806
 31
0.0
  0
LINE
  8
0
 62
     0
 10
294.368
 20
27.6806
 30
0.0
 11
294.368
 21
28.6811
 31
0.0
  0
LINE
  8
0
 62
     0
 10
294.368
 20
28.6811
 30
0.0
 11
293.569
 21
28.6811
 31
0.0
  0
LINE
  8
0
 62
     0
 10
293.569
 20
28.6811
 30
0.0
 11
293.569
 21
31.7817
 31
0.0
  0
LINE
  8
0
 62
     0
 10
293.569
 20
31.7817
 30
0.0
 11
294.368
 21
31.7817
 31
0.0
  0
LINE
  8
0
 62
     0
 10
294.368
 20
31.7817
 30
0.0
 11
294.368
 21
37.5804
 31
0.0
  0
LINE
  8
0
 62
     0
 10
294.368
 20
37.5804
 30
0.0
 11
293.569
 21
37.5804
 31
0.0
  0
LINE
  8
0
 62
     0
 10
293.569
 20
37.5804
 30
0.0
 11
293.569
 21
40.6809
 31
0.0
  0
LINE
  8
0
 62
     0
 10
293.569
 20
40.6809
 30
0.0
 11
294.368
 21
40.6809
 31
0.0
  0
LINE
  8
0
 62
     0
 10
294.368
 20
40.6809
 30
0.0
 11
294.368
 21
41.6814
 31
0.0
  0
LINE
  8
0
 62
     0
 10
294.368
 20
41.6814
 30
0.0
 11
308.369
 21
41.6814
 31
0.0
  0
LINE
  8
0
 62
     0
 10
308.369
 20
41.6814
 30
0.0
 11
308.369
 21
40.6809
 31
0.0
  0
LINE
  8
0
 62
     0
 10
308.369
 20
40.6809
 30
0.0
 11
309.168
 21
40.6809
 31
0.0
  0
LINE
  8
0
 62
     0
 10
309.168
 20
40.6809
 30
0.0
 11
309.168
 21
37.5804
 31
0.0
  0
LINE
  8
0
 62
     0
 10
309.168
 20
37.5804
 30
0.0
 11
308.369
 21
37.5804
 31
0.0
  0
LINE
  8
0
 62
     0
 10
308.369
 20
37.5804
 30
0.0
 11
308.369
 21
31.7817
 31
0.0
  0
LINE
  8
0
 62
     0
 10
308.369
 20
31.7817
 30
0.0
 11
309.168
 21
31.7817
 31
0.0
  0
LINE
  8
0
 62
     0
 10
309.168
 20
31.7817
 30
0.0
 11
309.168
 21
28.6811
 31
0.0
  0
LINE
  8
0
 62
     0
 10
309.168
 20
28.6811
 30
0.0
 11
308.369
 21
28.6811
 31
0.0
  0
ENDSEC
  0
EOF
